<svg xmlns="http://www.w3.org/2000/svg" xmlns:xlink="http://www.w3.org/1999/xlink" width="1024" zoomAndPan="magnify" viewBox="0 0 768 767.999994" height="1024" preserveAspectRatio="xMidYMid meet" version="1.0"><path fill="#fefefe" d="M 287.574219 431.453125 C 286.277344 421.941406 280.441406 412.644531 277.199219 403.777344 C 273.523438 394.050781 270.496094 383.671875 268.765625 373.511719 C 265.089844 351.460938 264.441406 328.542969 268.550781 306.492188 C 270.710938 295.25 273.957031 281.199219 285.847656 276.875 C 300.546875 271.6875 308.332031 290.0625 311.789062 300.871094 C 314.816406 311.25 318.492188 329.625 313.085938 339.785156 C 308.980469 347.785156 302.0625 344.976562 299.25 337.839844 C 297.304688 332.652344 297.738281 326.816406 297.304688 321.410156 C 296.65625 311.03125 281.523438 310.816406 281.089844 321.410156 C 280.65625 335.460938 283.683594 351.460938 297.953125 357.296875 C 309.410156 362.054688 321.085938 356.867188 324.113281 344.542969 C 329.949219 321.195312 322.597656 268.441406 291.25 265.632812 C 255.796875 262.605469 251.902344 317.085938 252.550781 341.515625 C 253.199219 359.460938 256.875 376.753906 262.28125 393.617188 C 266.605469 407.023438 272.660156 425.398438 284.550781 433.832031 C 286.277344 434.910156 288.007812 433.179688 287.574219 431.453125 Z M 287.574219 431.453125 " fill-opacity="1" fill-rule="nonzero"/><path fill="#fefefe" d="M 310.925781 288.546875 C 315.464844 279.46875 313.953125 264.765625 325.625 260.660156 C 340.328125 255.253906 346.378906 277.523438 349.625 287.898438 C 354.8125 304.980469 356.542969 340.433594 330.8125 342.378906 C 332.542969 343.027344 334.488281 343.894531 336.21875 344.542969 C 332.542969 341.515625 331.03125 340.21875 326.273438 339.570312 C 320.871094 338.707031 315.464844 343.894531 318.707031 349.296875 C 328.867188 365.730469 348.542969 353.40625 356.757812 341.300781 C 368.863281 323.570312 364.757812 302.167969 357.40625 283.574219 C 352.648438 270.605469 346.597656 247.472656 328.21875 250.5 C 312.222656 253.09375 303.359375 273.632812 307.683594 288.117188 C 308.332031 289.414062 310.277344 289.847656 310.925781 288.546875 Z M 310.925781 288.546875 " fill-opacity="1" fill-rule="nonzero"/><path fill="#fefefe" d="M 348.972656 273.632812 C 355.242188 264.117188 364.324219 250.28125 377.726562 255.253906 C 390.050781 259.796875 392.644531 278.171875 392.644531 289.414062 C 392.644531 300.65625 381.402344 356.867188 362.59375 332.4375 C 356.972656 325.300781 345.730469 334.382812 350.273438 341.949219 C 358.917969 356.648438 379.242188 352.972656 389.402344 341.730469 C 402.15625 327.464844 405.183594 302.167969 403.023438 283.792969 C 400.859375 269.308594 394.589844 246.824219 377.511719 244.011719 C 359.566406 240.984375 347.675781 256.984375 345.949219 272.765625 C 345.730469 274.496094 348.109375 274.710938 348.972656 273.632812 Z M 348.972656 273.632812 " fill-opacity="1" fill-rule="nonzero"/><path fill="#fefefe" d="M 394.375 261.957031 C 397.183594 260.445312 398.699219 258.28125 401.292969 256.335938 C 409.292969 250.28125 415.5625 254.605469 418.804688 262.820312 C 422.695312 272.765625 425.074219 284.441406 425.9375 295.035156 C 426.585938 305.628906 425.289062 316.4375 419.886719 325.515625 C 413.617188 335.894531 406.480469 338.488281 395.457031 335.246094 C 388.320312 333.085938 381.402344 343.460938 387.671875 348.648438 C 400.644531 359.242188 416.859375 349.949219 425.722656 338.488281 C 436.53125 324.867188 438.695312 306.277344 436.53125 289.414062 C 434.585938 274.929688 431.558594 251.578125 416.644531 244.230469 C 405.402344 238.824219 390.914062 247.039062 390.699219 259.796875 C 390.699219 261.742188 392.644531 262.820312 394.375 261.957031 Z M 394.375 261.957031 " fill-opacity="1" fill-rule="nonzero"/><path fill="#fefefe" d="M 402.589844 529.386719 C 397.835938 513.605469 398.484375 495.660156 406.480469 481.175781 C 413.617188 468.421875 425.9375 459.558594 433.9375 447.234375 C 449.070312 423.453125 446.695312 394.050781 449.503906 367.027344 C 452.964844 334.382812 469.394531 306.492188 485.390625 278.605469 C 492.527344 266.066406 516.089844 230.824219 485.824219 231.257812 C 458.585938 231.257812 434.804688 250.929688 424.859375 275.359375 C 422.046875 282.0625 433.289062 285.304688 435.882812 278.386719 C 441.9375 262.390625 454.042969 249.632812 469.828125 242.714844 C 476.746094 239.6875 497.28125 231.472656 493.605469 247.039062 C 491.878906 254.175781 484.09375 262.605469 480.203125 268.875 C 462.90625 297.195312 444.316406 325.085938 439.34375 358.59375 C 434.371094 391.671875 439.558594 425.832031 415.34375 452.421875 C 405.402344 463.449219 395.023438 474.042969 391.132812 488.960938 C 387.242188 503.875 389.617188 518.363281 397.402344 531.332031 C 398.914062 534.359375 403.671875 532.628906 402.589844 529.386719 Z M 402.589844 529.386719 " fill-opacity="1" fill-rule="nonzero"/><path fill="#fefefe" d="M 391.566406 373.945312 C 380.105469 373.296875 373.1875 385.1875 369.296875 394.265625 C 362.8125 409.617188 353.945312 429.074219 353.515625 445.71875 C 353.296875 451.558594 361.730469 453.71875 364.539062 448.746094 C 371.027344 436.855469 372.972656 421.941406 377.078125 409.183594 C 380.972656 397.078125 385.292969 388.863281 393.726562 379.566406 C 395.886719 377.402344 394.375 374.160156 391.566406 373.945312 Z M 391.566406 373.945312 " fill-opacity="1" fill-rule="nonzero"/><path fill="#fefefe" d="M 363.675781 373.296875 C 356.109375 378.050781 348.109375 381.945312 339.894531 384.753906 C 332.761719 387.132812 324.328125 387.78125 318.058594 392.105469 C 313.953125 394.914062 315.679688 400.753906 320.4375 401.183594 C 328.867188 402.050781 337.515625 396.644531 344.652344 392.320312 C 352.433594 387.566406 359.136719 381.945312 365.40625 375.457031 C 366.484375 374.378906 365.1875 372.429688 363.675781 373.296875 Z M 363.675781 373.296875 " fill-opacity="1" fill-rule="nonzero"/><path fill="#fefefe" d="M 272.011719 411.777344 C 273.089844 431.882812 277.199219 451.558594 277.414062 471.878906 C 277.632812 481.175781 277.199219 490.472656 275.902344 499.769531 C 274.605469 510.144531 270.496094 520.523438 270.28125 531.117188 C 270.0625 535.65625 276.550781 537.171875 278.710938 533.496094 C 288.007812 517.28125 285.847656 491.984375 284.332031 474.042969 C 282.601562 453.503906 280.007812 431.667969 274.605469 411.5625 C 274.386719 410.050781 272.011719 410.265625 272.011719 411.777344 Z M 272.011719 411.777344 " fill-opacity="1" fill-rule="nonzero"/><path fill="#fefefe" d="M 378.59375 474.90625 C 398.265625 482.90625 424.425781 463.882812 429.398438 445.070312 C 430.480469 441.398438 425.507812 439.667969 423.5625 442.476562 C 417.941406 450.261719 412.101562 457.394531 403.671875 461.933594 C 395.457031 466.476562 387.242188 466.90625 378.59375 469.5 C 375.78125 470.582031 376.214844 474.042969 378.59375 474.90625 Z M 378.59375 474.90625 " fill-opacity="1" fill-rule="nonzero"/><path fill="#fefefe" d="M 304.65625 328.976562 C 306.382812 327.464844 308.546875 326.816406 310.925781 326.816406 C 312.4375 326.816406 312.4375 324.21875 310.925781 324.4375 C 308.113281 324.652344 305.519531 325.949219 303.574219 327.894531 C 303.140625 328.761719 304.007812 329.625 304.65625 328.976562 Z M 304.65625 328.976562 " fill-opacity="1" fill-rule="nonzero"/><path fill="#fefefe" d="M 331.464844 323.140625 C 332.976562 322.058594 334.707031 321.195312 336.652344 321.410156 C 338.8125 321.84375 340.542969 322.921875 342.921875 322.058594 C 345.949219 320.976562 348.109375 316.4375 345.082031 314.058594 C 343.136719 312.546875 341.40625 311.898438 339.03125 312.328125 C 337.515625 312.761719 335.785156 313.410156 334.488281 314.277344 C 332.113281 315.789062 329.734375 317.949219 328.4375 320.328125 C 327.140625 322.921875 329.734375 324.4375 331.464844 323.140625 Z M 331.464844 323.140625 " fill-opacity="1" fill-rule="nonzero"/><path fill="#fefefe" d="M 363.027344 315.789062 C 364.972656 317.085938 367.785156 316.222656 369.945312 316.003906 C 372.324219 315.574219 374.917969 314.707031 377.078125 313.625 C 379.242188 312.546875 379.242188 308.871094 377.078125 307.789062 C 373.835938 306.277344 369.296875 306.277344 366.269531 308.222656 C 364.757812 309.085938 363.242188 309.953125 362.378906 311.464844 C 361.296875 312.976562 361.515625 314.707031 363.027344 315.789062 Z M 363.027344 315.789062 " fill-opacity="1" fill-rule="nonzero"/><path fill="#fefefe" d="M 400.429688 312.546875 C 402.375 313.195312 404.320312 312.976562 406.265625 313.410156 C 408.210938 313.625 410.375 314.058594 412.320312 314.058594 C 415.128906 313.84375 417.074219 310.382812 414.695312 308.222656 C 412.535156 306.277344 409.726562 305.410156 406.699219 305.195312 C 403.671875 305.195312 401.292969 305.628906 398.914062 307.574219 C 397.183594 309.085938 398.265625 311.679688 400.429688 312.546875 Z M 400.429688 312.546875 " fill-opacity="1" fill-rule="nonzero"/></svg>