<svg xmlns="http://www.w3.org/2000/svg" xmlns:xlink="http://www.w3.org/1999/xlink" width="1024" zoomAndPan="magnify" viewBox="0 0 768 767.999994" height="1024" preserveAspectRatio="xMidYMid meet" version="1.0"><path fill="#fefefe" d="M 348.453125 349.757812 C 352.5625 303.464844 352.347656 254.789062 364.246094 209.574219 C 364.894531 206.761719 365.761719 204.164062 366.84375 201.566406 C 367.492188 199.835938 368.355469 198.105469 369.4375 196.59375 C 370.519531 193.347656 372.035156 193.5625 374.199219 197.023438 C 379.390625 200.488281 378.089844 208.492188 378.308594 214.332031 C 378.957031 226.230469 379.605469 238.34375 380.039062 250.460938 C 380.902344 274.472656 381.769531 298.488281 382.203125 322.5 C 382.203125 328.773438 392.152344 328.773438 391.9375 322.5 C 391.289062 291.347656 389.988281 260.195312 387.394531 229.257812 C 386.746094 220.390625 389.125 171.929688 367.707031 187.074219 C 359.488281 192.914062 356.675781 205.460938 354.941406 214.546875 C 352.132812 228.175781 350.398438 242.238281 348.886719 256.085938 C 345.207031 287.238281 343.476562 318.390625 346.507812 349.757812 C 346.9375 351.058594 348.453125 351.058594 348.453125 349.757812 Z M 348.453125 349.757812 " fill-opacity="1" fill-rule="nonzero"/><path fill="#fefefe" d="M 386.960938 318.390625 C 385.664062 294.160156 386.097656 269.5 387.394531 245.269531 C 388.042969 232.722656 388.476562 219.957031 390.207031 207.410156 C 391.070312 199.835938 396.480469 174.742188 408.164062 177.121094 C 416.816406 178.851562 418.546875 204.8125 419.195312 212.386719 C 420.492188 224.714844 421.144531 237.046875 421.574219 249.378906 C 422.65625 274.691406 422.65625 299.785156 421.574219 325.097656 C 421.359375 330.503906 429.796875 330.503906 429.796875 325.097656 C 430.878906 292.863281 430.230469 260.628906 427.847656 228.394531 C 426.765625 213.898438 425.46875 198.972656 420.925781 185.125 C 418.761719 179.070312 416.382812 168.902344 408.378906 169.117188 C 400.15625 169.332031 392.585938 179.070312 389.339844 185.558594 C 383.933594 195.941406 383.5 208.492188 382.632812 219.957031 C 380.253906 252.839844 381.984375 285.507812 385.664062 318.175781 C 385.664062 319.257812 386.960938 319.257812 386.960938 318.390625 Z M 386.960938 318.390625 " fill-opacity="1" fill-rule="nonzero"/><path fill="#fefefe" d="M 439.53125 548.359375 C 432.390625 514.824219 468.304688 491.460938 469.167969 458.578125 C 470.035156 430.019531 452.078125 400.382812 434.554688 378.964844 C 425.253906 367.714844 412.921875 365.550781 399.507812 362.523438 C 387.828125 359.925781 370.953125 353.003906 359.269531 358.195312 C 350.183594 362.308594 347.585938 372.257812 350.183594 381.34375 C 353.644531 393.460938 364.460938 399.085938 374.628906 404.925781 C 390.207031 413.796875 394.75 426.34375 401.238281 441.917969 C 405.78125 452.519531 411.40625 463.121094 422.441406 468.097656 C 428.5 470.910156 433.691406 462.472656 427.847656 459.011719 C 407.082031 446.894531 408.8125 416.824219 389.988281 402.113281 C 381.984375 395.839844 352.78125 386.320312 359.703125 371.394531 C 364.03125 361.660156 383.714844 369.015625 391.289062 370.527344 C 398.859375 372.042969 406.648438 373.125 414.21875 375.289062 C 430.230469 380.261719 440.828125 401.25 448.617188 414.878906 C 457.921875 430.886719 465.492188 449.492188 461.382812 468.3125 C 455.539062 496.003906 424.820312 518.503906 436.285156 549.007812 C 436.933594 551.386719 439.964844 550.523438 439.53125 548.359375 Z M 439.53125 548.359375 " fill-opacity="1" fill-rule="nonzero"/><path fill="#fefefe" d="M 462.464844 434.5625 C 465.707031 402.546875 467.65625 370.3125 469.167969 338.078125 C 470.46875 308.4375 473.496094 278.367188 469.386719 248.730469 C 467.4375 235.75 462.246094 200.488281 442.558594 201.566406 C 430.660156 202.21875 417.679688 218.875 420.492188 230.558594 C 421.792969 235.75 430.011719 233.585938 428.5 228.394531 C 426.984375 222.554688 434.125 212.816406 439.097656 210.222656 C 450.78125 204.164062 457.054688 222.554688 459.433594 230.773438 C 465.492188 252.625 465.058594 275.554688 464.410156 298.054688 C 462.679688 343.484375 460.082031 388.917969 460.300781 434.5625 C 460.300781 436.078125 462.246094 436.078125 462.464844 434.5625 Z M 462.464844 434.5625 " fill-opacity="1" fill-rule="nonzero"/><path fill="#fefefe" d="M 312.109375 564.152344 C 327.902344 548.359375 325.089844 526.507812 319.898438 506.820312 C 316.21875 492.328125 312.757812 478.265625 312.109375 463.121094 C 311.460938 448.84375 312.109375 434.5625 312.757812 420.503906 C 314.054688 391.730469 315.785156 362.738281 318.164062 333.96875 C 319.246094 319.257812 320.546875 304.546875 322.058594 289.835938 C 322.707031 282.261719 323.140625 274.472656 324.441406 266.902344 C 325.953125 258.679688 334.175781 238.996094 346.074219 249.8125 C 349.535156 253.054688 354.726562 247.433594 351.265625 244.621094 C 344.992188 239.644531 336.988281 238.996094 329.847656 243.320312 C 320.976562 248.730469 318.597656 259.546875 317.300781 269.28125 C 312.972656 303.464844 310.378906 337.644531 307.996094 371.828125 C 305.835938 404.492188 302.15625 438.242188 305.183594 471.125 C 307.78125 499.683594 328.332031 535.378906 308.429688 561.554688 C 307.132812 563.5 310.378906 565.882812 312.109375 564.152344 Z M 312.109375 564.152344 " fill-opacity="1" fill-rule="nonzero"/><path fill="#fefefe" d="M 363.597656 394.972656 C 370.734375 397.355469 378.742188 395.40625 385.230469 391.730469 C 390.855469 388.484375 399.726562 380.261719 395.613281 373.125 C 394.53125 371.175781 392.152344 370.3125 389.988281 370.746094 C 384.582031 372.042969 382.851562 378.964844 379.171875 382.425781 C 374.847656 386.539062 369.4375 388.050781 363.8125 389.347656 C 360.785156 390.214844 361 394.109375 363.597656 394.972656 Z M 363.597656 394.972656 " fill-opacity="1" fill-rule="nonzero"/></svg>