<svg xmlns="http://www.w3.org/2000/svg" xmlns:xlink="http://www.w3.org/1999/xlink" width="1024" zoomAndPan="magnify" viewBox="0 0 768 767.999994" height="1024" preserveAspectRatio="xMidYMid meet" version="1.0"><path fill="#fefefe" d="M 393.390625 423.523438 C 389.265625 407.710938 380.558594 393.046875 375.058594 377.460938 C 371.164062 366.003906 353.976562 316.738281 382.621094 325.214844 C 395.910156 329.113281 403.015625 350.421875 411.035156 360.734375 C 419.742188 371.734375 430.511719 382.734375 443.117188 389.378906 C 447.46875 391.671875 452.96875 385.710938 448.617188 382.273438 C 440.367188 375.628906 431.886719 369.441406 424.554688 361.421875 C 416.535156 352.484375 411.035156 342.632812 404.847656 332.550781 C 397.054688 319.945312 381.246094 306.882812 366.121094 316.964844 C 350.082031 327.507812 355.351562 349.277344 359.703125 364.402344 C 365.433594 385.023438 373.453125 410.460938 389.265625 425.8125 C 390.871094 427.648438 393.847656 425.8125 393.390625 423.523438 Z M 393.390625 423.523438 " fill-opacity="1" fill-rule="nonzero"/><path fill="#fefefe" d="M 306.3125 291.300781 C 312.269531 311.46875 312.726562 328.882812 309.980469 349.507812 C 307.6875 367.609375 304.480469 386.171875 306.769531 404.503906 C 309.0625 423.0625 318 439.332031 324.414062 456.519531 C 333.351562 480.121094 333.582031 502.351562 330.375 526.871094 C 329.457031 533.058594 338.164062 536.035156 339.996094 529.621094 C 346.183594 508.996094 344.808594 485.394531 339.082031 464.769531 C 332.894531 443.230469 319.832031 423.75 317.539062 401.066406 C 314.101562 366.003906 335.414062 319.488281 310.894531 288.78125 C 309.0625 286.488281 305.394531 288.78125 306.3125 291.300781 Z M 306.3125 291.300781 " fill-opacity="1" fill-rule="nonzero"/><path fill="#fefefe" d="M 468.550781 522.746094 C 453.886719 476.914062 467.40625 432.230469 478.175781 387.085938 C 486.882812 350.652344 493.527344 310.09375 477.488281 274.574219 C 469.238281 256.242188 454.800781 240.199219 439.90625 226.910156 C 426.617188 214.996094 410.578125 205.828125 392.242188 206.746094 C 376.203125 207.433594 354.433594 214.308594 344.582031 227.828125 C 337.707031 236.992188 337.933594 252.574219 349.164062 258.53125 C 357.871094 263.117188 370.933594 260.136719 380.328125 259.679688 C 392.929688 258.992188 405.992188 256.929688 415.617188 266.78125 C 426.386719 277.550781 432.117188 295.65625 448.84375 298.40625 C 453.65625 299.09375 457.550781 292.449219 452.511719 289.925781 C 429.367188 279.15625 426.386719 249.136719 397.054688 248.449219 C 387.890625 248.222656 378.722656 249.367188 369.558594 250.054688 C 363.371094 250.511719 360.164062 251.199219 354.664062 247.992188 C 349.621094 245.011719 350.082031 245.929688 349.394531 241.347656 C 348.707031 236.761719 352.828125 232.410156 355.808594 229.660156 C 370.933594 215.910156 397.972656 212.472656 416.074219 221.640625 C 431.199219 229.203125 444.261719 242.949219 455.261719 255.78125 C 467.863281 270.679688 475.882812 288.09375 478.632812 307.570312 C 483.675781 343.777344 472.445312 379.296875 463.96875 414.128906 C 455.261719 450.105469 447.699219 489.976562 463.738281 525.035156 C 464.886719 527.558594 469.699219 525.722656 468.550781 522.746094 Z M 468.550781 522.746094 " fill-opacity="1" fill-rule="nonzero"/><path fill="#fefefe" d="M 381.703125 203.078125 C 357.414062 198.265625 326.476562 211.785156 313.414062 233.097656 C 307.917969 242.035156 306.769531 254.410156 315.25 261.96875 C 323.269531 269.304688 335.183594 267.699219 345.039062 265.867188 C 350.308594 264.949219 348.019531 257.15625 342.976562 258.074219 C 332.664062 259.679688 316.625 260.824219 318 244.785156 C 318.914062 235.390625 329 226.679688 336.332031 221.640625 C 350.082031 212.015625 365.664062 208.578125 381.933594 206.058594 C 383.078125 205.828125 383.078125 203.535156 381.703125 203.078125 Z M 381.703125 203.078125 " fill-opacity="1" fill-rule="nonzero"/><path fill="#fefefe" d="M 334.496094 209.953125 C 307 216.828125 284.773438 235.390625 277.210938 263.804688 C 274.460938 273.886719 275.605469 285.574219 287.0625 289.238281 C 299.4375 293.136719 315.476562 284.199219 325.789062 278.46875 C 330.832031 275.71875 326.476562 268.386719 321.4375 270.90625 C 314.789062 274.34375 291.1875 287.40625 286.148438 275.488281 C 282.9375 268.386719 290.273438 255.097656 293.480469 249.367188 C 302.1875 233.554688 318.457031 219.117188 335.414062 212.703125 C 336.789062 212.015625 336.332031 209.722656 334.496094 209.953125 Z M 334.496094 209.953125 " fill-opacity="1" fill-rule="nonzero"/><path fill="#fefefe" d="M 321.4375 276.40625 C 312.957031 287.636719 323.957031 305.507812 338.164062 301.84375 C 339.769531 301.382812 341.144531 299.78125 341.144531 297.945312 C 341.144531 297.488281 341.144531 297.257812 340.914062 296.800781 C 340.457031 294.96875 338.851562 294.050781 337.019531 293.824219 C 333.121094 293.59375 329.6875 293.363281 327.164062 289.925781 C 324.644531 286.488281 324.875 282.136719 326.476562 278.238281 C 327.851562 275.488281 323.269531 274.117188 321.4375 276.40625 Z M 321.4375 276.40625 " fill-opacity="1" fill-rule="nonzero"/><path fill="#fefefe" d="M 341.832031 263.34375 C 341.371094 278.011719 358.101562 295.425781 373.453125 288.550781 C 376.890625 286.949219 374.828125 281.90625 371.621094 281.675781 C 365.664062 281.449219 361.078125 282.136719 355.578125 278.699219 C 350.308594 275.261719 346.414062 269.761719 345.726562 263.34375 C 345.496094 260.824219 341.832031 260.824219 341.832031 263.34375 Z M 341.832031 263.34375 " fill-opacity="1" fill-rule="nonzero"/><path fill="#fefefe" d="M 386.515625 264.71875 C 386.746094 270.21875 389.265625 275.261719 393.390625 278.925781 C 397.054688 282.136719 403.472656 286.03125 408.515625 284.199219 C 411.265625 283.28125 412.410156 278.925781 409.429688 277.550781 C 405.992188 275.949219 402.097656 275.949219 398.890625 273.429688 C 395.679688 271.136719 393.390625 267.46875 392.015625 264.03125 C 390.871094 261.28125 386.515625 261.28125 386.515625 264.71875 Z M 386.515625 264.71875 " fill-opacity="1" fill-rule="nonzero"/><path fill="#fefefe" d="M 417.449219 341.257812 C 421.574219 337.820312 426.386719 334.613281 431.199219 332.089844 C 435.324219 330.027344 440.59375 329.113281 444.03125 325.902344 C 445.179688 324.757812 444.71875 322.464844 443.117188 322.007812 C 438.074219 321.089844 432.574219 324.300781 428.222656 326.820312 C 422.949219 329.800781 418.597656 333.695312 414.929688 338.507812 C 413.324219 340.570312 415.617188 342.859375 417.449219 341.257812 Z M 417.449219 341.257812 " fill-opacity="1" fill-rule="nonzero"/><path fill="#fefefe" d="M 419.054688 335.757812 C 419.285156 332.089844 419.285156 328.652344 419.972656 325.214844 C 420.660156 322.007812 422.261719 319.027344 422.492188 315.820312 C 422.492188 313.757812 419.972656 311.925781 418.136719 313.300781 C 411.722656 318.339844 411.949219 330.257812 416.074219 336.671875 C 416.992188 338.046875 419.054688 337.359375 419.054688 335.757812 Z M 419.054688 335.757812 " fill-opacity="1" fill-rule="nonzero"/><path fill="#fefefe" d="M 374.371094 354.089844 C 374.597656 354.320312 377.578125 355.691406 376.433594 355.003906 C 377.578125 355.691406 378.265625 356.152344 379.640625 356.378906 C 382.160156 356.839844 384.683594 356.609375 386.972656 355.921875 C 391.785156 354.546875 397.285156 351.570312 399.347656 346.527344 C 402.328125 339.652344 394.765625 332.777344 388.808594 338.277344 C 386.515625 340.339844 384.910156 342.859375 382.160156 344.464844 C 381.015625 345.382812 379.640625 345.839844 378.265625 346.757812 C 377.578125 347.214844 376.890625 347.445312 376.433594 347.902344 C 374.140625 349.964844 377.578125 347.671875 375.058594 348.820312 C 372.996094 349.734375 372.078125 352.714844 374.371094 354.089844 Z M 374.371094 354.089844 " fill-opacity="1" fill-rule="nonzero"/><path fill="#fefefe" d="M 378.722656 404.503906 C 367.265625 417.335938 367.496094 448.042969 383.996094 457.207031 C 386.515625 458.582031 389.496094 456.289062 388.808594 453.542969 C 386.972656 446.207031 382.847656 439.5625 382.390625 431.773438 C 381.933594 423.75 384.910156 417.105469 386.972656 409.542969 C 388.578125 404.730469 382.160156 400.605469 378.722656 404.503906 Z M 378.722656 404.503906 " fill-opacity="1" fill-rule="nonzero"/><path fill="#fefefe" d="M 381.015625 409.542969 C 369.328125 398.316406 348.246094 402.210938 338.621094 414.128906 C 335.414062 418.023438 340.457031 423.292969 344.351562 419.855469 C 354.890625 410.003906 366.351562 408.855469 380.097656 411.835938 C 380.785156 411.835938 381.933594 410.460938 381.015625 409.542969 Z M 381.015625 409.542969 " fill-opacity="1" fill-rule="nonzero"/></svg>