<svg xmlns="http://www.w3.org/2000/svg" xmlns:xlink="http://www.w3.org/1999/xlink" width="1024" zoomAndPan="magnify" viewBox="0 0 768 767.999994" height="1024" preserveAspectRatio="xMidYMid meet" version="1.0"><path fill="#fefefe" d="M 437.464844 553.511719 C 438.457031 532.71875 437.863281 511.925781 439.050781 491.332031 C 440.238281 469.546875 442.21875 447.960938 445.386719 426.375 C 451.527344 385.382812 463.210938 345.578125 474.300781 305.574219 C 479.84375 285.773438 485.191406 265.769531 489.351562 245.375 C 491.332031 236.066406 497.667969 217.253906 487.765625 209.925781 C 478.457031 202.996094 469.941406 216.261719 465.386719 222.796875 C 454.695312 238.640625 446.773438 256.265625 439.445312 273.890625 C 423.601562 311.320312 408.15625 347.757812 372.707031 370.730469 C 368.746094 373.304688 372.113281 379.046875 376.472656 377.066406 C 402.808594 364.195312 419.445312 336.667969 431.328125 310.921875 C 438.257812 295.871094 444.199219 280.226562 450.734375 264.78125 C 453.902344 257.453125 457.269531 250.324219 461.03125 243.394531 C 465.191406 235.671875 470.339844 224.382812 477.269531 218.835938 C 490.140625 208.339844 486.972656 228.34375 485.785156 234.679688 C 484.003906 244.582031 481.824219 254.285156 479.449219 263.988281 C 475.089844 282.207031 469.941406 300.425781 464.792969 318.449219 C 454.496094 354.6875 445.1875 391.125 439.246094 428.355469 C 432.910156 468.753906 427.960938 512.519531 433.503906 553.316406 C 433.703125 556.085938 437.464844 556.285156 437.464844 553.511719 Z M 437.464844 553.511719 " fill-opacity="1" fill-rule="nonzero"/><path fill="#fefefe" d="M 374.09375 340.035156 C 361.023438 350.726562 356.273438 365.976562 351.71875 381.621094 C 350.527344 385.582031 349.738281 391.917969 346.964844 395.085938 C 335.875 407.761719 334.6875 390.332031 334.6875 385.976562 C 334.488281 376.667969 334.882812 366.769531 335.875 357.460938 C 337.65625 339.242188 343.796875 315.082031 361.421875 305.574219 C 382.414062 294.089844 397.660156 330.726562 401.621094 345.578125 C 402.808594 349.933594 409.542969 348.152344 408.355469 343.796875 C 403.601562 326.371094 389.542969 294.089844 366.964844 296.464844 C 343.203125 299.039062 332.113281 331.320312 329.339844 350.925781 C 327.558594 363.796875 326.171875 378.648438 328.152344 391.523438 C 329.140625 398.453125 333.101562 406.175781 341.417969 405.582031 C 351.121094 404.988281 354.292969 394.292969 356.46875 386.570312 C 361.023438 369.738281 365.183594 355.875 376.867188 342.410156 C 377.859375 340.824219 375.679688 338.648438 374.09375 340.035156 Z M 374.09375 340.035156 " fill-opacity="1" fill-rule="nonzero"/><path fill="#fefefe" d="M 326.566406 399.246094 C 322.605469 406.574219 313.894531 403.601562 310.328125 397.660156 C 308.148438 393.898438 307.160156 389.144531 306.566406 384.789062 C 305.179688 375.878906 305.378906 366.570312 307.160156 357.660156 C 310.722656 340.035156 320.230469 320.03125 340.03125 317.65625 C 343.398438 317.257812 344.191406 312.902344 340.824219 311.714844 C 328.152344 307.359375 316.664062 317.257812 309.933594 327.359375 C 300.625 341.023438 296.070312 358.253906 296.664062 374.6875 C 297.058594 386.175781 299.039062 403.800781 311.121094 409.148438 C 318.84375 412.511719 328.945312 408.949219 329.339844 399.839844 C 329.140625 398.652344 327.160156 398.253906 326.566406 399.246094 Z M 326.566406 399.246094 " fill-opacity="1" fill-rule="nonzero"/><path fill="#fefefe" d="M 302.804688 393.105469 C 287.554688 399.046875 279.039062 382.808594 281.613281 369.539062 C 283.792969 358.847656 291.117188 351.320312 300.824219 347.164062 C 305.574219 345.183594 303.992188 337.855469 298.644531 339.242188 C 281.613281 343.203125 270.324219 362.015625 272.703125 378.847656 C 274.683594 392.3125 292.703125 411.324219 304.386719 395.085938 C 305.378906 394.292969 303.992188 392.710938 302.804688 393.105469 Z M 302.804688 393.105469 " fill-opacity="1" fill-rule="nonzero"/><path fill="#fefefe" d="M 306.960938 399.441406 C 298.84375 424.199219 301.019531 452.910156 307.953125 477.667969 C 311.914062 491.527344 319.042969 504.203125 322.605469 518.066406 C 326.367188 532.324219 322.804688 546.582031 325.378906 560.839844 C 326.171875 565 332.113281 564.40625 333.101562 560.839844 C 341.816406 533.90625 329.140625 507.964844 319.832031 483.410156 C 309.535156 455.882812 308.148438 428.554688 307.953125 399.441406 C 308.148438 398.847656 307.160156 398.847656 306.960938 399.441406 Z M 306.960938 399.441406 " fill-opacity="1" fill-rule="nonzero"/><path fill="#fefefe" d="M 418.453125 442.8125 C 411.523438 422.21875 395.480469 405.382812 375.679688 396.671875 C 360.828125 390.136719 335.28125 385.976562 330.328125 407.167969 C 327.953125 416.871094 332.113281 427.761719 337.457031 435.683594 C 344.191406 445.585938 355.082031 450.734375 363.597656 458.851562 C 373.300781 467.960938 376.867188 479.648438 384.789062 489.746094 C 389.9375 496.480469 398.253906 500.441406 406.175781 496.082031 C 410.53125 493.707031 407.5625 487.171875 402.808594 488.359375 C 391.523438 490.933594 387.957031 476.082031 383.402344 468.753906 C 380.035156 463.210938 375.878906 458.0625 371.125 453.507812 C 358.847656 441.425781 340.03125 434.296875 338.648438 414.492188 C 336.863281 389.9375 369.738281 402.414062 380.628906 408.75 C 395.285156 417.265625 406.570312 429.542969 415.285156 444.199219 C 416.277344 445.980469 419.046875 444.792969 418.453125 442.8125 Z M 418.453125 442.8125 " fill-opacity="1" fill-rule="nonzero"/><path fill="#fefefe" d="M 391.917969 407.957031 C 395.878906 411.523438 399.046875 405.382812 401.421875 403.007812 C 404.988281 399.246094 409.9375 397.660156 413.503906 394.097656 C 414.890625 392.710938 414.492188 389.542969 412.117188 389.144531 C 406.375 388.15625 401.027344 391.71875 397.066406 395.484375 C 395.085938 397.660156 388.550781 404.789062 391.917969 407.957031 Z M 391.917969 407.957031 " fill-opacity="1" fill-rule="nonzero"/><path fill="#fefefe" d="M 359.042969 457.863281 C 351.71875 464.992188 344.390625 482.417969 351.914062 491.527344 C 352.90625 492.714844 355.082031 492.121094 355.28125 490.539062 C 356.074219 485.984375 354.488281 481.230469 354.886719 476.476562 C 355.480469 470.339844 357.65625 464.597656 360.828125 459.25 C 361.421875 458.0625 360.035156 456.871094 359.042969 457.863281 Z M 359.042969 457.863281 " fill-opacity="1" fill-rule="nonzero"/><path fill="#fefefe" d="M 361.222656 458.0625 C 358.847656 463.011719 359.042969 469.546875 361.222656 474.496094 C 362.015625 476.082031 364.390625 474.894531 363.996094 473.308594 C 363.402344 470.734375 362.609375 468.359375 362.609375 465.585938 C 362.609375 463.210938 362.808594 460.832031 363.003906 458.457031 C 363.003906 457.46875 361.617188 457.070312 361.222656 458.0625 Z M 361.222656 458.0625 " fill-opacity="1" fill-rule="nonzero"/></svg>