<svg xmlns="http://www.w3.org/2000/svg" xmlns:xlink="http://www.w3.org/1999/xlink" width="1024" zoomAndPan="magnify" viewBox="0 0 768 767.999994" height="1024" preserveAspectRatio="xMidYMid meet" version="1.0"><path fill="#fefefe" d="M 423.929688 528.300781 C 424.351562 505.691406 418.859375 486.679688 432.167969 466.183594 C 441.886719 451.394531 453.71875 438.507812 460.480469 422.027344 C 472.101562 393.082031 458.789062 366.671875 432.167969 352.515625 C 414.210938 343.011719 371.320312 330.96875 367.519531 362.449219 C 366.039062 375.125 376.179688 380.617188 386.535156 384.421875 C 404.28125 391.179688 408.082031 407.871094 418.226562 422.238281 C 421.605469 426.886719 429.210938 422.449219 425.832031 417.800781 C 419.492188 408.929688 415.6875 398.363281 408.929688 389.492188 C 401.324219 379.773438 392.027344 379.136719 382.097656 373.222656 C 371.53125 366.882812 377.238281 354.417969 387.167969 351.25 C 394.773438 348.714844 403.433594 350.828125 411.042969 352.941406 C 423.71875 356.320312 436.394531 362.023438 446.113281 371.320312 C 473.578125 398.152344 449.492188 432.167969 431.113281 455.832031 C 414.632812 477.171875 410.40625 503.15625 419.492188 528.722656 C 420.125 531.46875 423.929688 531.046875 423.929688 528.300781 Z M 423.929688 528.300781 " fill-opacity="1" fill-rule="nonzero"/><path fill="#fefefe" d="M 307.9375 536.328125 C 327.796875 505.480469 314.277344 464.492188 308.359375 431.535156 C 300.964844 390.125 305.191406 347.871094 319.769531 308.570312 C 320.828125 305.824219 316.390625 303.925781 315.121094 306.671875 C 300.121094 341.53125 294.417969 379.351562 298.855469 417.167969 C 301.179688 435.550781 306.039062 453.507812 308.996094 471.675781 C 312.585938 493.648438 311.53125 514.144531 305.824219 535.484375 C 305.613281 536.75 307.304688 537.59375 307.9375 536.328125 Z M 307.9375 536.328125 " fill-opacity="1" fill-rule="nonzero"/><path fill="#fefefe" d="M 458.367188 374.703125 C 461.746094 361.179688 463.015625 348.082031 464.28125 334.347656 C 465.550781 320.191406 468.507812 306.035156 470.199219 291.882812 C 471.890625 276.246094 465.761719 241.808594 441.675781 249.625 C 423.71875 255.542969 413.367188 287.65625 415.054688 304.558594 C 415.6875 311.953125 419.28125 319.558594 427.308594 321.039062 C 437.027344 322.726562 443.578125 313.644531 447.804688 306.25 C 450.550781 301.601562 443.15625 297.375 440.621094 302.023438 C 438.929688 304.980469 436.394531 310.261719 432.804688 311.742188 C 424.351562 315.332031 423.085938 305.824219 422.871094 300.542969 C 422.660156 292.515625 424.984375 284.0625 428.367188 276.667969 C 431.957031 268.640625 439.140625 253.429688 450.339844 256.175781 C 461.113281 258.921875 464.070312 273.289062 464.070312 282.585938 C 464.070312 297.585938 459.636719 312.375 458.367188 327.164062 C 457.097656 342.800781 456.464844 358.433594 454.777344 374.066406 C 454.351562 376.390625 457.945312 376.601562 458.367188 374.703125 Z M 458.367188 374.703125 " fill-opacity="1" fill-rule="nonzero"/><path fill="#fefefe" d="M 429.632812 259.554688 C 435.550781 247.300781 420.972656 235.683594 409.5625 236.738281 C 392.871094 238.21875 386.535156 257.441406 383.152344 271.175781 C 379.984375 284.488281 374.703125 307.304688 386.535156 317.867188 C 397.097656 327.164062 413.152344 319.769531 418.011719 308.148438 C 419.914062 303.5 412.941406 301.390625 410.40625 304.980469 C 402.589844 315.542969 389.703125 313.855469 388.222656 299.910156 C 387.167969 290.613281 389.070312 280.472656 391.394531 271.597656 C 393.292969 263.148438 395.617188 252.585938 402.800781 247.089844 C 408.507812 242.652344 416.324219 242.230469 422.027344 247.511719 C 425.621094 250.894531 425.832031 255.121094 427.730469 259.34375 C 427.945312 260.191406 429.210938 260.191406 429.632812 259.554688 Z M 429.632812 259.554688 " fill-opacity="1" fill-rule="nonzero"/><path fill="#fefefe" d="M 396.675781 243.5 C 389.914062 233.78125 377.660156 230.398438 367.730469 237.160156 C 355.6875 245.1875 353.574219 261.667969 350.40625 274.558594 C 347.234375 287.65625 341.53125 304.769531 352.730469 315.96875 C 362.023438 325.261719 372.378906 321.460938 380.195312 312.796875 C 383.363281 309.207031 378.503906 304.347656 374.914062 307.515625 C 370.054688 312.164062 364.984375 313.644531 359.066406 309.417969 C 353.785156 305.613281 354.628906 296.742188 355.476562 291.246094 C 356.53125 283.640625 358.855469 275.824219 360.757812 268.21875 C 362.449219 261.035156 363.925781 253.007812 368.996094 247.089844 C 377.238281 237.792969 385.265625 242.867188 394.5625 246.246094 C 396.039062 246.878906 397.519531 244.765625 396.675781 243.5 Z M 396.675781 243.5 " fill-opacity="1" fill-rule="nonzero"/><path fill="#fefefe" d="M 366.671875 351.460938 C 361.179688 353.574219 355.476562 354.839844 349.558594 355.054688 C 344.066406 355.054688 338.996094 353.363281 333.503906 353.363281 C 330.546875 353.363281 329.699219 357.375 332.023438 358.855469 C 342.375 365.40625 358.222656 360.335938 367.519531 353.996094 C 368.785156 353.363281 368.152344 351.039062 366.671875 351.460938 Z M 366.671875 351.460938 " fill-opacity="1" fill-rule="nonzero"/><path fill="#fefefe" d="M 401.109375 393.292969 C 399.210938 419.703125 355.265625 416.535156 355.054688 443.578125 C 355.054688 447.378906 360.546875 448.015625 361.390625 444.421875 C 365.617188 429.421875 377.871094 424.984375 389.28125 416.113281 C 396.886719 410.195312 402.800781 403.011719 401.957031 393.082031 C 401.957031 392.660156 401.109375 392.660156 401.109375 393.292969 Z M 401.109375 393.292969 " fill-opacity="1" fill-rule="nonzero"/><path fill="#fefefe" d="M 384.421875 381.25 C 388.433594 380.617188 391.605469 377.449219 393.292969 374.066406 C 394.984375 370.898438 396.675781 365.617188 394.5625 362.449219 C 393.292969 360.335938 390.335938 360.96875 389.492188 363.082031 C 388.433594 365.828125 389.28125 368.785156 387.800781 371.53125 C 386.535156 374.066406 384.421875 376.179688 382.308594 378.082031 C 381.039062 379.5625 382.730469 381.671875 384.421875 381.25 Z M 384.421875 381.25 " fill-opacity="1" fill-rule="nonzero"/><path fill="#fefefe" d="M 358.222656 254.273438 C 362.660156 244.765625 356.53125 234.414062 345.546875 235.046875 C 330.332031 236.105469 320.402344 253.21875 316.179688 265.894531 C 311.742188 279.417969 308.359375 298.640625 319.980469 309.628906 C 329.910156 318.925781 347.234375 315.753906 349.984375 301.390625 C 350.828125 297.375 344.910156 294.207031 343.011719 298.429688 C 336.039062 312.375 322.9375 304.136719 321.039062 292.09375 C 319.980469 285.121094 321.460938 277.726562 323.152344 270.964844 C 324.628906 265.261719 326.953125 259.765625 330.121094 254.695312 C 332.234375 251.316406 335.828125 247.089844 339.207031 244.976562 C 346.179688 240.542969 358.222656 241.175781 355.6875 253.21875 C 355.265625 254.695312 357.378906 255.964844 358.222656 254.273438 Z M 358.222656 254.273438 " fill-opacity="1" fill-rule="nonzero"/></svg>