<svg xmlns="http://www.w3.org/2000/svg" xmlns:xlink="http://www.w3.org/1999/xlink" width="1024" zoomAndPan="magnify" viewBox="0 0 768 767.999994" height="1024" preserveAspectRatio="xMidYMid meet" version="1.0"><path fill="#fefefe" d="M 323.023438 536.109375 C 331.449219 519.253906 326.492188 501.738281 320.214844 485.046875 C 316.414062 474.800781 312.117188 464.390625 311.125 453.320312 C 310.132812 441.421875 312.613281 429.523438 314.925781 417.789062 C 319.386719 395.648438 323.683594 373.339844 327.980469 351.195312 C 330.292969 339.628906 332.605469 327.894531 334.753906 316.328125 C 335.914062 310.378906 337.070312 284.765625 346.820312 286.089844 C 346.15625 285.425781 345.496094 284.765625 344.671875 283.941406 C 347.148438 310.710938 344.671875 336.488281 343.511719 363.257812 C 343.347656 366.894531 349.132812 367.722656 349.957031 364.085938 C 355.90625 338.140625 353.59375 309.222656 348.800781 283.445312 C 348.636719 282.453125 347.644531 281.957031 346.820312 281.957031 C 340.539062 281.792969 336.902344 286.253906 334.753906 291.707031 C 330.625 301.785156 329.632812 313.851562 327.484375 324.425781 C 322.527344 349.214844 317.40625 374 312.445312 398.789062 C 307.984375 420.765625 301.539062 443.734375 307.324219 465.878906 C 313.273438 488.515625 329.632812 510.992188 320.542969 535.117188 C 320.214844 536.4375 322.363281 537.429688 323.023438 536.109375 Z M 323.023438 536.109375 " fill-opacity="1" fill-rule="nonzero"/><path fill="#fefefe" d="M 352.273438 304.761719 C 352.933594 294.1875 354.585938 283.609375 357.394531 273.363281 C 358.714844 268.570312 360.367188 263.945312 362.1875 259.484375 C 362.847656 257.832031 363.507812 256.34375 364.167969 254.691406 C 364.832031 251.054688 366.316406 251.054688 368.464844 254.855469 C 372.101562 258.328125 371.605469 258.988281 371.605469 263.78125 C 371.605469 284.601562 367.804688 305.257812 367.472656 325.914062 C 367.472656 328.722656 371.769531 329.382812 372.433594 326.574219 C 376.066406 311.535156 376.066406 294.679688 376.5625 279.3125 C 376.726562 271.214844 377.390625 262.789062 376.234375 254.691406 C 375.738281 251.054688 374.910156 247.585938 371.273438 245.933594 C 361.855469 241.472656 358.21875 254.855469 356.238281 261.136719 C 351.445312 275.511719 349.957031 290.054688 351.445312 305.09375 C 351.609375 305.257812 352.273438 305.257812 352.273438 304.761719 Z M 352.273438 304.761719 " fill-opacity="1" fill-rule="nonzero"/><path fill="#fefefe" d="M 373.753906 286.089844 C 376.726562 273.363281 380.035156 260.308594 383.835938 247.75 C 384.824219 244.28125 387.964844 233.375 394.410156 241.304688 C 396.0625 243.289062 396.394531 248.246094 396.558594 250.558594 C 397.382812 256.839844 397.878906 263.285156 398.375 269.5625 C 400.359375 296.167969 399.035156 322.277344 398.210938 348.882812 C 398.046875 353.015625 403.828125 352.683594 404.324219 348.882812 C 406.804688 330.871094 406.308594 311.867188 405.480469 293.691406 C 404.984375 284.601562 404.324219 275.679688 403.332031 266.589844 C 402.507812 258.988281 402.175781 250.558594 399.863281 243.289062 C 397.382812 235.523438 389.289062 230.398438 383.503906 238.496094 C 379.703125 243.621094 379.371094 251.222656 378.050781 257.335938 C 376.234375 266.753906 374.910156 276.339844 372.925781 285.921875 C 372.925781 286.417969 373.589844 286.585938 373.753906 286.089844 Z M 373.753906 286.089844 " fill-opacity="1" fill-rule="nonzero"/><path fill="#fefefe" d="M 413.25 534.621094 C 408.953125 519.75 406.140625 507.683594 415.230469 493.804688 C 421.511719 484.21875 429.773438 476.289062 435.390625 466.207031 C 446.296875 446.378906 447.453125 423.242188 449.601562 401.265625 C 450.757812 388.871094 452.246094 376.3125 455.714844 364.25 C 458.03125 356.152344 466.457031 344.421875 462.160156 335.664062 C 459.023438 329.382812 450.757812 328.0625 444.808594 330.539062 C 435.722656 334.339844 431.921875 345.246094 428.78125 353.839844 C 419.527344 378.460938 415.066406 406.71875 393.75 424.402344 C 390.113281 427.375 395.234375 432.496094 398.871094 429.523438 C 413.578125 417.128906 420.847656 399.28125 426.632812 381.269531 C 429.773438 371.519531 432.417969 361.605469 436.21875 352.1875 C 438.53125 346.074219 441.503906 338.140625 448.28125 335.992188 C 453.898438 334.339844 457.863281 339.464844 457.039062 345.082031 C 456.707031 347.890625 454.726562 350.699219 453.734375 353.34375 C 437.375 394.160156 451.089844 442.910156 421.015625 478.4375 C 414.570312 486.039062 407.464844 493.640625 404.65625 503.554688 C 401.351562 514.625 404.324219 526.6875 410.273438 536.273438 C 411.101562 537.59375 413.742188 536.605469 413.25 534.621094 Z M 413.25 534.621094 " fill-opacity="1" fill-rule="nonzero"/><path fill="#fefefe" d="M 331.121094 401.265625 C 343.679688 405.5625 367.640625 401.101562 375.242188 389.203125 C 376.398438 387.386719 374.582031 384.90625 372.433594 385.566406 C 365.820312 387.714844 360.699219 392.507812 353.925781 394.65625 C 346.488281 396.96875 339.050781 396.96875 331.449219 397.628906 C 329.46875 397.960938 329.136719 400.605469 331.121094 401.265625 Z M 331.121094 401.265625 " fill-opacity="1" fill-rule="nonzero"/><path fill="#fefefe" d="M 345.828125 432.332031 C 352.765625 428.53125 358.714844 423.078125 365.328125 418.78125 C 372.761719 414.15625 380.363281 412.007812 388.625 409.527344 C 391.433594 408.703125 390.941406 404.40625 387.964844 404.40625 C 371.769531 403.746094 353.261719 418.453125 344.339844 431.011719 C 343.84375 431.835938 345 432.828125 345.828125 432.332031 Z M 345.828125 432.332031 " fill-opacity="1" fill-rule="nonzero"/><path fill="#fefefe" d="M 426.632812 369.539062 C 424.15625 362.597656 416.386719 356.484375 410.769531 351.691406 C 403.996094 345.90625 396.394531 340.949219 388.625 336.488281 C 379.867188 331.695312 357.890625 317.980469 349.460938 329.878906 C 341.53125 340.949219 361.855469 354.003906 368.632812 359.789062 C 376.726562 366.5625 381.6875 373.007812 385.320312 382.921875 C 388.128906 390.523438 390.941406 397.464844 398.542969 401.429688 C 402.835938 403.578125 406.636719 397.136719 402.339844 394.988281 C 391.433594 389.699219 390.445312 372.84375 382.675781 363.921875 C 379.042969 359.789062 374.746094 356.484375 370.613281 353.015625 C 366.484375 349.542969 359.707031 345.578125 357.230469 340.453125 C 354.421875 337.644531 355.742188 335 361.359375 332.523438 C 363.011719 332.855469 364.5 333.347656 365.988281 334.011719 C 369.621094 335.332031 373.09375 336.820312 376.5625 338.472656 C 382.347656 341.117188 387.964844 344.253906 393.417969 347.5625 C 398.871094 350.867188 403.996094 354.667969 409.117188 358.46875 C 414.238281 362.269531 419.195312 368.214844 425.144531 370.695312 C 425.808594 371.027344 426.964844 370.53125 426.632812 369.539062 Z M 426.632812 369.539062 " fill-opacity="1" fill-rule="nonzero"/></svg>