<svg xmlns="http://www.w3.org/2000/svg" xmlns:xlink="http://www.w3.org/1999/xlink" width="1024" zoomAndPan="magnify" viewBox="0 0 768 767.999994" height="1024" preserveAspectRatio="xMidYMid meet" version="1.0"><path fill="#fefefe" d="M 437.175781 336.023438 C 440.640625 323.433594 443.558594 216.535156 413.644531 230.761719 C 405.796875 234.59375 402.878906 246.632812 401.054688 254.113281 C 398.136719 265.058594 396.859375 276.371094 396.128906 287.496094 C 394.488281 313.949219 395.21875 340.582031 395.035156 367.035156 C 395.035156 371.59375 401.96875 371.59375 401.96875 367.035156 C 401.96875 347.695312 401.96875 328.359375 401.96875 309.207031 C 402.148438 289.6875 402.878906 269.984375 408.351562 251.195312 C 409.082031 248.824219 409.628906 246.269531 410.722656 244.082031 C 411.269531 241.34375 413.09375 239.703125 416.015625 239.15625 C 418.566406 235.871094 420.757812 235.871094 422.582031 238.972656 C 426.230469 241.890625 427.6875 246.816406 428.785156 251.195312 C 430.972656 260.679688 431.519531 270.714844 432.25 280.199219 C 433.710938 298.625 431.519531 317.960938 434.621094 336.203125 C 434.988281 337.296875 436.8125 337.117188 437.175781 336.023438 Z M 437.175781 336.023438 " fill-opacity="1" fill-rule="nonzero"/><path fill="#fefefe" d="M 413.644531 549.457031 C 409.996094 530.300781 410.722656 510.78125 419.664062 493.269531 C 426.777344 479.042969 437.359375 466.820312 444.109375 452.40625 C 450.128906 439.457031 451.769531 425.589844 453.410156 411.726562 C 455.78125 392.390625 459.613281 374.511719 466.363281 356.269531 C 469.828125 346.96875 476.214844 330.914062 467.824219 322.15625 C 460.527344 314.496094 449.945312 321.425781 443.925781 327.265625 C 421.667969 348.792969 426.046875 384.546875 405.796875 407.53125 C 402.878906 410.816406 407.441406 415.558594 410.722656 412.457031 C 429.878906 393.484375 427.871094 364.113281 440.640625 341.675781 C 443.742188 336.203125 450.675781 326.171875 457.789062 325.257812 C 470.375 323.617188 464.722656 342.589844 462.714844 348.609375 C 457.789062 363.75 451.953125 377.796875 449.398438 393.667969 C 447.027344 408.625 446.660156 423.949219 442.464844 438.726562 C 438.453125 453.136719 429.695312 464.996094 421.667969 477.398438 C 407.441406 499.835938 399.777344 525.011719 411.453125 550.1875 C 412.367188 551.464844 413.824219 550.550781 413.644531 549.457031 Z M 413.644531 549.457031 " fill-opacity="1" fill-rule="nonzero"/><path fill="#fefefe" d="M 397.40625 357.546875 C 385.914062 345.324219 360.921875 338.027344 352.167969 356.816406 C 347.058594 367.761719 349.429688 380.898438 350.34375 392.390625 C 351.253906 404.976562 351.617188 417.929688 353.992188 430.515625 C 355.449219 437.996094 358.003906 452.042969 366.761719 454.777344 C 375.515625 457.515625 382.082031 448.210938 385.003906 441.460938 C 389.378906 431.429688 389.5625 419.570312 390.839844 408.808594 C 392.117188 396.402344 390.839844 378.34375 401.421875 369.769531 C 405.433594 366.484375 399.777344 360.832031 395.765625 364.113281 C 385.003906 372.6875 384.820312 387.464844 383.542969 399.871094 C 382.449219 409.355469 381.902344 419.023438 380.078125 428.511719 C 379.347656 432.339844 378.433594 437.996094 375.882812 440.914062 C 375.152344 442.921875 373.511719 443.46875 370.957031 442.554688 C 367.855469 444.199219 366.210938 443.652344 365.847656 440.730469 C 364.570312 438.726562 363.839844 434.894531 363.292969 432.523438 C 359.097656 415.375 358.914062 396.402344 357.820312 378.890625 C 357.089844 367.945312 357.640625 352.074219 372.414062 352.988281 C 380.625 353.535156 388.46875 357.183594 396.128906 359.917969 C 397.40625 360.648438 398.320312 358.640625 397.40625 357.546875 Z M 397.40625 357.546875 " fill-opacity="1" fill-rule="nonzero"/><path fill="#fefefe" d="M 353.078125 358.824219 C 343.226562 350.796875 327.722656 353.898438 322.429688 365.390625 C 319.148438 372.6875 318.964844 381.628906 318.601562 389.472656 C 318.054688 400.050781 318.417969 410.816406 319.695312 421.394531 C 321.335938 435.257812 322.796875 458.609375 338.121094 464.996094 C 352.53125 471.015625 360.921875 456.238281 362.929688 444.199219 C 363.660156 439.457031 357.089844 437.449219 355.632812 442.191406 C 354.355469 446.386719 353.441406 452.953125 349.792969 455.691406 C 341.222656 462.441406 334.835938 451.3125 332.648438 444.5625 C 329 433.433594 327.539062 421.214844 326.808594 409.539062 C 326.078125 399.140625 326.078125 388.378906 326.992188 377.980469 C 327.722656 371.230469 328.816406 365.210938 335.382812 362.472656 C 341.039062 360.101562 345.964844 362.65625 351.800781 362.109375 C 353.078125 362.109375 354.539062 360.101562 353.078125 358.824219 Z M 353.078125 358.824219 " fill-opacity="1" fill-rule="nonzero"/><path fill="#fefefe" d="M 324.621094 371.777344 C 320.789062 364.660156 311.484375 365.390625 305.464844 369.585938 C 296.164062 376.15625 293.425781 389.835938 292.695312 400.417969 C 291.785156 412.820312 294.339844 426.320312 300.359375 437.265625 C 304.734375 445.292969 313.675781 454.597656 323.527344 452.042969 C 326.628906 451.128906 327.539062 446.386719 324.4375 444.929688 C 317.6875 441.460938 312.582031 439.273438 308.386719 432.707031 C 304.007812 425.957031 301.636719 417.566406 300.90625 409.71875 C 299.445312 395.855469 302.546875 368.492188 322.429688 374.695312 C 324.074219 375.058594 325.351562 373.234375 324.621094 371.777344 Z M 324.621094 371.777344 " fill-opacity="1" fill-rule="nonzero"/><path fill="#fefefe" d="M 308.933594 441.28125 C 303.09375 454.777344 306.742188 470.648438 309.84375 484.515625 C 314.039062 503.484375 318.234375 521.910156 312.582031 541.066406 C 310.757812 547.265625 320.242188 549.820312 322.25 543.800781 C 327.539062 528.296875 325.351562 512.058594 321.519531 496.554688 C 317.324219 479.40625 308.566406 460.617188 311.851562 442.738281 C 312.214844 440.914062 309.660156 439.457031 308.933594 441.28125 Z M 308.933594 441.28125 " fill-opacity="1" fill-rule="nonzero"/></svg>