<svg xmlns="http://www.w3.org/2000/svg" xmlns:xlink="http://www.w3.org/1999/xlink" width="1024" zoomAndPan="magnify" viewBox="0 0 768 767.999994" height="1024" preserveAspectRatio="xMidYMid meet" version="1.0"><path fill="#fefefe" d="M 278.316406 407.464844 C 270.28125 427.648438 273.269531 448.953125 278.128906 469.511719 C 283.921875 493.992188 290.089844 516.417969 286.914062 541.648438 C 286.164062 546.878906 294.574219 547.8125 295.882812 542.769531 C 307.65625 497.167969 268.785156 454.371094 282.242188 408.398438 C 282.988281 405.96875 279.25 405.035156 278.316406 407.464844 Z M 278.316406 407.464844 " fill-opacity="1" fill-rule="nonzero"/><path fill="#fefefe" d="M 345.78125 342.058594 C 338.117188 339.8125 328.027344 340 322.234375 346.167969 C 314.757812 354.015625 316.253906 369.902344 315.878906 379.621094 C 315.132812 400.738281 311.207031 434.9375 329.523438 450.820312 C 349.890625 468.574219 356.433594 414.566406 357.929688 405.410156 C 361.292969 385.039062 368.207031 353.269531 345.035156 341.871094 C 341.296875 340 337.933594 345.609375 341.667969 347.664062 C 359.609375 357.382812 352.695312 385.414062 349.890625 401.484375 C 348.398438 410.457031 346.339844 419.425781 344.097656 428.210938 C 343.164062 431.761719 342.230469 439.234375 339.800781 442.039062 C 334.941406 447.457031 332.511719 440.167969 330.832031 436.804688 C 323.167969 421.667969 324.101562 403.167969 324.289062 386.722656 C 324.289062 377.5625 324.289062 368.21875 325.222656 359.25 C 326.53125 346.730469 336.4375 347.289062 345.96875 345.421875 C 347.464844 344.859375 347.277344 342.429688 345.78125 342.058594 Z M 345.78125 342.058594 " fill-opacity="1" fill-rule="nonzero"/><path fill="#fefefe" d="M 392.6875 545.757812 C 393.996094 539.402344 393.4375 532.863281 393.996094 526.507812 C 394.742188 517.726562 396.613281 509.128906 398.855469 500.53125 C 403.152344 485.207031 409.132812 470.632812 414.742188 455.867188 C 424.832031 429.332031 435.671875 402.792969 421.46875 375.695312 C 413.992188 361.492188 403.714844 348.785156 402.40625 332.152344 C 401.285156 318.324219 409.132812 301.128906 402.96875 288.046875 C 399.417969 280.574219 391.566406 276.460938 383.53125 279.824219 C 374.1875 283.9375 369.328125 295.523438 365.964844 304.308594 C 355.125 333.085938 352.507812 366.351562 368.582031 393.824219 C 371.382812 398.496094 378.671875 394.195312 375.867188 389.523438 C 358.863281 361.304688 363.722656 325.238281 376.992188 296.457031 C 378.484375 293.09375 380.542969 289.355469 383.34375 286.925781 C 391.941406 279.636719 399.601562 288.609375 400.164062 297.207031 C 400.722656 305.242188 397.734375 313.464844 397.171875 321.5 C 396.050781 337.011719 400.351562 350.09375 408.011719 363.363281 C 416.984375 378.6875 425.019531 392.328125 422.964844 410.828125 C 421.09375 427.460938 413.992188 443.535156 407.824219 459.046875 C 401.660156 474.183594 395.679688 489.320312 391.941406 505.390625 C 389.136719 517.914062 385.960938 533.796875 391.378906 545.945312 C 391.753906 546.320312 392.6875 546.132812 392.6875 545.757812 Z M 392.6875 545.757812 " fill-opacity="1" fill-rule="nonzero"/><path fill="#fefefe" d="M 427.820312 404.289062 C 438.101562 371.585938 441.652344 336.261719 445.761719 302.25 C 448.003906 284.125 449.875 265.808594 451.371094 247.496094 C 451.929688 239.644531 452.492188 231.984375 452.117188 224.132812 C 451.742188 219.460938 451.742188 211.613281 449.3125 207.503906 C 444.828125 200.027344 436.230469 204.324219 431.746094 209.558594 C 423.523438 219.089844 420.347656 232.355469 416.796875 244.132812 C 409.507812 269.359375 402.59375 294.589844 396.050781 320.003906 C 394.742188 325.050781 402.59375 327.292969 403.902344 322.246094 C 409.132812 300.941406 414.742188 279.824219 420.71875 258.707031 C 423.523438 248.617188 426.140625 238.335938 429.878906 228.433594 C 431.371094 224.320312 435.484375 212.359375 439.96875 210.679688 C 447.820312 207.503906 446.324219 226.378906 446.324219 230.675781 C 445.761719 260.203125 441.089844 290.289062 436.792969 319.445312 C 432.679688 347.476562 426.328125 375.320312 423.523438 403.542969 C 423.148438 406.34375 427.074219 406.53125 427.820312 404.289062 Z M 427.820312 404.289062 " fill-opacity="1" fill-rule="nonzero"/><path fill="#fefefe" d="M 375.867188 296.269531 C 372.316406 273.097656 364.09375 247.683594 352.882812 226.9375 C 346.902344 216.097656 329.148438 195.542969 317.75 212.546875 C 312.328125 220.769531 315.878906 231.421875 317.75 240.207031 C 320.550781 252.914062 323.730469 265.433594 327.09375 277.957031 C 334.382812 303.933594 342.417969 329.910156 352.695312 354.953125 C 354.9375 360.371094 363.722656 358.128906 361.664062 352.523438 C 347.464844 314.773438 334.753906 277.023438 325.972656 237.964844 C 324.664062 232.542969 322.421875 225.441406 323.542969 219.835938 C 325.410156 211.800781 333.632812 215.910156 337.558594 219.648438 C 344.097656 225.816406 347.835938 234.785156 351.199219 242.824219 C 358.675781 260.949219 364.65625 279.824219 372.691406 297.578125 C 373.441406 299.820312 376.054688 298.140625 375.867188 296.269531 Z M 375.867188 296.269531 " fill-opacity="1" fill-rule="nonzero"/><path fill="#fefefe" d="M 416.609375 366.539062 C 444.828125 372.332031 471.550781 355.511719 485.007812 331.21875 C 497.714844 308.230469 500.894531 273.097656 472.859375 259.828125 C 470.246094 258.519531 467.441406 260.015625 467.253906 263.007812 C 466.878906 269.734375 467.628906 275.527344 470.058594 281.882812 C 471.738281 286.554688 478.839844 284.871094 477.71875 279.824219 C 476.410156 274.03125 475.101562 268.238281 473.609375 262.445312 C 472.671875 264.128906 471.738281 265.808594 470.804688 267.492188 C 474.542969 266.183594 478.28125 265.0625 482.019531 263.566406 C 486.875 261.699219 485.007812 254.035156 479.773438 255.71875 C 476.039062 256.839844 472.300781 258.148438 468.5625 259.457031 C 466.507812 260.203125 465.011719 262.257812 465.757812 264.5 C 467.253906 270.292969 468.75 275.902344 470.246094 281.695312 C 472.859375 280.945312 475.289062 280.199219 477.90625 279.636719 C 475.664062 274.03125 474.917969 268.800781 475.101562 262.820312 C 473.234375 263.941406 471.367188 265.0625 469.496094 265.996094 C 495.847656 277.582031 489.304688 311.222656 476.972656 331.03125 C 464.078125 351.960938 442.210938 364.484375 417.355469 363.363281 C 415.488281 363.734375 415.113281 366.164062 416.609375 366.539062 Z M 416.609375 366.539062 " fill-opacity="1" fill-rule="nonzero"/><path fill="#fefefe" d="M 296.070312 250.484375 C 275.140625 257.027344 267.105469 280.386719 269.347656 300.382812 C 271.214844 317.203125 283.550781 344.671875 305.039062 338.507812 C 307.285156 337.757812 307.285156 334.769531 305.039062 334.019531 C 296.632812 331.40625 289.34375 328.226562 284.484375 320.566406 C 279.8125 313.277344 277.570312 304.121094 277.007812 295.710938 C 275.886719 278.144531 283.175781 263.007812 297.003906 252.355469 C 297.753906 251.792969 297.378906 249.925781 296.070312 250.484375 Z M 296.070312 250.484375 " fill-opacity="1" fill-rule="nonzero"/><path fill="#fefefe" d="M 291.210938 348.039062 C 296.445312 345.609375 305.414062 341.871094 308.21875 336.261719 C 309.710938 333.085938 308.40625 329.347656 307.46875 326.359375 C 306.535156 322.621094 305.976562 320.378906 302.238281 318.882812 C 301.117188 318.511719 299.246094 319.070312 298.6875 320.378906 C 297.753906 322.433594 297.566406 323.554688 298.3125 325.796875 C 299.0625 328.039062 302.050781 331.777344 301.675781 334.207031 C 301.488281 336.261719 299.0625 337.386719 297.378906 338.691406 C 294.761719 340.75 291.960938 342.804688 289.15625 344.671875 C 287.285156 346.167969 288.96875 349.160156 291.210938 348.039062 Z M 291.210938 348.039062 " fill-opacity="1" fill-rule="nonzero"/><path fill="#fefefe" d="M 316.066406 361.867188 C 315.320312 355.886719 309.152344 353.269531 303.546875 353.269531 C 295.695312 353.457031 289.15625 359.0625 285.792969 365.789062 C 280.746094 375.320312 280.1875 387.28125 280.1875 397.746094 C 280 408.214844 281.121094 418.679688 285.230469 428.394531 C 287.660156 434.003906 291.960938 442.414062 299.433594 442.226562 C 307.46875 442.226562 309.152344 432.507812 310.460938 426.527344 C 313.261719 413.820312 314.945312 401.113281 317.1875 388.214844 C 318.683594 379.246094 322.792969 368.035156 317.9375 359.4375 C 315.691406 355.324219 309.527344 359.0625 311.769531 362.988281 C 315.320312 369.339844 311.207031 379.621094 309.898438 386.160156 C 308.777344 391.953125 307.65625 397.746094 306.722656 403.726562 C 305.414062 410.640625 304.292969 417.558594 302.613281 424.285156 C 301.675781 428.210938 302.613281 430.824219 297.9375 430.824219 C 293.082031 430.640625 292.332031 426.152344 291.023438 422.042969 C 287.101562 410.828125 287.285156 398.683594 288.222656 386.910156 C 288.96875 379.246094 289.902344 370.277344 295.511719 364.296875 C 301.675781 357.753906 307.65625 360.371094 314.757812 362.613281 C 315.132812 362.988281 316.066406 362.425781 316.066406 361.867188 Z M 316.066406 361.867188 " fill-opacity="1" fill-rule="nonzero"/></svg>