<svg xmlns="http://www.w3.org/2000/svg" xmlns:xlink="http://www.w3.org/1999/xlink" width="1024" zoomAndPan="magnify" viewBox="0 0 768 767.999994" height="1024" preserveAspectRatio="xMidYMid meet" version="1.0"><defs><clipPath id="049e232b61"><path d="M 294.632812 233 L 350 233 L 350 537 L 294.632812 537 Z M 294.632812 233 " clip-rule="nonzero"/></clipPath></defs><g clip-path="url(#049e232b61)"><path fill="#fefefe" d="M 335.296875 534.710938 C 334.574219 517.933594 331.867188 500.796875 326.457031 484.742188 C 321.226562 468.507812 311.847656 453.714844 308.597656 436.761719 C 305.351562 419.625 304.992188 401.40625 304.089844 384.085938 C 303.007812 365.328125 302.464844 346.386719 302.285156 327.628906 C 302.285156 308.867188 302.285156 289.925781 303.007812 271.167969 C 303.367188 263.953125 303.1875 254.570312 307.15625 248.257812 C 308.78125 243.929688 312.566406 242.847656 318.339844 245.371094 C 319.242188 247.355469 319.964844 249.339844 320.324219 251.324219 C 321.585938 255.652344 322.488281 260.34375 323.390625 264.671875 C 331.507812 301.292969 337.640625 338.089844 341.609375 375.25 C 342.152344 380.480469 350.449219 380.660156 349.90625 375.25 C 346.839844 342.417969 341.96875 309.589844 334.753906 277.480469 C 332.949219 269.722656 331.148438 261.785156 329.164062 254.03125 C 327.898438 248.800781 326.636719 242.847656 323.210938 238.515625 C 317.078125 230.398438 306.976562 234.1875 301.925781 241.765625 C 294.710938 252.585938 295.429688 267.378906 295.25 280.003906 C 294.890625 297.140625 294.890625 314.097656 295.25 331.234375 C 295.972656 364.785156 296.695312 398.878906 301.203125 432.25 C 303.730469 449.746094 311.847656 464.179688 318.160156 480.414062 C 325.015625 498.089844 327.179688 517.03125 331.507812 535.429688 C 331.867188 537.59375 335.476562 537.054688 335.296875 534.710938 Z M 335.296875 534.710938 " fill-opacity="1" fill-rule="nonzero"/></g><path fill="#fefefe" d="M 409.796875 312.835938 C 415.027344 300.929688 399.332031 295.15625 389.953125 295.699219 C 374.800781 296.421875 369.390625 311.574219 369.390625 324.5625 C 369.207031 340.796875 371.011719 359.195312 382.738281 371.460938 C 389.953125 378.855469 407.089844 386.433594 411.597656 372.363281 C 412.863281 368.574219 407.089844 366.230469 405.105469 369.65625 C 398.792969 381.019531 384.902344 363.523438 382.195312 358.292969 C 377.867188 349.632812 377.144531 339.894531 376.964844 330.511719 C 376.785156 322.9375 376.242188 314.277344 381.292969 308.144531 C 387.246094 300.929688 404.925781 301.652344 406.726562 312.65625 C 407.089844 313.738281 409.253906 314.097656 409.796875 312.835938 Z M 409.796875 312.835938 " fill-opacity="1" fill-rule="nonzero"/><path fill="#fefefe" d="M 373.898438 324.5625 C 371.554688 314.097656 355.136719 312.835938 348.285156 319.328125 C 338.183594 328.710938 336.378906 349.09375 338.363281 361.71875 C 340.167969 374.167969 347.5625 387.515625 360.371094 391.304688 C 374.441406 395.453125 383.457031 385.351562 386.523438 372.722656 C 387.789062 367.3125 379.492188 364.96875 378.226562 370.378906 C 375.882812 380.121094 369.027344 387.515625 358.746094 381.382812 C 350.808594 376.691406 347.203125 366.953125 346.300781 358.292969 C 345.398438 349.996094 346.660156 341.515625 349.1875 333.582031 C 350.449219 329.613281 352.070312 324.742188 356.761719 323.117188 C 359.648438 322.214844 367.945312 323.839844 370.289062 326.726562 C 371.734375 328.167969 374.257812 326.363281 373.898438 324.5625 Z M 373.898438 324.5625 " fill-opacity="1" fill-rule="nonzero"/><path fill="#fefefe" d="M 411.597656 489.070312 C 423.324219 457.324219 455.25 435.136719 465.351562 402.488281 C 473.289062 376.332031 460.300781 348.550781 439.378906 332.679688 C 428.914062 324.742188 413.945312 316.261719 400.414062 317.164062 C 391.214844 317.707031 381.65625 324.742188 382.015625 334.84375 C 382.558594 350.175781 401.675781 351.800781 408.894531 362.441406 C 416.109375 372.902344 417.011719 386.253906 425.308594 396.355469 C 428.914062 400.683594 434.867188 394.550781 431.441406 390.222656 C 424.585938 381.921875 423.144531 371.28125 418.632812 362.082031 C 413.582031 352.160156 405.828125 348.914062 396.988281 342.960938 C 386.707031 336.105469 391.394531 324.5625 403.300781 325.101562 C 409.796875 325.28125 416.648438 328.347656 422.421875 331.234375 C 433.425781 336.648438 443.527344 344.402344 450.742188 354.503906 C 457.957031 364.785156 461.925781 377.59375 461.023438 390.222656 C 459.941406 404.109375 452.367188 415.65625 444.609375 426.660156 C 436.851562 438.023438 429.097656 449.386719 421.160156 460.75 C 415.207031 469.410156 408.53125 477.886719 407.992188 488.710938 C 407.992188 490.695312 410.878906 490.875 411.597656 489.070312 Z M 411.597656 489.070312 " fill-opacity="1" fill-rule="nonzero"/><path fill="#fefefe" d="M 407.8125 319.511719 C 410.15625 310.492188 412.320312 305.441406 421.878906 302.191406 C 429.636719 299.667969 436.3125 299.308594 442.445312 305.441406 C 452.367188 315.179688 455.433594 336.105469 447.316406 347.832031 C 444.789062 351.617188 450.921875 355.046875 453.449219 351.4375 C 464.8125 335.023438 456.695312 303.996094 438.65625 295.339844 C 426.75 289.746094 393.199219 303.996094 405.105469 320.050781 C 405.828125 320.773438 407.449219 320.773438 407.8125 319.511719 Z M 407.8125 319.511719 " fill-opacity="1" fill-rule="nonzero"/><path fill="#fefefe" d="M 371.554688 413.128906 C 383.277344 408.800781 396.988281 401.945312 400.777344 388.957031 C 401.859375 385.351562 396.265625 382.824219 394.644531 386.433594 C 389.050781 397.4375 380.390625 404.289062 370.832031 411.867188 C 370.289062 412.226562 371.011719 413.308594 371.554688 413.128906 Z M 371.554688 413.128906 " fill-opacity="1" fill-rule="nonzero"/><path fill="#fefefe" d="M 397.347656 388.417969 C 395.90625 392.386719 394.460938 396.355469 393.742188 400.503906 C 393.019531 404.109375 392.117188 407.539062 393.921875 410.785156 C 395.003906 412.589844 397.890625 412.769531 398.972656 410.785156 C 400.777344 407.539062 399.875 404.109375 399.875 400.503906 C 399.875 396.535156 399.875 392.566406 400.414062 388.777344 C 400.59375 386.972656 397.890625 386.972656 397.347656 388.417969 Z M 397.347656 388.417969 " fill-opacity="1" fill-rule="nonzero"/><path fill="#fefefe" d="M 351.167969 465.441406 C 359.46875 468.867188 371.554688 468.148438 378.949219 462.734375 C 381.292969 461.113281 380.03125 456.601562 376.785156 457.683594 C 372.636719 459.128906 368.847656 460.933594 364.519531 461.652344 C 360.1875 462.195312 355.859375 461.832031 351.710938 461.292969 C 349.1875 461.113281 349.1875 464.539062 351.167969 465.441406 Z M 351.167969 465.441406 " fill-opacity="1" fill-rule="nonzero"/><path fill="#fefefe" d="M 426.210938 454.980469 C 421.160156 464.898438 419.355469 476.445312 419.355469 487.449219 C 419.355469 497.1875 420.078125 510.539062 426.75 518.113281 C 428.734375 520.457031 432.523438 518.472656 432.523438 515.769531 C 432.703125 511.441406 431.082031 508.011719 429.996094 503.863281 C 428.375 497.910156 427.472656 491.957031 426.929688 485.824219 C 426.03125 475.542969 427.472656 465.800781 428.734375 455.519531 C 428.914062 454.257812 426.75 453.898438 426.210938 454.980469 Z M 426.210938 454.980469 " fill-opacity="1" fill-rule="nonzero"/><path fill="#fefefe" d="M 399.332031 347.832031 C 403.84375 348.191406 407.628906 345.664062 410.515625 342.417969 C 413.042969 339.351562 416.289062 333.941406 414.664062 329.792969 C 413.582031 326.726562 408.894531 325.460938 407.089844 328.890625 C 405.644531 331.597656 405.828125 334.664062 404.023438 337.367188 C 402.21875 339.714844 399.511719 341.335938 397.347656 343.140625 C 395.183594 344.582031 397.167969 347.648438 399.332031 347.832031 Z M 399.332031 347.832031 " fill-opacity="1" fill-rule="nonzero"/></svg>