<svg xmlns="http://www.w3.org/2000/svg" xmlns:xlink="http://www.w3.org/1999/xlink" width="1024" zoomAndPan="magnify" viewBox="0 0 768 767.999994" height="1024" preserveAspectRatio="xMidYMid meet" version="1.0"><path fill="#fefefe" d="M 397.53125 288.761719 C 372.585938 277.742188 351.894531 304.039062 346.675781 325.503906 C 339.90625 353.347656 343.96875 385.640625 358.46875 410.390625 C 362.53125 417.355469 371.230469 432.242188 381.480469 427.023438 C 392.503906 421.414062 390.957031 403.625 389.796875 393.761719 C 387.476562 375.585938 382.640625 357.410156 383.027344 339.039062 C 383.414062 321.636719 389.410156 308.875 398.882812 294.757812 C 400.429688 292.242188 397.335938 289.148438 394.824219 290.695312 C 378.386719 301.332031 374.710938 325.695312 375.484375 343.679688 C 376.066406 356.441406 378.578125 369.011719 380.902344 381.582031 C 382.0625 388.542969 388.054688 429.921875 371.425781 416 C 362.53125 408.652344 357.503906 392.410156 354.796875 381.773438 C 351.703125 369.976562 350.734375 357.601562 351.121094 345.421875 C 352.28125 318.347656 364.464844 288.570312 396.371094 291.855469 C 398.304688 291.855469 398.882812 289.34375 397.53125 288.761719 Z M 397.53125 288.761719 " fill-opacity="1" fill-rule="nonzero"/><path fill="#fefefe" d="M 445.484375 290.308594 C 442.003906 267.300781 411.066406 272.90625 399.078125 284.507812 C 380.511719 302.492188 378.386719 335.558594 378.964844 359.921875 C 379.160156 373.652344 381.09375 387.382812 384.1875 400.53125 C 386.507812 409.8125 388.828125 425.28125 398.691406 429.921875 C 407.003906 433.984375 413.773438 429.148438 415.898438 421.027344 C 419.960938 405.558594 420.929688 389.121094 423.828125 373.460938 C 426.34375 359.921875 429.050781 346.582031 432.335938 333.238281 C 435.429688 319.894531 439.296875 305.394531 447.804688 294.5625 C 451.480469 290.117188 445.097656 285.089844 441.425781 289.730469 C 429.050781 305.78125 425.570312 327.824219 421.507812 347.160156 C 418.992188 358.957031 416.671875 370.75 414.738281 382.546875 C 413.578125 389.894531 412.613281 397.4375 411.257812 404.785156 C 410.679688 408.457031 409.90625 412.132812 409.132812 415.808594 C 408.746094 417.355469 408.550781 418.902344 407.972656 420.253906 C 401.589844 421.996094 397.917969 420.449219 396.757812 415.808594 C 393.46875 410.78125 392.503906 402.464844 391.148438 396.664062 C 389.601562 389.316406 388.25 381.582031 387.476562 373.847656 C 386.121094 359.148438 386.507812 344.261719 388.636719 329.757812 C 390.761719 315.835938 393.855469 300.171875 404.296875 289.921875 C 416.671875 277.742188 431.371094 280.253906 442.972656 291.855469 C 444.132812 293.015625 445.679688 291.855469 445.484375 290.308594 Z M 445.484375 290.308594 " fill-opacity="1" fill-rule="nonzero"/><path fill="#fefefe" d="M 477.585938 495.667969 C 477.003906 466.277344 495.761719 440.558594 494.792969 410.78125 C 494.019531 388.929688 481.644531 368.042969 461.921875 358.183594 C 454.378906 354.507812 444.324219 350.640625 436.203125 354.507812 C 426.730469 358.957031 422.667969 371.523438 422.476562 381.386719 C 422.28125 410.003906 455.925781 425.089844 453.027344 453.902344 C 452.445312 459.121094 461.148438 460.28125 462.117188 455.0625 C 465.984375 434.175781 450.707031 419.480469 440.070312 403.625 C 433.109375 393.375 428.664062 380.035156 435.238281 368.429688 C 442.199219 356.441406 458.828125 365.917969 466.949219 371.910156 C 486.671875 386.414062 491.3125 410.78125 485.898438 433.789062 C 481.453125 452.933594 465.015625 476.523438 472.945312 496.441406 C 473.910156 498.570312 477.585938 498.570312 477.585938 495.667969 Z M 477.585938 495.667969 " fill-opacity="1" fill-rule="nonzero"/><path fill="#fefefe" d="M 492.085938 330.917969 C 480.097656 338.074219 476.8125 353.347656 463.664062 359.34375 C 458.25 361.855469 462.890625 369.589844 468.304688 367.269531 C 481.839844 361.46875 486.480469 344.261719 494.214844 333.042969 C 494.988281 331.691406 493.246094 330.144531 492.085938 330.917969 Z M 492.085938 330.917969 " fill-opacity="1" fill-rule="nonzero"/><path fill="#fefefe" d="M 441.230469 415.808594 C 437.558594 420.835938 425.375 427.796875 420.15625 421.996094 C 418.992188 420.640625 416.671875 420.0625 415.125 420.640625 C 414.160156 421.027344 413.578125 421.414062 412.804688 421.996094 C 410.484375 423.929688 411.066406 427.410156 412.804688 429.34375 C 417.253906 434.757812 425.183594 435.335938 431.371094 432.4375 C 438.136719 429.148438 442.003906 423.929688 443.746094 416.773438 C 443.9375 415.226562 442.003906 414.648438 441.230469 415.808594 Z M 441.230469 415.808594 " fill-opacity="1" fill-rule="nonzero"/><path fill="#fefefe" d="M 359.628906 302.105469 C 351.894531 287.214844 339.90625 274.453125 331.398438 259.757812 C 325.789062 250.28125 321.148438 236.359375 309.160156 233.265625 C 298.910156 230.558594 290.597656 237.519531 290.597656 247.960938 C 290.597656 261.691406 300.457031 273.679688 306.261719 285.28125 C 322.117188 316.996094 318.054688 353.734375 323.46875 387.769531 C 327.722656 414.453125 339.519531 443.070312 364.269531 456.800781 C 368.523438 459.121094 372.199219 452.742188 368.136719 450.226562 C 320.183594 419.867188 333.136719 355.476562 322.890625 307.714844 C 320.375 296.113281 316.316406 285.476562 310.707031 275.035156 C 307.613281 269.234375 303.941406 263.433594 302.003906 257.050781 C 300.070312 251.636719 298.71875 248.929688 303.359375 245.0625 C 308.195312 240.808594 310.902344 243.515625 314.1875 248.15625 C 328.109375 267.300781 336.425781 291.277344 357.503906 304.234375 C 358.855469 305.007812 360.210938 303.460938 359.628906 302.105469 Z M 359.628906 302.105469 " fill-opacity="1" fill-rule="nonzero"/><path fill="#fefefe" d="M 357.890625 449.066406 C 360.984375 456.414062 363.304688 464.148438 364.65625 471.882812 C 365.816406 478.84375 365.042969 486.191406 366.589844 493.15625 C 367.363281 496.636719 372.585938 496.441406 373.550781 493.15625 C 377.613281 478.070312 369.296875 459.507812 360.984375 447.324219 C 359.628906 445.585938 357.117188 447.132812 357.890625 449.066406 Z M 357.890625 449.066406 " fill-opacity="1" fill-rule="nonzero"/><path fill="#fefefe" d="M 443.9375 296.886719 C 451.285156 287.601562 465.402344 291.46875 474.683594 296.304688 C 484.933594 301.527344 488.992188 312.355469 490.152344 323.183594 C 492.28125 342.714844 485.320312 361.46875 484.160156 380.808594 C 483.964844 384.09375 488.992188 385.640625 490.347656 382.546875 C 496.34375 369.011719 497.695312 351.609375 498.46875 336.914062 C 499.050781 324.148438 498.082031 311 490.152344 300.367188 C 481.839844 289.148438 444.710938 272.132812 441.8125 295.917969 C 441.8125 296.886719 443.359375 297.660156 443.9375 296.886719 Z M 443.9375 296.886719 " fill-opacity="1" fill-rule="nonzero"/><path fill="#fefefe" d="M 299.105469 311.195312 C 278.800781 369.589844 268.941406 447.132812 308.195312 500.117188 C 323.855469 521.386719 348.414062 537.4375 375.679688 532.214844 C 399.65625 527.769531 424.796875 505.917969 425.957031 480.199219 C 426.148438 476.332031 421.703125 474.203125 418.605469 475.945312 C 412.226562 479.617188 405.652344 481.746094 399.464844 485.804688 C 396.175781 487.933594 399.078125 492.960938 402.558594 491.027344 C 409.710938 486.964844 416.867188 482.519531 424.023438 478.265625 C 422.28125 477.492188 420.347656 476.71875 418.605469 475.945312 C 419.960938 484.257812 420.347656 492.382812 420.15625 500.695312 C 419.960938 506.304688 428.855469 506.304688 428.855469 500.695312 C 428.855469 491.609375 427.890625 482.710938 425.761719 473.816406 C 425.183594 471.496094 422.28125 470.335938 420.347656 471.496094 C 413.386719 476.136719 406.425781 480.777344 399.65625 485.417969 C 400.625 487.160156 401.785156 488.902344 402.75 490.640625 C 407.585938 487.160156 413.773438 483.484375 420.15625 484.453125 C 418.992188 482.519531 417.832031 480.390625 416.671875 478.457031 C 413.191406 490.835938 409.132812 501.082031 399.078125 509.785156 C 389.796875 517.710938 378 522.933594 365.625 523.125 C 338.746094 523.511719 318.25 501.277344 306.261719 479.425781 C 277.449219 427.214844 285.183594 366.691406 300.457031 311.386719 C 300.652344 310.613281 299.296875 310.226562 299.105469 311.195312 Z M 299.105469 311.195312 " fill-opacity="1" fill-rule="nonzero"/><path fill="#fefefe" d="M 436.589844 399.371094 C 441.230469 400.722656 446.066406 397.4375 449.160156 393.957031 C 452.640625 389.894531 454.378906 384.867188 454.1875 379.453125 C 453.800781 372.105469 442.585938 373.460938 444.132812 380.808594 C 444.710938 383.707031 443.9375 386.800781 442.199219 389.316406 C 440.457031 392.023438 437.75 393.375 435.625 395.695312 C 434.464844 396.855469 434.851562 398.789062 436.589844 399.371094 Z M 436.589844 399.371094 " fill-opacity="1" fill-rule="nonzero"/></svg>