<svg xmlns="http://www.w3.org/2000/svg" xmlns:xlink="http://www.w3.org/1999/xlink" width="1024" zoomAndPan="magnify" viewBox="0 0 768 767.999994" height="1024" preserveAspectRatio="xMidYMid meet" version="1.0"><defs><clipPath id="748bcf1c38"><path d="M 276.199219 342 L 312 342 L 312 378 L 276.199219 378 Z M 276.199219 342 " clip-rule="nonzero"/></clipPath></defs><path fill="#fefefe" d="M 432.554688 525.714844 C 422.394531 495.925781 442.027344 470.957031 454.078125 445.472656 C 464.582031 423.257812 466.132812 400.871094 456.316406 377.972656 C 450.292969 364.023438 443.230469 351.796875 442.027344 336.300781 C 441.507812 329.582031 442.371094 323.039062 443.058594 316.496094 C 443.574219 311.675781 444.09375 306.335938 441.164062 302.03125 C 437.03125 295.660156 428.078125 294.800781 421.707031 297.898438 C 412.582031 302.203125 407.929688 313.054688 404.660156 322.007812 C 396.566406 343.1875 390.882812 380.039062 410.6875 396.914062 C 413.785156 399.667969 418.433594 395.019531 415.335938 392.261719 C 404.144531 382.792969 403.796875 365.574219 404.660156 351.796875 C 405.691406 337.847656 409.480469 320.972656 417.917969 309.4375 C 421.191406 304.960938 427.734375 299.792969 433.589844 303.582031 C 438.582031 306.679688 436.6875 313.226562 436 317.53125 C 435.136719 323.730469 434.621094 329.929688 435.136719 336.128906 C 436.171875 349.558594 440.476562 361.269531 447.019531 372.804688 C 455.285156 387.785156 460.796875 401.390625 457.351562 418.78125 C 454.597656 432.730469 447.535156 445.300781 440.820312 457.699219 C 429.628906 478.535156 417.574219 503.675781 428.9375 526.921875 C 429.972656 529.160156 433.242188 527.78125 432.554688 525.714844 Z M 432.554688 525.714844 " fill-opacity="1" fill-rule="nonzero"/><path fill="#fefefe" d="M 399.492188 364.023438 C 399.320312 355.414062 388.816406 352.3125 381.929688 350.589844 C 373.148438 348.523438 362.300781 347.320312 355.066406 354.035156 C 347.488281 361.09375 346.457031 374.355469 345.421875 383.996094 C 343.875 397.945312 344.90625 412.066406 347.835938 425.667969 C 349.730469 433.933594 352.484375 450.121094 360.578125 454.941406 C 367.980469 459.246094 376.417969 453.394531 380.550781 447.195312 C 386.75 437.378906 386.75 425.152344 387.441406 413.960938 C 388.300781 397.945312 392.605469 383.136719 400.011719 369.015625 C 402.25 364.882812 395.878906 361.09375 393.636719 365.226562 C 385.71875 380.039062 381.066406 395.878906 379.863281 412.582031 C 379.175781 421.191406 379.519531 430.144531 376.589844 438.410156 C 375.558594 441.167969 373.835938 445.128906 371.082031 446.847656 C 366.949219 449.433594 362.472656 446.847656 360.75 442.714844 C 359.027344 438.582031 357.648438 434.105469 356.445312 429.800781 C 351.277344 411.03125 350.589844 390.714844 354.722656 371.773438 C 355.753906 367.121094 356.960938 361.613281 361.265625 358.683594 C 365.226562 355.929688 370.910156 356.617188 375.558594 357.136719 C 384.167969 358.167969 390.195312 360.578125 397.082031 365.746094 C 398.117188 366.089844 399.492188 365.054688 399.492188 364.023438 Z M 399.492188 364.023438 " fill-opacity="1" fill-rule="nonzero"/><path fill="#fefefe" d="M 350.417969 372.117188 C 343.183594 366.089844 332.164062 365.402344 325.449219 372.804688 C 317.699219 381.414062 317.699219 395.535156 319.25 406.210938 C 321.660156 421.019531 332.164062 465.273438 356.101562 451.152344 C 358.855469 449.433594 357.132812 444.78125 353.859375 445.816406 C 336.8125 450.980469 330.785156 421.707031 328.203125 410.171875 C 326.308594 402.078125 325.449219 393.640625 327.859375 385.546875 C 329.582031 379.691406 332.164062 375.730469 338.707031 375.042969 C 342.152344 374.699219 345.597656 375.386719 349.039062 375.042969 C 350.417969 374.871094 351.621094 373.148438 350.417969 372.117188 Z M 350.417969 372.117188 " fill-opacity="1" fill-rule="nonzero"/><path fill="#fefefe" d="M 323.726562 417.230469 C 318.214844 434.453125 321.144531 453.21875 324.761719 470.613281 C 326.652344 479.910156 328.894531 489.210938 330.613281 498.679688 C 332.679688 509.699219 332.851562 520.722656 334.230469 531.742188 C 334.746094 535.1875 340.429688 536.90625 341.117188 532.601562 C 344.046875 514.867188 336.984375 494.890625 332.507812 477.84375 C 327.171875 457.699219 323.726562 438.410156 325.621094 417.574219 C 325.792969 416.371094 324.070312 416.371094 323.726562 417.230469 Z M 323.726562 417.230469 " fill-opacity="1" fill-rule="nonzero"/><path fill="#fefefe" d="M 440.476562 323.210938 C 447.535156 305.992188 450.464844 287.050781 457.007812 269.488281 C 460.105469 261.050781 463.035156 251.921875 467.855469 244.347656 C 469.75 241.417969 473.367188 238.492188 476.980469 238.148438 C 483.351562 237.457031 483.351562 244.175781 483.351562 247.789062 C 483.523438 252.265625 483.007812 256.917969 482.492188 261.394531 C 479.046875 298.933594 464.238281 334.921875 448.226562 368.84375 C 446.160156 373.148438 452.703125 376.9375 454.597656 372.632812 C 464.582031 350.589844 473.882812 328.207031 480.253906 304.789062 C 483.523438 292.90625 485.9375 280.679688 487.65625 268.453125 C 488.863281 259.671875 491.789062 247.101562 487.828125 238.664062 C 484.730469 232.464844 477.5 231.085938 471.472656 233.671875 C 463.550781 237.285156 460.277344 246.585938 457.179688 253.988281 C 448.226562 274.996094 438.066406 299.964844 438.582031 323.039062 C 438.582031 324.074219 439.960938 324.074219 440.476562 323.210938 Z M 440.476562 323.210938 " fill-opacity="1" fill-rule="nonzero"/><path fill="#fefefe" d="M 413.269531 312.707031 C 411.375 292.734375 399.835938 271.554688 390.710938 253.988281 C 387.265625 247.273438 383.480469 237.628906 375.902344 234.1875 C 370.21875 231.605469 363.847656 233.84375 360.058594 238.664062 C 354.894531 245.207031 356.101562 253.644531 357.476562 261.222656 C 359.542969 271.898438 362.300781 282.402344 365.914062 292.5625 C 373.664062 313.398438 383.652344 333.199219 393.636719 353.003906 C 395.878906 357.480469 402.765625 353.519531 400.527344 349.042969 C 386.234375 320.972656 370.910156 292.042969 365.398438 260.703125 C 364.710938 256.398438 362.644531 248.480469 365.742188 244.691406 C 372.113281 236.941406 376.417969 244.519531 378.828125 248.308594 C 383.480469 255.367188 387.441406 262.945312 391.226562 270.519531 C 398.289062 284.46875 402.59375 300.136719 410.515625 313.742188 C 411.203125 314.773438 413.441406 314.257812 413.269531 312.707031 Z M 413.269531 312.707031 " fill-opacity="1" fill-rule="nonzero"/><path fill="#fefefe" d="M 298.757812 472.164062 C 297.382812 452.359375 295.832031 432.386719 295.488281 412.410156 C 295.316406 402.9375 295.488281 393.46875 296.003906 383.996094 C 296.519531 373.664062 298.070312 362.816406 297.382812 352.484375 C 297.207031 349.558594 292.902344 348.699219 292.042969 351.796875 C 286.53125 370.566406 288.082031 393.125 288.941406 412.410156 C 289.804688 432.558594 292.214844 452.703125 297.554688 472.335938 C 297.554688 473.023438 298.929688 473.023438 298.757812 472.164062 Z M 298.757812 472.164062 " fill-opacity="1" fill-rule="nonzero"/><g clip-path="url(#748bcf1c38)"><path fill="#fefefe" d="M 279.472656 377.109375 C 286.015625 367.640625 291.699219 357.652344 298.414062 348.351562 C 296.175781 348.351562 293.765625 348.351562 291.527344 348.351562 C 293.765625 352.65625 296.175781 356.960938 298.414062 361.09375 C 300.480469 364.882812 302.203125 369.359375 305.644531 372.117188 C 307.710938 373.839844 312.191406 372.976562 311.84375 369.53125 C 311.15625 364.882812 308.746094 361.613281 306.507812 357.652344 C 303.925781 353.175781 301.167969 348.699219 298.585938 344.21875 C 297.035156 341.464844 293.25 341.808594 291.699219 344.21875 C 285.15625 354.035156 279.644531 364.195312 276.890625 375.730469 C 276.199219 377.625 278.4375 378.488281 279.472656 377.109375 Z M 279.472656 377.109375 " fill-opacity="1" fill-rule="nonzero"/></g></svg>