<svg xmlns="http://www.w3.org/2000/svg" xmlns:xlink="http://www.w3.org/1999/xlink" width="1024" zoomAndPan="magnify" viewBox="0 0 768 767.999994" height="1024" preserveAspectRatio="xMidYMid meet" version="1.0"><defs><clipPath id="848a952a0a"><path d="M 358 390 L 504 390 L 504 537.898438 L 358 537.898438 Z M 358 390 " clip-rule="nonzero"/></clipPath></defs><g clip-path="url(#848a952a0a)"><path fill="#fefefe" d="M 362.925781 536.226562 C 362.925781 522.691406 362.066406 508.125 367.035156 495.277344 C 372.003906 482.597656 382.285156 472.832031 392.734375 464.265625 C 413.636719 447.132812 437.453125 433.425781 462.636719 423.488281 C 470.175781 420.578125 513.179688 411.839844 500.84375 396.589844 C 495.875 390.421875 483.539062 390.59375 476.34375 390.25 C 465.550781 389.738281 454.757812 390.59375 444.304688 392.820312 C 420.148438 397.960938 397.875 410.125 380.398438 427.601562 C 376.972656 431.199219 382.457031 436.683594 385.882812 433.082031 C 404.386719 414.066406 428.886719 401.730469 455.097656 397.960938 C 462.46875 396.933594 470.175781 396.589844 477.542969 396.933594 C 480.113281 397.105469 482.683594 397.277344 485.425781 397.617188 C 487.652344 397.789062 489.707031 398.132812 491.765625 398.644531 C 494.335938 403.273438 493.648438 406.011719 489.707031 406.871094 C 484.054688 410.640625 475.488281 412.011719 469.148438 414.410156 C 462.980469 416.636719 456.8125 419.207031 450.644531 421.949219 C 425.800781 433.253906 401.644531 448.332031 381.597656 467.007812 C 372.691406 475.230469 364.980469 484.824219 361.382812 496.476562 C 357.269531 509.496094 358.640625 522.859375 360.867188 536.226562 C 361.210938 537.59375 362.925781 537.253906 362.925781 536.226562 Z M 362.925781 536.226562 " fill-opacity="1" fill-rule="nonzero"/></g><path fill="#fefefe" d="M 416.035156 404.644531 C 419.976562 388.878906 417.75 370.375 417.75 354.101562 C 417.75 337.824219 417.921875 321.546875 417.75 305.101562 C 417.75 292.078125 417.0625 279.058594 413.808594 266.378906 C 411.238281 256.441406 406.785156 242.734375 398.21875 236.398438 C 390.164062 230.398438 380.742188 235.710938 378.171875 244.621094 C 376.117188 251.644531 376.457031 259.867188 376.117188 267.234375 C 375.773438 274.945312 375.601562 282.484375 375.429688 290.195312 C 375.257812 306.46875 375.773438 322.574219 375.601562 338.851562 C 375.429688 354.273438 374.402344 370.890625 364.292969 383.226562 C 361.210938 386.996094 366.691406 392.308594 369.605469 388.539062 C 383.65625 370.546875 383.65625 348.105469 383.484375 326.34375 C 383.484375 312.125 383.140625 297.902344 383.140625 283.683594 C 383.140625 276.488281 383.140625 269.464844 383.3125 262.265625 C 383.484375 257.984375 383.3125 253.359375 384.339844 249.246094 C 386.054688 242.394531 393.421875 241.535156 397.53125 247.363281 C 412.09375 268.265625 411.410156 296.019531 412.09375 320.519531 C 412.609375 335.082031 412.78125 349.472656 412.78125 364.039062 C 412.78125 377.058594 411.066406 391.621094 413.980469 404.472656 C 414.152344 405.5 415.695312 405.5 416.035156 404.644531 Z M 416.035156 404.644531 " fill-opacity="1" fill-rule="nonzero"/><path fill="#fefefe" d="M 350.929688 415.609375 C 356.585938 412.523438 360.695312 406.183594 365.835938 402.246094 C 372.175781 397.445312 379.027344 394.019531 386.566406 391.109375 C 389.480469 389.910156 388.453125 385.28125 385.195312 386.3125 C 377.660156 388.539062 370.460938 392.308594 364.292969 397.277344 C 358.984375 401.386719 351.101562 407.726562 349.902344 414.921875 C 349.730469 415.4375 350.246094 415.949219 350.929688 415.609375 Z M 350.929688 415.609375 " fill-opacity="1" fill-rule="nonzero"/><path fill="#fefefe" d="M 378 362.152344 C 371.660156 353.585938 364.464844 347.417969 353.328125 345.707031 C 344.25 344.335938 334.484375 346.5625 327.972656 353.414062 C 320.777344 360.953125 318.890625 372.261719 317.179688 382.199219 C 315.121094 394.707031 313.753906 407.382812 313.921875 420.0625 C 314.09375 428.800781 315.464844 438.910156 323.003906 444.5625 C 329.515625 449.359375 336.710938 447.648438 341.679688 441.648438 C 348.703125 432.914062 352.816406 420.40625 356.757812 409.953125 C 361.039062 398.644531 362.753906 379.800781 374.574219 373.632812 C 378.515625 371.578125 375.089844 365.578125 370.976562 367.636719 C 358.296875 374.316406 356.070312 389.738281 351.617188 402.074219 C 348.191406 411.667969 344.078125 421.261719 339.109375 430.171875 C 336.539062 434.96875 332.085938 443.535156 325.574219 435.996094 C 322.488281 432.398438 321.804688 426.914062 321.632812 422.460938 C 320.777344 405.328125 322.488281 385.625 327.800781 369.347656 C 331.054688 359.242188 338.253906 352.386719 349.558594 352.902344 C 358.640625 353.414062 368.0625 359.242188 375.773438 364.039062 C 377.316406 364.894531 378.859375 363.351562 378 362.152344 Z M 378 362.152344 " fill-opacity="1" fill-rule="nonzero"/><path fill="#fefefe" d="M 329 355.472656 C 323.175781 352.730469 319.0625 348.105469 312.039062 348.445312 C 306.042969 348.789062 300.558594 352.214844 296.789062 356.84375 C 286.511719 369.519531 287.367188 391.449219 288.394531 406.527344 C 288.910156 415.949219 290.449219 425.546875 292.679688 434.796875 C 294.21875 440.792969 296.105469 447.304688 300.730469 451.585938 C 311.695312 461.523438 323.003906 448.847656 327.972656 439.421875 C 329.515625 436.683594 325.402344 434.28125 323.6875 437.023438 C 320.261719 442.679688 314.78125 451.585938 306.726562 446.960938 C 302.101562 444.21875 300.730469 437.882812 299.53125 432.914062 C 296.449219 420.578125 295.078125 407.898438 295.25 395.21875 C 295.417969 384.425781 295.25 368.664062 303.128906 360.269531 C 308.269531 354.957031 313.582031 355.300781 319.921875 357.699219 C 323.003906 358.898438 325.230469 359.242188 328.316406 358.042969 C 329.6875 357.527344 330.199219 355.984375 329 355.472656 Z M 329 355.472656 " fill-opacity="1" fill-rule="nonzero"/><path fill="#fefefe" d="M 297.988281 361.640625 C 297.304688 354.101562 288.222656 352.386719 282.226562 355.300781 C 272.117188 360.097656 270.234375 375.859375 268.691406 385.453125 C 266.464844 398.644531 266.292969 412.351562 270.578125 425.03125 C 272.632812 431.027344 279.316406 446.105469 287.882812 439.9375 C 288.566406 439.421875 289.082031 438.222656 288.222656 437.539062 C 275.714844 427.945312 273.660156 411.839844 274.6875 396.761719 C 275.203125 386.996094 278.285156 352.042969 295.078125 363.351562 C 296.105469 364.039062 298.160156 363.007812 297.988281 361.640625 Z M 297.988281 361.640625 " fill-opacity="1" fill-rule="nonzero"/><path fill="#fefefe" d="M 270.0625 412.867188 C 254.8125 449.015625 278.800781 487.566406 268.519531 524.402344 C 267.148438 529.027344 274.515625 531.085938 275.714844 526.457031 C 285.652344 488.59375 259.613281 451.074219 273.148438 413.722656 C 274.003906 411.839844 270.917969 410.980469 270.0625 412.867188 Z M 270.0625 412.867188 " fill-opacity="1" fill-rule="nonzero"/></svg>