<svg xmlns="http://www.w3.org/2000/svg" xmlns:xlink="http://www.w3.org/1999/xlink" width="1024" zoomAndPan="magnify" viewBox="0 0 768 767.999994" height="1024" preserveAspectRatio="xMidYMid meet" version="1.0"><path fill="#fefefe" d="M 333.09375 269.71875 C 338.480469 281.390625 329.144531 300.242188 325.015625 311.375 C 320.347656 324.121094 315.320312 336.6875 312.984375 350.152344 C 309.753906 369.542969 311.910156 394.679688 329.863281 406.710938 C 333.632812 409.222656 338.121094 403.476562 334.710938 400.425781 C 313.882812 380.316406 318.550781 350.871094 326.09375 325.558594 C 329.863281 312.808594 334.710938 300.242188 338.121094 287.316406 C 339.917969 280.3125 342.609375 271.875 335.96875 266.847656 C 333.992188 265.589844 332.375 268.105469 333.09375 269.71875 Z M 333.09375 269.71875 " fill-opacity="1" fill-rule="nonzero"/><path fill="#fefefe" d="M 334.710938 378.703125 C 331.121094 414.429688 329.144531 452.132812 336.863281 487.503906 C 339.199219 498.097656 342.25 513.894531 354.101562 517.847656 C 362 520.539062 374.210938 515.691406 372.234375 505.996094 C 371.695312 503.839844 368.464844 502.765625 367.027344 504.558594 C 356.792969 517.488281 349.253906 501.148438 346.558594 491.632812 C 342.96875 478.886719 340.636719 466.136719 339.199219 453.03125 C 336.328125 428.253906 337.222656 403.476562 336.6875 378.523438 C 336.6875 377.445312 334.890625 377.445312 334.710938 378.703125 Z M 334.710938 378.703125 " fill-opacity="1" fill-rule="nonzero"/><path fill="#fefefe" d="M 366.667969 389.832031 C 361.460938 416.945312 363.796875 446.746094 365.589844 474.039062 C 366.488281 487.503906 367.027344 501.148438 369.183594 514.433594 C 370.4375 522.335938 373.671875 531.132812 382.46875 532.925781 C 405.628906 537.59375 407.425781 500.96875 408.144531 486.785156 C 409.757812 459.136719 410.835938 430.589844 404.730469 403.476562 C 404.191406 400.964844 400.601562 402.042969 400.960938 404.554688 C 404.011719 426.101562 404.191406 447.824219 402.398438 469.550781 C 401.5 480.140625 400.78125 490.914062 399.164062 501.507812 C 398.269531 506.714844 397.191406 512.640625 394.675781 517.308594 C 393.421875 519.460938 390.367188 523.769531 387.675781 523.949219 C 383.007812 524.308594 379.417969 520.898438 378.160156 516.949219 C 375.105469 507.253906 374.570312 496.121094 373.3125 486.246094 C 372.054688 475.832031 371.15625 465.417969 370.796875 454.828125 C 369.722656 433.28125 371.695312 411.738281 370.261719 390.191406 C 369.902344 388.574219 367.027344 387.859375 366.667969 389.832031 Z M 366.667969 389.832031 " fill-opacity="1" fill-rule="nonzero"/><path fill="#fefefe" d="M 319.988281 273.667969 C 339.738281 246.378906 373.492188 232.195312 405.628906 246.558594 C 422.328125 254.097656 428.25 269.71875 433.996094 286.058594 C 439.203125 300.960938 443.152344 316.222656 445.847656 331.839844 C 451.773438 365.773438 450.515625 399.527344 445.308594 433.28125 C 442.613281 450.519531 439.921875 467.753906 437.050781 484.988281 C 435.972656 492.171875 435.074219 500.070312 431.84375 506.714844 C 427.714844 514.792969 412.8125 524.128906 408.324219 510.84375 C 406.886719 506.535156 399.882812 508.332031 401.5 512.820312 C 404.550781 521.976562 414.425781 526.824219 423.761719 523.769531 C 435.074219 520 440.101562 508.332031 442.257812 497.558594 C 445.667969 480.320312 447.820312 462.726562 450.515625 445.492188 C 453.207031 428.613281 455.902344 411.738281 456.621094 394.679688 C 458.234375 361.824219 453.746094 328.609375 443.691406 297.1875 C 439.023438 282.824219 433.996094 266.488281 424.480469 254.277344 C 416.761719 244.226562 404.191406 238.839844 392.164062 236.503906 C 362.71875 230.398438 329.863281 243.867188 316.398438 271.515625 C 315.140625 274.027344 318.371094 275.824219 319.988281 273.667969 Z M 319.988281 273.667969 " fill-opacity="1" fill-rule="nonzero"/><path fill="#fefefe" d="M 345.125 488.042969 C 351.40625 487.863281 357.511719 487.683594 363.796875 488.042969 C 365.414062 488.042969 365.769531 486.066406 364.515625 485.167969 C 358.410156 481.039062 349.972656 481.398438 344.40625 486.425781 C 343.867188 486.964844 344.40625 488.222656 345.125 488.042969 Z M 345.125 488.042969 " fill-opacity="1" fill-rule="nonzero"/><path fill="#fefefe" d="M 381.390625 507.433594 C 382.46875 505.996094 383.726562 504.917969 385.519531 504.558594 C 386.957031 504.199219 388.933594 504.558594 390.1875 505.277344 C 391.625 505.996094 393.601562 505.097656 393.421875 503.304688 C 392.523438 492.890625 374.390625 495.761719 376.542969 505.996094 C 376.902344 508.152344 379.953125 509.046875 381.390625 507.433594 Z M 381.390625 507.433594 " fill-opacity="1" fill-rule="nonzero"/><path fill="#fefefe" d="M 416.402344 495.042969 C 417.300781 493.964844 418.554688 493.25 419.992188 493.429688 C 420.710938 493.609375 420.890625 493.789062 421.25 494.144531 C 422.507812 495.042969 423.582031 495.042969 425.019531 495.222656 C 427.175781 495.402344 429.507812 492.710938 428.609375 490.554688 C 427.714844 488.222656 426.277344 486.605469 423.582031 486.425781 C 421.96875 486.425781 420.351562 486.785156 418.914062 487.324219 C 416.222656 488.402344 414.066406 490.195312 413.171875 493.070312 C 412.632812 495.042969 415.144531 496.480469 416.402344 495.042969 Z M 416.402344 495.042969 " fill-opacity="1" fill-rule="nonzero"/></svg>