<svg xmlns="http://www.w3.org/2000/svg" xmlns:xlink="http://www.w3.org/1999/xlink" width="1024" zoomAndPan="magnify" viewBox="0 0 768 767.999994" height="1024" preserveAspectRatio="xMidYMid meet" version="1.0"><path fill="#fefefe" d="M 399.203125 234.351562 C 384.835938 230.433594 368.230469 240.136719 359.457031 251.144531 C 353.488281 258.421875 349.757812 267.378906 345.277344 275.773438 C 339.867188 286.410156 334.269531 296.859375 328.859375 307.496094 C 320.273438 323.914062 309.078125 341.828125 311.132812 361.421875 C 312.8125 375.601562 321.953125 390.527344 336.882812 392.765625 C 341.546875 393.515625 343.410156 387.167969 338.933594 385.675781 C 301.054688 372.242188 328.484375 324.289062 340.054688 301.710938 C 347.144531 287.902344 353.300781 272.976562 361.882812 259.914062 C 371.214844 245.546875 383.714844 242.5625 399.203125 238.644531 C 401.253906 237.710938 401.253906 234.910156 399.203125 234.351562 Z M 399.203125 234.351562 " fill-opacity="1" fill-rule="nonzero"/><path fill="#fefefe" d="M 338.5625 364.21875 C 333.710938 377.09375 337.066406 392.582031 343.226562 404.523438 C 347.332031 412.546875 358.527344 428.59375 368.414062 418.890625 C 371.773438 415.53125 367.480469 410.121094 363.378906 412.359375 C 359.457031 414.597656 352.742188 405.457031 351.0625 403.03125 C 348.078125 399.113281 345.835938 394.632812 344.160156 390.15625 C 340.988281 381.757812 340.988281 373.175781 340.425781 364.40625 C 340.425781 363.285156 338.933594 363.097656 338.5625 364.21875 Z M 338.5625 364.21875 " fill-opacity="1" fill-rule="nonzero"/><path fill="#fefefe" d="M 364.871094 376.90625 C 363.75 408.441406 366.175781 439.789062 367.855469 471.136719 C 368.789062 488.675781 366.921875 525.058594 388.007812 533.269531 C 396.777344 536.628906 403.308594 527.859375 406.292969 520.769531 C 411.332031 509.199219 410.210938 496.136719 410.210938 483.824219 C 410.210938 467.777344 410.585938 451.917969 410.957031 435.871094 C 411.332031 420.195312 412.449219 403.777344 411.332031 387.917969 C 411.144531 385.675781 407.785156 384.929688 407.226562 387.355469 C 401.816406 411.238281 402 437.175781 401.628906 461.621094 C 401.441406 473.375 401.628906 485.128906 401.253906 496.886719 C 401.070312 504.347656 397.148438 534.015625 385.769531 519.460938 C 379.609375 511.4375 377.183594 501.363281 375.691406 491.660156 C 373.640625 478.972656 372.519531 465.910156 371.214844 453.035156 C 368.976562 427.660156 368.042969 402.285156 365.804688 376.90625 C 365.804688 376.347656 364.871094 376.347656 364.871094 376.90625 Z M 364.871094 376.90625 " fill-opacity="1" fill-rule="nonzero"/><path fill="#fefefe" d="M 406.480469 472.628906 C 404.242188 484.941406 396.589844 537.5625 421.59375 533.082031 C 430.921875 531.402344 436.335938 518.902344 438.945312 510.878906 C 442.863281 498.191406 443.425781 484.382812 444.730469 471.320312 C 448.089844 437.550781 452.195312 403.777344 456.300781 370.191406 C 459.84375 340.523438 466.933594 307.867188 455.554688 279.132812 C 446.035156 254.878906 423.644531 237.152344 397.894531 232.484375 C 391.550781 231.367188 388.941406 241.070312 395.285156 242.1875 C 421.78125 246.292969 444.542969 265.324219 451.261719 291.449219 C 455.367188 307.308594 453.875 324.101562 452.195312 340.148438 C 450.515625 356.195312 448.460938 372.242188 446.597656 388.289062 C 442.863281 420.757812 438.757812 453.410156 434.65625 485.875 C 433.910156 490.914062 426.445312 533.644531 415.25 521.140625 C 411.144531 516.664062 410.398438 504.347656 409.652344 498.75 C 408.34375 490.167969 407.597656 481.398438 407.785156 472.628906 C 407.597656 472.253906 406.667969 472.066406 406.480469 472.628906 Z M 406.480469 472.628906 " fill-opacity="1" fill-rule="nonzero"/><path fill="#fefefe" d="M 378.675781 505.65625 C 380.542969 504.160156 383.527344 502.855469 385.769531 502.667969 C 388.378906 502.296875 390.992188 503.601562 393.605469 502.855469 C 395.285156 502.296875 396.964844 500.242188 396.21875 498.378906 C 394.351562 493.527344 388.007812 492.59375 383.34375 493.710938 C 378.304688 494.832031 374.945312 497.816406 373.265625 502.667969 C 372.148438 505.839844 376.4375 507.519531 378.675781 505.65625 Z M 378.675781 505.65625 " fill-opacity="1" fill-rule="nonzero"/><path fill="#fefefe" d="M 414.503906 502.109375 C 418.792969 500.058594 422.339844 501.550781 426.445312 502.855469 C 427.75 503.230469 428.496094 501.550781 427.75 500.617188 C 424.390625 496.324219 417.300781 497.070312 413.011719 499.683594 C 411.515625 500.617188 413.011719 502.855469 414.503906 502.109375 Z M 414.503906 502.109375 " fill-opacity="1" fill-rule="nonzero"/></svg>