<svg xmlns="http://www.w3.org/2000/svg" xmlns:xlink="http://www.w3.org/1999/xlink" width="1024" zoomAndPan="magnify" viewBox="0 0 768 767.999994" height="1024" preserveAspectRatio="xMidYMid meet" version="1.0"><path fill="#fefefe" d="M 417.675781 399.59375 C 401.734375 379.199219 384.425781 358.632812 363.859375 342.519531 C 357.003906 337.207031 348.605469 333.609375 340.035156 336.351562 C 332.835938 338.578125 327.011719 345.09375 327.695312 352.976562 C 328.039062 357.433594 330.609375 361.71875 332.324219 365.832031 C 335.238281 372.34375 338.320312 379.027344 341.234375 385.539062 C 346.71875 397.539062 352.03125 409.535156 357.515625 421.53125 C 365.230469 438.328125 378.941406 459.582031 400.535156 455.636719 C 406.191406 454.609375 404.476562 446.382812 399.164062 446.039062 C 380.140625 444.667969 372.429688 429.414062 365.230469 413.648438 C 357.347656 396.507812 349.632812 379.199219 341.921875 362.058594 C 340.207031 358.289062 336.09375 352.460938 339.351562 348.347656 C 342.605469 344.40625 348.949219 345.605469 352.890625 347.492188 C 360.773438 351.261719 367.457031 358.460938 373.800781 364.289062 C 387.683594 376.628906 401.90625 388.796875 415.960938 400.964844 C 417.160156 401.992188 418.53125 400.621094 417.675781 399.59375 Z M 417.675781 399.59375 " fill-opacity="1" fill-rule="nonzero"/><path fill="#fefefe" d="M 375.511719 446.382812 C 377.054688 458.722656 383.570312 470.722656 394.878906 476.546875 C 397.109375 477.746094 400.023438 474.492188 397.792969 472.777344 C 388.710938 465.578125 381.683594 457.351562 378.425781 445.871094 C 377.914062 444.5 375.171875 444.667969 375.511719 446.382812 Z M 375.511719 446.382812 " fill-opacity="1" fill-rule="nonzero"/><path fill="#fefefe" d="M 356.144531 419.304688 C 358.886719 429.757812 357.175781 440.726562 358.546875 451.355469 C 359.574219 459.921875 363.003906 467.808594 367.285156 475.347656 C 371.914062 483.402344 377.570312 490.945312 382.027344 499 C 387.851562 509.796875 389.566406 520.9375 390.765625 533.105469 C 391.109375 537.390625 397.621094 537.5625 397.621094 533.105469 C 397.621094 512.367188 385.96875 495.230469 375 478.605469 C 368.828125 469.179688 363.6875 459.410156 362.488281 447.925781 C 361.460938 437.644531 361.972656 428.386719 356.316406 419.304688 C 356.316406 419.132812 356.144531 419.132812 356.144531 419.304688 Z M 356.144531 419.304688 " fill-opacity="1" fill-rule="nonzero"/><path fill="#fefefe" d="M 446.125 317.839844 C 426.929688 296.761719 393.851562 294.53125 371.570312 312.355469 C 365.230469 317.328125 360.945312 324.183594 355.117188 329.667969 C 346.71875 337.550781 329.410156 337.894531 337.121094 321.613281 C 345.175781 304.472656 356.488281 285.960938 370.886719 273.621094 C 386.140625 260.425781 406.878906 254.253906 425.730469 263.339844 C 440.8125 270.710938 452.640625 283.390625 467.378906 291.445312 C 475.261719 295.730469 484.515625 298.472656 490.515625 305.328125 C 496.34375 312.183594 497.886719 321.269531 497.714844 330.011719 C 497.371094 348.519531 491.03125 366.6875 487.601562 384.683594 C 479.203125 428.730469 475.777344 478.089844 490.6875 521.28125 C 492.574219 526.59375 500.628906 524.539062 499.257812 518.882812 C 493.085938 494.371094 489.832031 470.207031 490.6875 444.839844 C 491.542969 420.675781 495.316406 396.851562 500.457031 373.199219 C 504.226562 355.203125 510.226562 336.523438 506.96875 317.839844 C 503.371094 297.789062 488.800781 291.449219 472.519531 282.707031 C 456.238281 273.964844 443.382812 259.738281 426.246094 252.714844 C 407.90625 245.34375 387.683594 249.457031 371.742188 260.597656 C 355.117188 271.910156 344.148438 289.046875 334.378906 306.1875 C 330.09375 313.554688 323.925781 322.46875 325.296875 331.550781 C 326.324219 338.238281 331.464844 343.035156 337.980469 344.75 C 359.058594 349.890625 367.628906 325.554688 382.199219 316.128906 C 400.878906 304.300781 427.789062 305.671875 444.925781 319.210938 C 445.613281 320.410156 446.984375 319.039062 446.125 317.839844 Z M 446.125 317.839844 " fill-opacity="1" fill-rule="nonzero"/><path fill="#fefefe" d="M 412.363281 302.074219 C 408.933594 315.097656 418.019531 338.066406 431.730469 342.007812 C 433.785156 342.691406 436.015625 340.121094 434.644531 338.238281 C 430.871094 332.582031 425.214844 328.808594 421.960938 322.640625 C 418.359375 315.957031 417.675781 309.101562 415.960938 301.902344 C 415.789062 300.1875 412.875 300.359375 412.363281 302.074219 Z M 412.363281 302.074219 " fill-opacity="1" fill-rule="nonzero"/><path fill="#fefefe" d="M 401.222656 374.398438 C 405.847656 370.800781 408.589844 365.660156 413.734375 362.402344 C 419.046875 359.144531 424.53125 358.976562 430.1875 357.089844 C 432.929688 356.234375 432.929688 352.460938 430.1875 351.433594 C 418.191406 347.492188 397.453125 359.316406 396.421875 372.34375 C 396.082031 375.257812 399.507812 375.769531 401.222656 374.398438 Z M 401.222656 374.398438 " fill-opacity="1" fill-rule="nonzero"/><path fill="#fefefe" d="M 406.191406 250.3125 C 399.507812 231.289062 373.800781 230.433594 358.03125 236.429688 C 338.320312 243.800781 323.238281 259.738281 313.300781 277.734375 C 308.328125 286.820312 304.558594 296.589844 301.816406 306.53125 C 299.246094 315.785156 296.675781 326.582031 299.417969 336.179688 C 301.472656 343.550781 306.957031 349.035156 314.671875 349.890625 C 321.355469 350.75 328.722656 347.664062 330.09375 340.464844 C 330.953125 335.496094 324.609375 332.410156 321.867188 337.035156 C 316.042969 346.121094 308.5 335.152344 308.15625 328.640625 C 307.816406 322.296875 309.699219 315.441406 311.242188 309.273438 C 314.671875 296.417969 319.984375 283.90625 327.523438 272.9375 C 335.410156 261.625 346.035156 251.855469 358.546875 246.027344 C 374.65625 238.660156 389.054688 241.746094 402.421875 252.371094 C 404.136719 253.570312 407.050781 252.542969 406.191406 250.3125 Z M 406.191406 250.3125 " fill-opacity="1" fill-rule="nonzero"/><path fill="#fefefe" d="M 324.78125 262.652344 C 313.128906 255.113281 294.273438 267.796875 285.363281 275.507812 C 273.878906 285.621094 264.796875 299.84375 261.367188 315.097656 C 258.625 327.4375 257.769531 344.921875 269.25 353.492188 C 283.648438 364.117188 298.558594 350.75 307.128906 339.609375 C 310.558594 335.324219 304.730469 328.980469 300.957031 333.4375 C 293.933594 341.320312 277.648438 355.71875 271.308594 338.921875 C 267.710938 329.152344 270.792969 316.296875 274.222656 307.042969 C 277.992188 296.933594 284.164062 287.675781 292.046875 280.476562 C 301.816406 271.394531 312.097656 267.625 324.609375 263.851562 C 325.296875 263.683594 325.296875 262.824219 324.78125 262.652344 Z M 324.78125 262.652344 " fill-opacity="1" fill-rule="nonzero"/><path fill="#fefefe" d="M 319.296875 348.519531 C 315.871094 363.945312 318.953125 381.769531 326.152344 395.824219 C 331.980469 407.136719 343.636719 420.332031 356.832031 422.390625 C 360.601562 422.902344 363.515625 417.933594 359.574219 415.875 C 347.75 409.707031 338.492188 404.734375 331.636719 392.566406 C 323.925781 378.855469 323.753906 364.117188 321.867188 349.035156 C 321.867188 347.320312 319.640625 346.804688 319.296875 348.519531 Z M 319.296875 348.519531 " fill-opacity="1" fill-rule="nonzero"/><path fill="#fefefe" d="M 369 327.4375 C 374.3125 335.664062 391.625 341.835938 399.851562 334.808594 C 401.734375 333.09375 400.535156 330.011719 398.480469 329.324219 C 394.195312 327.953125 389.226562 329.496094 384.769531 328.808594 C 380.140625 328.125 375.511719 326.066406 371.058594 324.867188 C 369.515625 324.355469 368.144531 326.066406 369 327.4375 Z M 369 327.4375 " fill-opacity="1" fill-rule="nonzero"/><path fill="#fefefe" d="M 381.683594 359.316406 C 389.394531 354.863281 397.621094 351.433594 406.535156 350.0625 C 414.933594 348.863281 422.644531 350.0625 431.042969 350.917969 C 434.8125 351.261719 435.15625 345.777344 431.902344 344.578125 C 414.933594 338.578125 393.167969 344.40625 379.285156 355.03125 C 376.882812 356.917969 378.941406 360.859375 381.683594 359.316406 Z M 381.683594 359.316406 " fill-opacity="1" fill-rule="nonzero"/></svg>