<svg xmlns="http://www.w3.org/2000/svg" xmlns:xlink="http://www.w3.org/1999/xlink" width="1024" zoomAndPan="magnify" viewBox="0 0 768 767.999994" height="1024" preserveAspectRatio="xMidYMid meet" version="1.0"><defs><clipPath id="b8f6ffd95a"><path d="M 231 253.121094 L 537 253.121094 L 537 513 L 231 513 Z M 231 253.121094 " clip-rule="nonzero"/></clipPath></defs><g clip-path="url(#b8f6ffd95a)"><path fill="#fefefe" d="M 403.152344 421.339844 C 392.910156 415.039062 384.355469 407.308594 378.335938 396.410156 C 372.785156 397.496094 367.25 398.617188 361.703125 399.648438 C 356.101562 400.695312 350.519531 402.109375 344.867188 402.566406 C 326.5 404.046875 319.160156 394.773438 324.125 376.351562 C 324.40625 375.3125 324.902344 374.328125 324.496094 372.582031 C 318.835938 377.292969 313.207031 382.039062 307.507812 386.703125 C 302.214844 391.039062 296.980469 395.46875 291.457031 399.503906 C 288.359375 401.765625 284.894531 403.726562 281.316406 405.09375 C 271.382812 408.898438 262.054688 401.21875 263.785156 390.59375 C 264.320312 387.316406 265.667969 383.890625 267.558594 381.175781 C 272.246094 374.453125 276.863281 367.503906 282.585938 361.710938 C 299.578125 344.5 317.089844 327.800781 334.40625 310.90625 C 335.863281 309.484375 337.375 308.121094 338.851562 306.738281 C 336.507812 302.023438 333.082031 300.300781 327.910156 300.023438 C 310.839844 299.117188 293.773438 297.890625 276.757812 296.234375 C 266.796875 295.265625 256.917969 293.359375 247.035156 291.679688 C 235.707031 289.75 230.742188 283.371094 231.515625 272.15625 C 231.96875 265.636719 234.992188 260.59375 241.117188 258.40625 C 245.988281 256.664062 251.25 255.484375 256.402344 255.195312 C 264.359375 254.75 272.367188 255.308594 280.355469 255.386719 C 297.003906 255.550781 313.664062 256.003906 330.308594 255.730469 C 350.847656 255.394531 371.375 254.476562 391.902344 253.738281 C 409.386719 253.109375 426.441406 255.339844 443.273438 260.230469 C 465.234375 266.613281 483.476562 278.5625 497.816406 296.175781 C 503.6875 303.390625 508.742188 311.378906 513.359375 319.476562 C 519.109375 329.558594 520.871094 340.582031 521 352.351562 C 521.285156 378.335938 519.195312 404.421875 523.261719 430.300781 C 525.710938 445.898438 529.664062 461.105469 534.910156 475.996094 C 537.203125 482.519531 536.976562 482.421875 531.589844 486.753906 C 504.34375 508.675781 472.820312 514.816406 438.96875 511.359375 C 425.925781 510.023438 413.8125 504.871094 402.4375 498.378906 C 393.019531 493 391.980469 490.519531 394.199219 480 C 395.660156 473.085938 397.507812 466.253906 399.242188 459.398438 C 402.40625 446.921875 403.226562 434.230469 403.152344 421.339844 Z M 385.039062 395.007812 C 385.351562 395.8125 385.414062 396.304688 385.679688 396.628906 C 402.785156 417.488281 434.769531 429.109375 461.578125 416.796875 C 463.644531 415.847656 465.785156 414.597656 467.949219 414.460938 C 469.695312 414.347656 472.378906 415.25 473.074219 416.542969 C 473.691406 417.695312 472.304688 420.078125 471.488281 421.769531 C 471.15625 422.453125 470.03125 422.808594 469.214844 423.203125 C 452.453125 431.222656 435.207031 433.183594 417.359375 427.25 C 415.03125 426.476562 412.722656 425.632812 409.363281 424.457031 C 411.191406 447.355469 405.75 468.238281 399.359375 488.742188 C 431.621094 514.199219 501.832031 508.621094 528.695312 478.601562 C 528.304688 477.441406 527.90625 476.148438 527.4375 474.878906 C 518.160156 449.777344 513.308594 423.894531 513.898438 397.089844 C 514.222656 382.25 514.847656 367.414062 515.144531 352.578125 C 515.230469 348.078125 515.277344 343.429688 514.300781 339.085938 C 509.933594 319.671875 498.746094 304.140625 484.695312 290.738281 C 463.5 270.527344 437.101562 261.964844 408.585938 260.945312 C 386.738281 260.160156 364.789062 261.714844 342.898438 262.582031 C 319.386719 263.515625 295.902344 263.890625 272.382812 262.519531 C 264.015625 262.03125 255.488281 262.496094 247.164062 263.546875 C 239.222656 264.546875 235.921875 270.371094 237.621094 277.9375 C 238.726562 282.847656 242.203125 285.308594 246.644531 286.238281 C 252.214844 287.40625 257.941406 287.785156 263.542969 288.828125 C 282.664062 292.390625 301.988281 293.898438 321.386719 294.65625 C 324.261719 294.765625 327.144531 294.671875 330.0625 294.671875 C 330.0625 293.488281 330.089844 293.03125 330.058594 292.578125 C 329.203125 280.023438 333.652344 274.726562 346.0625 275.648438 C 355.546875 276.351562 365.078125 278.113281 374.28125 280.558594 C 395.652344 286.230469 416.59375 293.566406 438.546875 296.957031 C 449.335938 298.621094 460.035156 301.492188 471.132812 299.679688 C 471.769531 299.574219 472.5625 300.40625 473.421875 300.878906 C 468.878906 304.597656 466.394531 305.722656 458.625 304.730469 C 443.9375 302.859375 429.164062 301.097656 414.742188 297.878906 C 398.964844 294.355469 383.621094 288.945312 367.941406 284.941406 C 360.257812 282.980469 352.277344 281.765625 344.363281 281.261719 C 336.421875 280.753906 333.222656 286.691406 337.394531 293.511719 C 339.269531 296.582031 341.894531 299.253906 344.441406 301.84375 C 361.65625 319.335938 382.734375 327.707031 407.121094 328.300781 C 409.550781 328.363281 411.980469 329.175781 414.367188 329.816406 C 414.816406 329.933594 415.042969 330.875 415.550781 331.734375 C 414.398438 333.25 413.246094 334.757812 411.976562 336.425781 C 419.71875 350.605469 427.859375 364.105469 440.773438 373.796875 C 453.371094 383.25 467.132812 389.324219 483.488281 386.132812 C 484.570312 385.921875 485.789062 385.953125 486.859375 386.210938 C 489.5 386.855469 490.304688 389.625 488.214844 391.382812 C 486.894531 392.496094 485.0625 393.410156 483.371094 393.59375 C 479.316406 394.039062 475.144531 394.539062 471.132812 394.0625 C 453.125 391.933594 438.191406 383.609375 426.214844 370.183594 C 417.054688 359.921875 409.6875 348.453125 405.507812 335.085938 C 403.496094 335.085938 401.59375 335.085938 399.480469 335.085938 C 405.925781 345.414062 406.484375 350.429688 394.683594 360.066406 C 396.957031 362.761719 399.394531 365.433594 401.585938 368.296875 C 407.195312 375.621094 406.269531 382.199219 398.722656 387.65625 C 396.15625 389.511719 393.179688 390.804688 390.367188 392.308594 C 388.605469 393.253906 386.796875 394.121094 385.039062 395.007812 Z M 343.195312 310.953125 C 338.308594 314.960938 333.386719 318.402344 329.175781 322.566406 C 314.578125 336.996094 300.042969 351.5 285.882812 366.355469 C 280.574219 371.925781 276.257812 378.460938 271.691406 384.707031 C 270.378906 386.5 269.402344 388.726562 268.902344 390.902344 C 267.339844 397.742188 273.363281 403.300781 279.8125 400.785156 C 283.796875 399.230469 287.75 397.15625 291.121094 394.550781 C 300.136719 387.578125 308.730469 380.070312 317.667969 372.996094 C 334.101562 359.984375 350.664062 347.132812 367.171875 334.210938 C 369.011719 332.769531 370.832031 331.308594 372.164062 330.25 C 361.648438 323.246094 351.660156 316.589844 343.195312 310.953125 Z M 340.34375 397.261719 C 340.773438 397.238281 341.472656 397.285156 342.136719 397.152344 C 355.960938 394.390625 369.847656 391.875 383.574219 388.675781 C 387.886719 387.671875 391.902344 385.046875 395.800781 382.738281 C 398.613281 381.074219 400.980469 378.371094 399.808594 374.8125 C 398.257812 370.113281 394.445312 367.105469 390.636719 364.09375 C 387.566406 361.667969 384.652344 362.8125 381.59375 363.441406 C 365.773438 366.703125 349.976562 370.078125 334.125 373.164062 C 330.65625 373.84375 329.089844 375.859375 327.988281 378.753906 C 324.027344 389.191406 329.226562 397.136719 340.34375 397.261719 Z M 329.210938 367.796875 C 329.628906 368.59375 330.050781 369.390625 330.46875 370.183594 C 332.136719 370.03125 333.855469 370.085938 335.46875 369.695312 C 351.871094 365.734375 368.265625 361.722656 384.644531 357.652344 C 387.292969 356.996094 389.976562 356.257812 392.429688 355.097656 C 399.257812 351.859375 400.828125 345.351562 396.453125 339.269531 C 391.574219 332.492188 381.648438 329.519531 376.15625 333.535156 C 361.601562 344.179688 347.1875 355.015625 332.699219 365.746094 C 331.621094 366.542969 330.378906 367.117188 329.210938 367.796875 Z M 329.210938 367.796875 " fill-opacity="1" fill-rule="nonzero"/></g></svg>