<svg xmlns="http://www.w3.org/2000/svg" xmlns:xlink="http://www.w3.org/1999/xlink" width="1024" zoomAndPan="magnify" viewBox="0 0 768 767.999994" height="1024" preserveAspectRatio="xMidYMid meet" version="1.0"><defs><clipPath id="7ed0206743"><path d="M 381 234 L 463 234 L 463 537.898438 L 381 537.898438 Z M 381 234 " clip-rule="nonzero"/></clipPath></defs><path fill="#fefefe" d="M 346.851562 248.925781 C 340.046875 276.90625 317.925781 297.699219 308.285156 324.542969 C 302.425781 340.992188 299.210938 372.183594 317.171875 382.957031 C 320.574219 385.039062 323.597656 381.066406 322.085938 378.042969 C 320.007812 373.316406 316.414062 369.535156 314.523438 364.621094 C 312.445312 359.328125 311.6875 353.46875 311.5 347.796875 C 311.5 335.128906 316.035156 323.03125 321.519531 311.878906 C 331.917969 291.460938 344.015625 272.179688 348.550781 249.304688 C 348.929688 248.171875 347.039062 247.792969 346.851562 248.925781 Z M 346.851562 248.925781 " fill-opacity="1" fill-rule="nonzero"/><path fill="#fefefe" d="M 323.21875 352.144531 C 317.550781 369.914062 325.867188 400.160156 347.796875 402.617188 C 350.632812 402.996094 351.578125 399.214844 349.875 397.324219 C 343.824219 390.898438 336.832031 387.117188 332.105469 379.175781 C 327.378906 371.046875 325.300781 361.972656 326.246094 352.523438 C 326.433594 350.820312 323.597656 350.632812 323.21875 352.144531 Z M 323.21875 352.144531 " fill-opacity="1" fill-rule="nonzero"/><path fill="#fefefe" d="M 353.277344 372.371094 C 349.6875 386.929688 348.550781 399.78125 353.84375 414.148438 C 358.003906 425.492188 364.808594 437.96875 376.71875 442.128906 C 381.445312 443.828125 383.335938 437.023438 379.933594 434.566406 C 361.972656 421.144531 353.65625 394.488281 354.035156 372.5625 C 354.035156 372.183594 353.277344 371.992188 353.277344 372.371094 Z M 353.277344 372.371094 " fill-opacity="1" fill-rule="nonzero"/><g clip-path="url(#7ed0206743)"><path fill="#fefefe" d="M 385.226562 409.992188 C 380.6875 445.34375 380.121094 481.261719 382.203125 516.800781 C 382.769531 525.117188 384.09375 537.59375 395.433594 537.027344 C 406.019531 536.460938 412.449219 523.605469 415.285156 515.097656 C 425.871094 483.90625 415.851562 449.5 422.277344 417.554688 C 425.679688 400.726562 434 385.792969 440.804688 370.292969 C 446.855469 356.492188 451.957031 342.3125 456.304688 327.945312 C 465.570312 297.132812 467.460938 261.023438 443.640625 236.261719 C 437.96875 230.398438 429.652344 240.230469 436.644531 245.335938 C 468.785156 269.152344 456.683594 314.902344 445.152344 346.285156 C 433.808594 376.152344 416.796875 402.996094 414.339844 435.511719 C 413.015625 452.902344 414.339844 470.296875 412.828125 487.6875 C 412.070312 495.816406 411.125 503.945312 408.480469 511.695312 C 406.398438 517.933594 395.625 537.027344 390.519531 522.09375 C 387.496094 513.207031 388.25 500.730469 387.683594 491.28125 C 387.117188 482.773438 386.925781 474.078125 386.738281 465.570312 C 386.359375 447.234375 386.925781 428.707031 388.0625 410.371094 C 388.25 408.101562 385.414062 408.289062 385.226562 409.992188 Z M 385.226562 409.992188 " fill-opacity="1" fill-rule="nonzero"/></g><path fill="#fefefe" d="M 448.367188 344.394531 C 441.371094 369.726562 440.050781 395.058594 443.261719 421.144531 C 444.019531 426.816406 444.773438 432.488281 446.097656 438.160156 C 447.234375 443.453125 452.148438 454.417969 442.695312 450.257812 C 431.164062 445.152344 430.597656 433.433594 424.546875 424.359375 C 423.035156 422.089844 420.011719 422.65625 419.066406 425.113281 C 411.882812 443.074219 450.257812 475.589844 456.683594 453.660156 C 458.386719 447.988281 455.738281 441.371094 454.417969 435.890625 C 451.957031 425.871094 450.257812 415.664062 449.3125 405.265625 C 447.609375 385.414062 448.554688 365 451.390625 345.339844 C 451.769531 343.257812 448.933594 342.503906 448.367188 344.394531 Z M 448.367188 344.394531 " fill-opacity="1" fill-rule="nonzero"/></svg>