<svg xmlns="http://www.w3.org/2000/svg" xmlns:xlink="http://www.w3.org/1999/xlink" width="1024" zoomAndPan="magnify" viewBox="0 0 768 767.999994" height="1024" preserveAspectRatio="xMidYMid meet" version="1.0"><path fill="#fefefe" d="M 428.089844 443.90625 C 424.996094 437.890625 419.492188 433.078125 415.023438 428.089844 C 410.210938 422.589844 405.398438 416.917969 401.097656 410.902344 C 392.675781 399.554688 383.050781 385.628906 378.921875 371.878906 C 375.3125 360.1875 383.566406 350.21875 394.222656 358.984375 C 399.894531 363.625 404.882812 369.472656 409.867188 374.800781 C 420.179688 385.972656 427.746094 397.664062 434.621094 411.074219 C 436.511719 414.855469 442.699219 412.277344 441.324219 408.152344 C 436.683594 392.851562 388.894531 323.574219 372.390625 356.234375 C 364.65625 371.707031 380.125 392.507812 388.378906 404.882812 C 393.535156 412.621094 399.207031 420.355469 405.398438 427.230469 C 411.414062 433.9375 418.117188 442.015625 426.714844 445.28125 C 427.917969 445.96875 428.605469 444.765625 428.089844 443.90625 Z M 428.089844 443.90625 " fill-opacity="1" fill-rule="nonzero"/><path fill="#fefefe" d="M 428.605469 534.84375 C 429.121094 504.417969 441.667969 476.914062 449.921875 448.03125 C 457.828125 419.667969 458.515625 389.757812 455.59375 360.53125 C 454.046875 345.921875 451.640625 331.480469 448.890625 317.039062 C 446.308594 303.632812 443.730469 289.878906 438.917969 277.160156 C 433.761719 264.4375 411.929688 231.085938 399.378906 256.359375 C 396.628906 261.859375 396.628906 268.390625 396.457031 274.40625 C 396.113281 282.832031 396.285156 291.253906 396.972656 299.679688 C 398.175781 316.523438 401.957031 332.855469 407.460938 348.671875 C 408.835938 352.625 414.851562 351.078125 413.820312 346.953125 C 409.523438 330.964844 406.773438 314.632812 405.398438 298.128906 C 404.710938 289.707031 404.367188 281.285156 404.710938 272.859375 C 404.882812 268.734375 404.367188 263.0625 406.773438 259.453125 C 412.273438 251.027344 417.945312 257.390625 421.382812 261 C 431.183594 271.3125 435.480469 285.582031 439.089844 298.820312 C 443.386719 314.976562 447 331.652344 449.234375 348.328125 C 453.53125 381.332031 452.84375 414.511719 443.730469 446.65625 C 435.480469 475.710938 421.554688 504.246094 424.132812 535.015625 C 424.476562 537.59375 428.433594 537.59375 428.605469 534.84375 Z M 428.605469 534.84375 " fill-opacity="1" fill-rule="nonzero"/><path fill="#fefefe" d="M 387.175781 349.703125 C 394.738281 338.527344 400.582031 322.371094 401.269531 308.960938 C 401.441406 307.070312 398.347656 306.039062 397.488281 307.929688 C 394.738281 314.117188 393.019531 320.652344 390.957031 327.011719 C 388.550781 334.058594 385.285156 340.933594 383.222656 347.984375 C 382.535156 350.390625 385.800781 351.59375 387.175781 349.703125 Z M 387.175781 349.703125 " fill-opacity="1" fill-rule="nonzero"/><path fill="#fefefe" d="M 420.523438 254.46875 C 424.132812 254.121094 424.476562 253.261719 426.714844 250.339844 C 430.496094 245.355469 440.121094 230.914062 445.105469 245.527344 C 448.71875 256.53125 441.667969 272.515625 436.167969 281.628906 C 433.933594 285.238281 439.777344 288.675781 441.839844 284.894531 C 446.65625 276.296875 449.75 267.1875 450.4375 257.390625 C 450.953125 250.855469 451.984375 240.199219 446.828125 234.871094 C 442.183594 230.398438 434.964844 231.945312 430.324219 235.558594 C 425.511719 239.339844 417.773438 247.933594 420.007812 254.121094 C 420.007812 254.292969 420.179688 254.46875 420.523438 254.46875 Z M 420.523438 254.46875 " fill-opacity="1" fill-rule="nonzero"/><path fill="#fefefe" d="M 385.800781 348.84375 C 387.519531 336.292969 371.703125 327.183594 360.703125 328.730469 C 353.996094 329.589844 347.808594 333.714844 344.714844 339.730469 C 340.589844 347.46875 343.339844 356.578125 345.917969 364.488281 C 348.839844 373.769531 352.792969 382.707031 356.746094 391.648438 C 360.359375 399.898438 363.796875 409.355469 369.984375 416.058594 C 377.890625 424.652344 392.847656 426.027344 397.832031 413.824219 C 399.207031 410.386719 393.363281 407.976562 391.816406 411.246094 C 385.457031 424.652344 372.390625 408.667969 368.953125 401.789062 C 363.796875 391.476562 358.984375 380.816406 355.199219 369.816406 C 351.761719 359.671875 344.542969 342.136719 358.636719 336.980469 C 370.84375 332.511719 375.65625 343.171875 383.566406 349.359375 C 384.253906 349.875 385.628906 349.875 385.800781 348.84375 Z M 385.800781 348.84375 " fill-opacity="1" fill-rule="nonzero"/><path fill="#fefefe" d="M 328.382812 393.539062 C 328.726562 406.601562 338.699219 423.792969 349.355469 431.359375 C 359.84375 438.75 372.21875 429.980469 374.625 418.808594 C 375.3125 415.714844 371.359375 414.167969 369.640625 416.746094 C 366.890625 420.871094 363.96875 428.605469 357.777344 428.089844 C 351.761719 427.574219 346.605469 420.355469 343.511719 415.886719 C 338.355469 408.496094 335.945312 400.414062 331.992188 392.507812 C 330.960938 390.960938 328.210938 391.820312 328.382812 393.539062 Z M 328.382812 393.539062 " fill-opacity="1" fill-rule="nonzero"/><path fill="#fefefe" d="M 345.402344 351.9375 C 333.539062 348.328125 322.710938 357.265625 317.210938 367.238281 C 309.472656 381.503906 309.988281 399.039062 311.535156 414.683594 C 313.253906 431.53125 317.039062 447.859375 320.476562 464.363281 C 324.429688 483.445312 326.320312 502.011719 325.632812 521.4375 C 325.460938 526.59375 333.023438 526.421875 333.367188 521.4375 C 336.117188 492.554688 326.835938 463.160156 321.851562 434.96875 C 319.273438 420.355469 317.382812 405.054688 318.757812 390.273438 C 320.476562 372.566406 328.382812 360.359375 345.230469 354.171875 C 346.433594 354 346.605469 352.453125 345.402344 351.9375 Z M 345.402344 351.9375 " fill-opacity="1" fill-rule="nonzero"/><path fill="#fefefe" d="M 398.347656 418.636719 C 385.628906 429.292969 363.453125 448.203125 369.46875 467.628906 C 370.5 470.722656 375.140625 471.066406 376 467.628906 C 378.234375 459.035156 378.578125 451.640625 383.222656 443.5625 C 388.035156 435.3125 394.566406 428.433594 401.097656 421.386719 C 403.164062 419.667969 400.410156 416.917969 398.347656 418.636719 Z M 398.347656 418.636719 " fill-opacity="1" fill-rule="nonzero"/><path fill="#fefefe" d="M 390.269531 428.089844 C 385.628906 437.71875 380.46875 455.941406 388.550781 465.050781 C 389.753906 466.425781 392.503906 465.738281 392.847656 463.847656 C 393.707031 458.519531 391.644531 453.535156 391.300781 448.203125 C 390.957031 441.84375 391.816406 435.484375 393.535156 429.464844 C 394.050781 427.574219 391.128906 426.199219 390.269531 428.089844 Z M 390.269531 428.089844 " fill-opacity="1" fill-rule="nonzero"/></svg>