<svg xmlns="http://www.w3.org/2000/svg" xmlns:xlink="http://www.w3.org/1999/xlink" width="1024" zoomAndPan="magnify" viewBox="0 0 768 767.999994" height="1024" preserveAspectRatio="xMidYMid meet" version="1.0"><path fill="#fefefe" d="M 290.183594 319.808594 C 290.425781 332.816406 295.484375 345.339844 304.152344 355.214844 C 310.65625 362.683594 322.460938 371.351562 331.851562 363.402344 C 341.246094 355.457031 339.320312 336.429688 337.875 325.832031 C 335.945312 312.824219 333.78125 294.035156 324.386719 283.921875 C 316.917969 275.972656 305.597656 274.769531 295.722656 278.621094 C 282.234375 283.921875 275.734375 297.410156 273.324219 310.898438 C 267.542969 343.894531 276.453125 378.335938 285.847656 409.648438 C 297.890625 449.148438 313.304688 487.929688 312.582031 529.835938 C 312.34375 537.0625 323.664062 537.0625 323.664062 529.835938 C 322.699219 468.417969 291.148438 413.742188 283.679688 353.527344 C 281.753906 338.835938 280.789062 322.457031 284.644531 308.007812 C 289.703125 289.460938 313.546875 275.007812 322.460938 299.578125 C 327.277344 313.066406 335.464844 337.152344 329.445312 350.878906 C 322.941406 366.054688 308.488281 349.195312 303.671875 341.484375 C 299.335938 334.742188 296.929688 326.792969 295.242188 318.84375 C 294.761719 316.195312 290.183594 316.917969 290.183594 319.808594 Z M 290.183594 319.808594 " fill-opacity="1" fill-rule="nonzero"/><path fill="#fefefe" d="M 326.070312 288.980469 C 331.128906 283.199219 336.1875 275.007812 343.414062 271.878906 C 356.421875 266.339844 364.851562 280.550781 367.257812 291.148438 C 370.871094 306.5625 381.226562 358.105469 347.988281 341.484375 C 341.488281 338.113281 336.429688 347.027344 342.210938 351.121094 C 353.046875 359.070312 368.945312 355.457031 376.410156 344.375 C 385.804688 330.164062 379.0625 306.5625 376.171875 291.148438 C 374.003906 279.105469 365.089844 261.28125 350.640625 260.316406 C 337.875 259.59375 324.625 275.730469 322.460938 286.8125 C 322.21875 288.738281 324.625 290.90625 326.070312 288.980469 Z M 326.070312 288.980469 " fill-opacity="1" fill-rule="nonzero"/><path fill="#fefefe" d="M 438.3125 533.449219 C 434.457031 512.015625 434.457031 493.46875 441.203125 472.511719 C 447.222656 453.484375 457.582031 436.382812 466.972656 419.042969 C 483.835938 388.453125 500.453125 353.046875 490.578125 317.398438 C 482.390625 287.050781 458.785156 269.710938 431.328125 257.910156 C 416.632812 251.644531 399.773438 244.421875 383.878906 250.683594 C 372.796875 255.019531 364.609375 264.652344 364.367188 276.9375 C 364.367188 293.796875 378.339844 304.875 390.382812 314.269531 C 410.132812 329.441406 415.671875 347.75 416.875 371.835938 C 417.355469 380.023438 430.363281 380.265625 429.882812 371.835938 C 428.917969 354.972656 426.992188 336.667969 417.597656 322.21875 C 407.964844 307.042969 387.730469 301.023438 379.785156 285.125 C 373.761719 272.839844 382.191406 263.449219 393.992188 261.519531 C 406.757812 259.351562 420.246094 265.132812 432.050781 269.46875 C 451.316406 276.453125 467.214844 287.535156 476.847656 306.078125 C 499.007812 349.195312 470.105469 394.476562 450.113281 432.289062 C 434.457031 461.433594 415.910156 503.34375 433.976562 535.617188 C 435.664062 537.546875 438.792969 535.859375 438.3125 533.449219 Z M 438.3125 533.449219 " fill-opacity="1" fill-rule="nonzero"/><path fill="#fefefe" d="M 408.445312 341.484375 C 404.832031 347.988281 400.738281 354.492188 396.402344 360.753906 C 392.546875 366.535156 387.492188 376.890625 379.542969 377.375 C 375.207031 377.613281 373.039062 383.636719 377.132812 385.804688 C 396.402344 395.921875 407.964844 354.492188 410.371094 342.449219 C 410.855469 341.246094 409.167969 340.28125 408.445312 341.484375 Z M 408.445312 341.484375 " fill-opacity="1" fill-rule="nonzero"/><path fill="#fefefe" d="M 372.074219 327.757812 C 374.484375 341.726562 397.847656 350.640625 408.6875 341.484375 C 410.371094 340.039062 408.925781 337.632812 407 337.632812 C 400.980469 337.632812 396.160156 338.597656 390.140625 336.429688 C 383.878906 334.261719 380.746094 329.683594 376.410156 325.347656 C 374.726562 323.179688 371.835938 325.347656 372.074219 327.757812 Z M 372.074219 327.757812 " fill-opacity="1" fill-rule="nonzero"/><path fill="#fefefe" d="M 413.023438 253.332031 C 426.75 246.105469 437.109375 235.75 453.246094 245.625 C 465.769531 253.089844 472.996094 265.617188 471.550781 280.308594 C 471.070312 285.125 479.257812 285.367188 479.257812 280.308594 C 479.5 262.003906 469.625 246.347656 453.246094 238.398438 C 437.109375 230.449219 421.453125 237.195312 411.335938 251.644531 C 410.613281 252.851562 412.058594 253.8125 413.023438 253.332031 Z M 413.023438 253.332031 " fill-opacity="1" fill-rule="nonzero"/><path fill="#fefefe" d="M 392.789062 305.355469 C 399.773438 304.636719 406.035156 301.984375 410.855469 296.925781 C 415.429688 292.109375 421.210938 283.199219 418.5625 276.214844 C 416.394531 270.191406 408.6875 270.433594 406.519531 276.214844 C 405.554688 278.621094 406.035156 281.03125 405.796875 283.679688 C 405.554688 286.328125 404.589844 288.980469 403.386719 291.148438 C 400.738281 295.964844 396.882812 299.578125 391.828125 301.984375 C 390.140625 302.707031 390.863281 305.597656 392.789062 305.355469 Z M 392.789062 305.355469 " fill-opacity="1" fill-rule="nonzero"/></svg>