<svg xmlns="http://www.w3.org/2000/svg" xmlns:xlink="http://www.w3.org/1999/xlink" width="1024" zoomAndPan="magnify" viewBox="0 0 768 767.999994" height="1024" preserveAspectRatio="xMidYMid meet" version="1.0"><defs><clipPath id="29f5940650"><path d="M 294.023438 248 L 352 248 L 352 561 L 294.023438 561 Z M 294.023438 248 " clip-rule="nonzero"/></clipPath></defs><g clip-path="url(#29f5940650)"><path fill="#fefefe" d="M 305.339844 559.621094 C 316.382812 538.503906 309.796875 516.609375 304.761719 494.71875 C 301.273438 479.414062 300.304688 465.078125 303.792969 449.769531 C 306.699219 436.792969 311.152344 424.390625 314.640625 411.605469 C 321.421875 386.226562 325.683594 360.265625 327.425781 334.109375 C 328.394531 321.324219 328.203125 308.34375 328.394531 295.558594 C 328.589844 285.675781 330.140625 252.355469 347.574219 256.808594 C 351.0625 257.777344 353.773438 252.355469 350.09375 250.609375 C 328.785156 240.34375 321.808594 277.539062 321.421875 290.90625 C 320.453125 322.488281 319.871094 353.097656 313.671875 384.289062 C 310.765625 399.398438 306.699219 414.125 302.242188 428.847656 C 298.367188 442.214844 294.296875 455.972656 294.492188 469.921875 C 294.6875 499.753906 312.703125 528.429688 302.242188 558.261719 C 301.660156 560.199219 304.566406 561.363281 305.339844 559.621094 Z M 305.339844 559.621094 " fill-opacity="1" fill-rule="nonzero"/></g><path fill="#fefefe" d="M 358.039062 349.996094 C 360.167969 327.910156 354.742188 304.664062 354.742188 282.382812 C 354.742188 272.117188 355.132812 261.652344 356.679688 251.578125 C 357.457031 246.15625 358.617188 240.730469 359.976562 235.304688 C 361.523438 229.492188 360.363281 228.71875 367.917969 229.492188 C 375.28125 230.269531 374.3125 230.851562 374.890625 237.242188 C 375.28125 241.3125 381.480469 241.3125 381.09375 237.242188 C 380.125 228.523438 377.023438 215.351562 365.398438 216.511719 C 353.582031 217.675781 351.644531 238.019531 350.289062 246.542969 C 347.574219 263.203125 347.382812 280.253906 348.351562 297.300781 C 349.320312 314.542969 350.09375 333.722656 355.710938 350.191406 C 356.292969 351.351562 358.039062 351.160156 358.039062 349.996094 Z M 358.039062 349.996094 " fill-opacity="1" fill-rule="nonzero"/><path fill="#fefefe" d="M 381.285156 337.015625 C 384 328.492188 382.253906 318.226562 382.253906 309.117188 C 382.253906 298.074219 382.449219 286.839844 383.03125 275.796875 C 383.609375 265.140625 384 254.484375 385.742188 244.023438 C 386.515625 238.988281 387.679688 234.144531 389.230469 229.300781 C 391.359375 222.90625 394.847656 215.933594 400.851562 223.875 C 405.890625 230.460938 407.632812 242.859375 409.378906 250.804688 C 411.507812 259.714844 413.253906 268.820312 414.609375 277.925781 C 417.707031 297.300781 419.257812 317.0625 419.839844 336.824219 C 420.03125 340.699219 425.84375 340.699219 425.84375 336.824219 C 426.039062 313.1875 423.519531 289.746094 418.675781 266.691406 C 416.546875 254.292969 413.058594 242.085938 408.988281 230.074219 C 406.859375 223.875 405.695312 213.800781 398.140625 211.863281 C 368.304688 204.695312 372.761719 322.097656 380.316406 337.015625 C 380.511719 337.40625 381.09375 337.40625 381.285156 337.015625 Z M 381.285156 337.015625 " fill-opacity="1" fill-rule="nonzero"/><path fill="#fefefe" d="M 416.546875 561.167969 C 416.933594 552.0625 416.738281 543.734375 419.453125 534.820312 C 421.96875 526.296875 425.652344 517.964844 429.140625 509.828125 C 435.917969 493.363281 442.699219 476.894531 449.09375 460.234375 C 459.941406 432.140625 473.699219 402.5 461.878906 372.472656 C 452.191406 347.867188 429.140625 329.269531 402.984375 326.363281 C 390.972656 325.003906 376.441406 326.554688 366.753906 334.886719 C 356.875 343.410156 364.625 353.097656 373.148438 358.910156 C 388.839844 369.371094 405.308594 374.214844 415.578125 391.261719 C 422.164062 402.304688 424.488281 416.0625 438.050781 420.710938 C 444.445312 422.84375 447.15625 412.769531 440.761719 410.636719 C 433.207031 408.117188 431.074219 398.820312 427.976562 392.425781 C 425.265625 386.613281 421.777344 381.382812 417.707031 376.539062 C 407.441406 364.527344 394.265625 359.492188 381.09375 351.351562 C 377.410156 349.027344 371.792969 346.898438 375.667969 341.667969 C 377.605469 338.761719 384.773438 337.597656 388.066406 337.015625 C 396.011719 335.46875 404.148438 336.046875 411.894531 337.984375 C 428.945312 341.859375 443.476562 352.710938 451.804688 368.207031 C 469.628906 401.335938 450.0625 437.179688 437.664062 468.757812 C 430.882812 485.804688 423.714844 502.660156 417.128906 519.710938 C 412.285156 532.496094 406.664062 549.351562 413.832031 562.136719 C 414.414062 563.300781 416.351562 562.71875 416.546875 561.167969 Z M 416.546875 561.167969 " fill-opacity="1" fill-rule="nonzero"/><path fill="#fefefe" d="M 384 415.480469 C 387.292969 406.957031 384.773438 395.332031 384 386.417969 C 383.222656 376.734375 383.609375 365.882812 380.511719 356.777344 C 379.929688 354.839844 376.441406 354.453125 376.054688 356.777344 C 374.503906 366.851562 377.023438 378.089844 377.992188 388.164062 C 378.960938 396.6875 378.574219 408.117188 383.222656 415.480469 C 383.417969 415.867188 383.804688 415.675781 384 415.480469 Z M 384 415.480469 " fill-opacity="1" fill-rule="nonzero"/><path fill="#fefefe" d="M 381.480469 331.011719 C 383.417969 324.230469 383.222656 311.445312 392.714844 310.667969 C 402.597656 309.699219 408.019531 320.355469 410.925781 328.105469 C 412.476562 331.980469 417.707031 330.429688 417.128906 326.363281 C 415.578125 314.929688 404.148438 301.5625 391.746094 303.113281 C 378.765625 304.664062 374.503906 320.160156 376.636719 331.011719 C 377.21875 333.53125 380.703125 333.140625 381.480469 331.011719 Z M 381.480469 331.011719 " fill-opacity="1" fill-rule="nonzero"/><path fill="#fefefe" d="M 371.40625 413.347656 C 358.8125 428.652344 349.320312 453.257812 348.351562 473.019531 C 348.15625 476.894531 353.96875 477.667969 355.132812 473.988281 C 357.84375 464.496094 359.199219 454.808594 362.300781 445.507812 C 365.785156 435.433594 371.019531 426.136719 375.28125 416.449219 C 376.25 414.125 373.34375 411.023438 371.40625 413.347656 Z M 371.40625 413.347656 " fill-opacity="1" fill-rule="nonzero"/><path fill="#fefefe" d="M 356.679688 438.726562 C 349.320312 440.664062 342.925781 447.058594 338.277344 452.871094 C 334.015625 458.101562 327.816406 466.046875 328.394531 473.214844 C 328.589844 475.730469 331.496094 477.089844 333.433594 475.34375 C 338.082031 470.695312 339.828125 463.140625 343.894531 457.910156 C 348.351562 452.097656 354.164062 447.835938 358.8125 442.214844 C 359.78125 440.664062 358.617188 438.148438 356.679688 438.726562 Z M 356.679688 438.726562 " fill-opacity="1" fill-rule="nonzero"/><path fill="#fefefe" d="M 391.359375 356.195312 C 397.945312 351.742188 400.851562 342.636719 395.621094 335.855469 C 392.328125 331.59375 384.96875 337.210938 388.066406 341.667969 C 389.421875 343.605469 390.777344 344.960938 391.167969 347.480469 C 391.746094 349.996094 391.167969 352.320312 389.617188 354.453125 C 389.035156 355.421875 390.390625 356.777344 391.359375 356.195312 Z M 391.359375 356.195312 " fill-opacity="1" fill-rule="nonzero"/></svg>