<svg xmlns="http://www.w3.org/2000/svg" xmlns:xlink="http://www.w3.org/1999/xlink" width="1024" zoomAndPan="magnify" viewBox="0 0 768 767.999994" height="1024" preserveAspectRatio="xMidYMid meet" version="1.0"><path fill="#fefefe" d="M 429.242188 519.398438 C 431.246094 491.183594 437.757812 463.96875 441.597656 436.085938 C 445.269531 409.542969 447.609375 382.496094 449.109375 355.78125 C 450.445312 330.574219 451.28125 303.023438 446.4375 278.148438 C 444.9375 271.304688 443.765625 258.113281 436.589844 254.609375 C 429.578125 250.933594 423.398438 257.613281 421.730469 263.957031 C 418.390625 276.980469 418.722656 292.171875 418.390625 305.53125 C 417.890625 320.554688 417.222656 336.75 420.058594 351.441406 C 420.726562 355.28125 426.40625 354.113281 426.570312 350.605469 C 427.070312 335.746094 425.234375 320.554688 425.234375 305.53125 C 425.234375 298.515625 425.402344 291.503906 425.738281 284.660156 C 425.902344 280.988281 426.070312 277.148438 426.40625 273.472656 C 426.570312 270.46875 427.070312 252.773438 437.757812 263.789062 C 439.425781 265.460938 439.761719 271.46875 440.261719 273.808594 C 441.097656 277.980469 441.597656 282.15625 442.265625 286.328125 C 443.101562 292.675781 443.933594 299.183594 444.269531 305.695312 C 445.101562 320.222656 445.101562 334.746094 444.9375 349.4375 C 444.601562 380.15625 441.597656 409.542969 435.921875 439.761719 C 430.910156 465.972656 422.730469 493.019531 426.90625 520.066406 C 426.738281 521.402344 429.242188 520.898438 429.242188 519.398438 Z M 429.242188 519.398438 " fill-opacity="1" fill-rule="nonzero"/><path fill="#fefefe" d="M 423.734375 279.652344 C 430.410156 268.132812 427.90625 250.265625 419.558594 240.25 C 411.378906 230.398438 398.523438 234.238281 394.183594 245.59375 C 391.175781 253.273438 391.34375 262.457031 390.507812 270.46875 C 389.507812 280.988281 388.671875 291.339844 388.003906 301.855469 C 386.835938 323.058594 385.332031 345.097656 386.667969 366.46875 C 387.003906 370.640625 392.847656 370.640625 393.179688 366.46875 C 395.519531 338.417969 395.683594 310.035156 397.6875 281.988281 C 398.1875 274.808594 398.691406 267.628906 399.359375 260.453125 C 399.859375 254.273438 402.53125 232.738281 414.382812 245.761719 C 422.398438 254.609375 419.390625 268.464844 421.0625 279.152344 C 421.394531 280.484375 423.066406 280.484375 423.734375 279.652344 Z M 423.734375 279.652344 " fill-opacity="1" fill-rule="nonzero"/><path fill="#fefefe" d="M 329.238281 374.3125 C 316.714844 396.019531 317.71875 422.398438 321.722656 446.273438 C 326.230469 473.820312 336.917969 503.371094 331.910156 531.25 C 331.074219 535.59375 336.25 537.59375 338.753906 534.089844 C 345.097656 525.40625 342.09375 512.386719 340.757812 502.703125 C 338.753906 488.679688 335.914062 474.652344 332.910156 460.796875 C 326.734375 432.75 322.726562 404.53125 334.414062 377.320312 C 335.914062 373.8125 331.242188 370.808594 329.238281 374.3125 Z M 329.238281 374.3125 " fill-opacity="1" fill-rule="nonzero"/><path fill="#fefefe" d="M 327.902344 383.328125 C 332.578125 378.152344 337.585938 375.484375 343.429688 380.992188 C 346.933594 384.332031 349.9375 388.339844 352.445312 392.34375 C 356.953125 399.691406 360.289062 408.039062 361.792969 416.554688 C 362.628906 420.894531 362.960938 425.234375 362.792969 429.574219 C 362.628906 433.417969 363.460938 435.253906 359.621094 436.421875 C 355.617188 437.757812 355.449219 435.585938 353.277344 432.75 C 347.101562 423.898438 341.757812 414.550781 335.582031 405.535156 C 332.910156 401.527344 326.734375 405.035156 329.070312 409.375 C 334.078125 418.222656 339.589844 426.90625 345.097656 435.585938 C 348.269531 440.761719 351.941406 446.605469 358.621094 447.441406 C 373.480469 449.277344 372.3125 428.574219 371.140625 419.226562 C 369.304688 404.699219 363.128906 391.175781 353.277344 380.15625 C 349.273438 375.648438 343.929688 369.972656 337.25 371.140625 C 331.742188 371.976562 328.570312 377.488281 325.730469 381.828125 C 325.0625 382.996094 326.898438 384.332031 327.902344 383.328125 Z M 327.902344 383.328125 " fill-opacity="1" fill-rule="nonzero"/><path fill="#fefefe" d="M 348.269531 376.652344 C 352.777344 366.46875 344.429688 353.445312 354.28125 344.597656 C 360.957031 338.585938 369.808594 342.09375 374.148438 348.9375 C 377.488281 353.945312 377.820312 360.125 378.988281 365.800781 C 380.15625 371.476562 388.839844 369.140625 387.671875 363.460938 C 385 349.773438 373.144531 330.574219 356.617188 337.417969 C 343.59375 342.925781 335.414062 365.800781 345.265625 377.152344 C 345.933594 377.820312 347.769531 377.652344 348.269531 376.652344 Z M 348.269531 376.652344 " fill-opacity="1" fill-rule="nonzero"/><path fill="#fefefe" d="M 370.640625 425.402344 C 370.808594 433.582031 386.167969 433.582031 385.667969 425.402344 C 385.5 423.398438 383.496094 422.730469 381.996094 423.898438 C 379.15625 426.070312 376.152344 426.90625 373.3125 424.234375 C 372.476562 423.398438 370.640625 424.066406 370.640625 425.402344 Z M 370.640625 425.402344 " fill-opacity="1" fill-rule="nonzero"/><path fill="#fefefe" d="M 418.722656 403.363281 C 402.027344 393.179688 396.6875 372.144531 380.992188 361.125 C 371.308594 354.28125 353.113281 354.28125 352.609375 369.804688 C 352.445312 377.320312 358.621094 384.5 362.792969 390.34375 C 368.472656 398.1875 374.648438 405.867188 379.15625 414.550781 C 386 427.40625 388.003906 448.941406 406.871094 448.941406 C 411.878906 448.941406 411.710938 440.761719 406.871094 441.261719 C 392.179688 442.765625 387.839844 419.894531 381.328125 410.210938 C 374.316406 399.523438 364.464844 389.171875 361.625 376.316406 C 358.621094 362.960938 370.476562 364.128906 377.488281 370.308594 C 382.664062 374.816406 386.335938 380.660156 390.34375 386 C 397.6875 395.683594 406.535156 400.691406 416.886719 406.535156 C 418.890625 407.539062 420.5625 404.53125 418.722656 403.363281 Z M 418.722656 403.363281 " fill-opacity="1" fill-rule="nonzero"/><path fill="#fefefe" d="M 371.644531 431.914062 C 372.3125 439.425781 372.3125 446.605469 369.972656 453.953125 C 367.804688 460.796875 362.460938 465.636719 360.289062 472.148438 C 359.121094 475.488281 363.128906 477.492188 365.800781 476.324219 C 373.3125 472.984375 376.984375 462.632812 378.65625 455.121094 C 380.324219 446.9375 379.65625 438.589844 376.316406 430.910156 C 375.148438 428.574219 371.476562 429.574219 371.644531 431.914062 Z M 371.644531 431.914062 " fill-opacity="1" fill-rule="nonzero"/><path fill="#fefefe" d="M 404.867188 392.847656 C 404.867188 392.847656 404.867188 392.679688 404.867188 392.847656 C 404.699219 392.679688 404.699219 392.847656 404.867188 392.847656 Z M 404.867188 392.847656 " fill-opacity="1" fill-rule="nonzero"/><path fill="#fefefe" d="M 405.703125 394.515625 C 412.214844 390.175781 419.558594 386 424.902344 380.15625 C 426.40625 378.488281 424.566406 376.152344 422.5625 376.984375 C 415.386719 380.324219 409.207031 386.167969 403.199219 391.007812 C 401.195312 392.679688 403.699219 395.851562 405.703125 394.515625 Z M 405.703125 394.515625 " fill-opacity="1" fill-rule="nonzero"/><path fill="#fefefe" d="M 363.628906 387.503906 C 367.636719 387.503906 371.808594 385.167969 374.148438 381.996094 C 375.816406 379.65625 371.476562 377.320312 370.476562 379.824219 C 369.808594 381.328125 369.472656 382.496094 367.96875 383.496094 C 366.636719 384.5 365.132812 385 363.628906 385.167969 C 362.128906 385.332031 362.128906 387.503906 363.628906 387.503906 Z M 363.628906 387.503906 " fill-opacity="1" fill-rule="nonzero"/></svg>