<svg xmlns="http://www.w3.org/2000/svg" xmlns:xlink="http://www.w3.org/1999/xlink" width="1024" zoomAndPan="magnify" viewBox="0 0 768 767.999994" height="1024" preserveAspectRatio="xMidYMid meet" version="1.0"><defs><clipPath id="59c1ec9f20"><path d="M 346 237 L 465.671875 237 L 465.671875 393 L 346 393 Z M 346 237 " clip-rule="nonzero"/></clipPath></defs><g clip-path="url(#59c1ec9f20)"><path fill="#fefefe" d="M 371.796875 371.710938 C 365.65625 338.945312 355.246094 307.035156 354.390625 273.417969 C 354.222656 265.910156 354.734375 258.058594 357.121094 250.890625 C 357.632812 249.527344 358.144531 248.160156 358.828125 246.796875 C 360.875 246.796875 362.925781 246.796875 364.972656 246.964844 C 366.167969 247.820312 367.359375 252.425781 367.703125 253.621094 C 369.238281 257.886719 370.433594 262.15625 371.796875 266.421875 C 377.089844 282.972656 382.71875 299.355469 388.691406 315.738281 C 391.59375 323.589844 394.324219 331.609375 397.222656 339.457031 C 398.761719 343.894531 400.125 351.746094 404.390625 354.816406 C 414.289062 362.15625 419.238281 342.699219 421.457031 337.238281 C 427.769531 321.027344 434.085938 304.644531 440.398438 288.433594 C 443.300781 281.097656 446.03125 273.757812 448.929688 266.421875 C 449.441406 264.882812 450.125 263.519531 450.636719 261.984375 C 453.367188 262.667969 456.097656 263.179688 458.828125 263.859375 C 459.851562 264.714844 460.023438 271.882812 460.023438 271.199219 C 460.195312 274.953125 460.195312 278.535156 460.023438 282.121094 C 457.292969 318.980469 445.519531 354.644531 426.917969 386.558594 C 424.527344 390.652344 431.183594 394.578125 433.402344 390.3125 C 450.125 358.742188 461.386719 323.589844 464.632812 287.921875 C 465.3125 280.242188 465.824219 272.734375 463.4375 265.398438 C 462.070312 261.128906 460.195312 253.792969 454.734375 253.109375 C 451.148438 252.769531 448.417969 255.5 446.710938 258.230469 C 441.933594 265.738281 439.375 275.292969 436.132812 283.484375 C 428.113281 303.453125 420.433594 323.417969 412.070312 343.210938 C 410.875 345.941406 411.046875 348.84375 407.464844 346.96875 C 406.953125 346.625 405.246094 340.652344 405.246094 340.652344 C 403.539062 335.875 402.003906 331.097656 400.296875 326.316406 C 396.882812 316.25 393.300781 306.183594 389.886719 296.113281 C 386.472656 286.558594 383.230469 277 379.648438 267.613281 C 376.574219 259.59375 374.527344 249.867188 369.75 242.699219 C 361.558594 230.753906 352.515625 242.699219 349.785156 251.746094 C 344.152344 270.6875 348.078125 292.359375 351.492188 311.300781 C 355.246094 332.121094 360.195312 353.621094 369.75 372.5625 C 370.433594 373.757812 371.96875 372.90625 371.796875 371.710938 Z M 371.796875 371.710938 " fill-opacity="1" fill-rule="nonzero"/></g><path fill="#fefefe" d="M 439.546875 368.640625 C 437.839844 381.609375 438.691406 394.917969 437.839844 408.058594 C 436.984375 421.882812 435.621094 435.875 433.402344 449.527344 C 431.355469 462.496094 428.625 475.292969 425.382812 488.09375 C 422.308594 500.039062 419.238281 511.644531 420.089844 523.929688 C 420.433594 528.367188 427.601562 528.367188 427.089844 523.929688 C 425.894531 509.9375 430.160156 496.796875 433.402344 483.484375 C 436.472656 470.515625 438.863281 457.546875 440.570312 444.40625 C 443.8125 420.347656 447.566406 392.359375 442.277344 368.296875 C 441.933594 366.589844 439.714844 367.101562 439.546875 368.640625 Z M 439.546875 368.640625 " fill-opacity="1" fill-rule="nonzero"/><path fill="#fefefe" d="M 364.972656 358.570312 C 360.535156 350.039062 348.078125 347.820312 340.738281 353.621094 C 329.988281 362.15625 333.0625 379.21875 335.960938 390.652344 C 339.035156 402.941406 362.070312 455.671875 381.011719 436.046875 C 383.914062 432.972656 379.988281 427.171875 376.234375 429.902344 C 363.777344 438.605469 347.566406 402.085938 345.007812 394.066406 C 342.617188 386.726562 340.570312 378.707031 340.910156 371.027344 C 341.25 363.347656 345.175781 356.183594 354.050781 357.71875 C 357.292969 358.230469 360.023438 360.105469 363.09375 361.128906 C 364.460938 361.472656 365.484375 359.765625 364.972656 358.570312 Z M 364.972656 358.570312 " fill-opacity="1" fill-rule="nonzero"/><path fill="#fefefe" d="M 424.015625 424.101562 C 421.117188 414.203125 412.582031 404.304688 406.609375 395.941406 C 401.148438 388.433594 394.496094 382.972656 386.304688 378.707031 C 373.164062 371.710938 350.636719 364.714844 342.445312 382.972656 C 334.765625 400.210938 357.464844 411.984375 367.019531 422.050781 C 374.699219 430.242188 379.136719 439.628906 385.277344 448.84375 C 389.714844 455.671875 396.199219 460.960938 404.734375 459.765625 C 410.363281 459.082031 410.363281 450.210938 404.734375 450.890625 C 395.007812 452.257812 391.421875 441.507812 387.328125 434.679688 C 384.253906 429.5625 380.671875 424.613281 376.917969 420.003906 C 372.652344 415.054688 367.871094 410.449219 362.925781 406.351562 C 357.804688 402.085938 349.613281 396.96875 349.613281 389.457031 C 349.785156 376.832031 365.996094 378.195312 374.1875 381.097656 C 381.355469 383.65625 388.691406 387.238281 394.496094 392.1875 C 405.414062 401.574219 410.023438 417.273438 421.457031 425.976562 C 422.652344 427 424.527344 425.464844 424.015625 424.101562 Z M 424.015625 424.101562 " fill-opacity="1" fill-rule="nonzero"/><path fill="#fefefe" d="M 324.527344 419.832031 C 324.871094 427.683594 329.304688 435.363281 333.402344 442.019531 C 336.984375 447.648438 341.25 454.304688 347.738281 456.695312 C 358.828125 460.789062 371.457031 446.113281 366.335938 435.703125 C 365.484375 433.828125 362.414062 434.339844 362.070312 436.214844 C 361.21875 439.800781 360.707031 445.089844 357.976562 447.648438 C 353.367188 451.746094 349.273438 451.0625 345.007812 447.136719 C 343.128906 445.261719 341.421875 443.042969 340.058594 440.996094 C 335.109375 433.996094 332.546875 425.976562 327.941406 418.980469 C 326.917969 417.617188 324.527344 418.128906 324.527344 419.832031 Z M 324.527344 419.832031 " fill-opacity="1" fill-rule="nonzero"/><path fill="#fefefe" d="M 338.519531 383.484375 C 327.941406 379.050781 317.019531 386.046875 311.898438 395.429688 C 305.074219 407.71875 305.414062 423.757812 307.464844 437.410156 C 312.753906 471.539062 343.640625 497.136719 341.933594 532.460938 C 341.761719 537.242188 348.589844 536.898438 349.101562 532.460938 C 352.003906 505.839844 333.914062 484.511719 323.164062 461.984375 C 313.777344 442.359375 302.171875 387.921875 338.007812 387.753906 C 340.570312 387.582031 340.738281 384.339844 338.519531 383.484375 Z M 338.519531 383.484375 " fill-opacity="1" fill-rule="nonzero"/><path fill="#fefefe" d="M 344.492188 439.628906 C 345.175781 439.117188 345.859375 438.605469 346.371094 437.921875 C 346.710938 437.410156 347.222656 437.070312 347.738281 436.726562 C 348.417969 436.214844 349.101562 436.046875 349.785156 435.703125 C 350.636719 435.363281 350.980469 434.851562 351.660156 434.339844 C 352.515625 433.65625 352.34375 431.78125 351.320312 431.265625 C 348.761719 430.074219 346.542969 430.925781 344.492188 432.632812 C 342.617188 434.167969 341.421875 436.046875 341.761719 438.605469 C 342.105469 439.628906 343.640625 440.3125 344.492188 439.628906 Z M 344.492188 439.628906 " fill-opacity="1" fill-rule="nonzero"/><path fill="#fefefe" d="M 356.269531 406.183594 C 364.628906 408.914062 371.96875 401.234375 371.457031 392.871094 C 371.117188 387.582031 362.925781 387.75 363.265625 392.871094 C 363.605469 397.480469 360.195312 402.597656 355.925781 404.304688 C 355.246094 404.816406 355.585938 406.011719 356.269531 406.183594 Z M 356.269531 406.183594 " fill-opacity="1" fill-rule="nonzero"/><path fill="#fefefe" d="M 382.890625 436.558594 C 374.871094 440.3125 369.921875 445.773438 366.507812 453.792969 C 363.09375 461.984375 359.851562 474.78125 362.582031 483.484375 C 363.09375 485.191406 366.167969 486.046875 367.019531 483.996094 C 370.261719 476.488281 369.066406 467.617188 370.945312 459.765625 C 372.992188 451.574219 377.089844 443.042969 383.402344 437.238281 C 383.914062 436.898438 383.402344 436.386719 382.890625 436.558594 Z M 382.890625 436.558594 " fill-opacity="1" fill-rule="nonzero"/></svg>