<svg xmlns="http://www.w3.org/2000/svg" xmlns:xlink="http://www.w3.org/1999/xlink" width="1024" zoomAndPan="magnify" viewBox="0 0 768 767.999994" height="1024" preserveAspectRatio="xMidYMid meet" version="1.0"><path fill="#fefefe" d="M 328.917969 392.183594 C 332.109375 401.964844 340.617188 409.835938 348.484375 416.003906 C 354.4375 420.46875 363.582031 427.910156 371.664062 425.148438 C 379.535156 422.59375 382.9375 412.597656 383.148438 405.15625 C 383.574219 394.523438 378.894531 384.316406 373.578125 375.171875 C 370.8125 370.277344 363.796875 374.53125 366.136719 379.421875 C 369.113281 385.378906 372.515625 391.546875 373.792969 398.136719 C 374.429688 401.753906 374.640625 405.582031 373.578125 409.195312 C 371.878906 415.152344 365.710938 416.003906 360.820312 414.300781 C 348.910156 410.472656 341.464844 397.714844 332.535156 389.84375 C 331.046875 388.78125 328.28125 390.058594 328.917969 392.183594 Z M 328.917969 392.183594 " fill-opacity="1" fill-rule="nonzero"/><path fill="#fefefe" d="M 332.320312 359.21875 C 316.160156 354.96875 307.441406 372.191406 304.464844 385.589844 C 299.570312 408.347656 301.910156 432.378906 304.464844 455.34375 C 308.078125 487.457031 325.089844 536.582031 366.5625 531.480469 C 372.726562 530.839844 372.941406 521.910156 366.5625 521.695312 C 330.832031 520.421875 318.074219 485.96875 314.246094 455.34375 C 312.332031 440.03125 310.84375 424.296875 311.269531 408.773438 C 311.695312 391.546875 312.96875 369.855469 332.535156 363.898438 C 334.660156 363.261719 334.660156 359.859375 332.320312 359.21875 Z M 332.320312 359.21875 " fill-opacity="1" fill-rule="nonzero"/><path fill="#fefefe" d="M 339.550781 520.421875 C 339.128906 527.652344 340.191406 534.667969 339.976562 541.898438 C 339.765625 549.128906 338.703125 556.148438 338.0625 563.378906 C 337.851562 567.632812 344.871094 568.695312 345.71875 564.441406 C 348.484375 550.832031 348.695312 533.179688 344.65625 519.78125 C 343.59375 517.019531 339.550781 517.65625 339.550781 520.421875 Z M 339.550781 520.421875 " fill-opacity="1" fill-rule="nonzero"/><path fill="#fefefe" d="M 422.492188 568.695312 C 421.214844 541.046875 429.722656 518.082031 439.503906 492.5625 C 448.222656 469.59375 455.667969 444.925781 446.308594 421.105469 C 436.101562 395.375 415.046875 368.152344 393.355469 350.925781 C 377.621094 338.378906 341.679688 327.109375 329.769531 351.140625 C 324.667969 361.347656 329.769531 372.832031 338.277344 379.421875 C 351.25 389.632812 368.898438 385.164062 383.148438 380.914062 C 389.316406 379 386.550781 369.640625 380.597656 371.34375 C 372.726562 373.683594 364.222656 376.445312 355.714844 375.808594 C 345.933594 374.957031 331.472656 365.175781 339.550781 353.902344 C 350.609375 338.804688 376.128906 349.4375 387.402344 357.945312 C 400.375 367.726562 411.21875 380.699219 420.578125 393.671875 C 429.085938 405.367188 438.441406 418.339844 441.632812 432.800781 C 447.160156 457.683594 435.25 482.566406 426.746094 505.109375 C 419.300781 524.671875 410.796875 549.128906 420.789062 569.546875 C 421.214844 569.972656 422.492188 569.546875 422.492188 568.695312 Z M 422.492188 568.695312 " fill-opacity="1" fill-rule="nonzero"/><path fill="#fefefe" d="M 364.222656 445.988281 C 360.820312 457.898438 357.628906 476.1875 369.539062 484.90625 C 372.515625 487.03125 376.554688 483.417969 375.492188 480.226562 C 374.003906 474.910156 369.964844 470.871094 368.261719 465.765625 C 366.136719 459.8125 364.648438 452.792969 365.921875 446.625 C 366.347656 445.351562 364.648438 444.925781 364.222656 445.988281 Z M 364.222656 445.988281 " fill-opacity="1" fill-rule="nonzero"/><path fill="#fefefe" d="M 352.523438 341.355469 C 348.058594 324.980469 340.828125 309.457031 336.789062 292.871094 C 334.875 285 333.597656 276.917969 332.960938 268.625 C 332.746094 265.859375 329.558594 240.339844 337.851562 243.53125 C 339.765625 244.167969 343.167969 252.039062 344.230469 253.953125 C 346.359375 257.78125 348.273438 261.820312 350.1875 265.859375 C 354.015625 274.15625 356.992188 282.875 359.753906 291.378906 C 365.285156 308.179688 368.261719 326.046875 373.792969 342.632812 C 375.707031 347.949219 382.9375 345.824219 382.085938 340.292969 C 378.683594 316.902344 371.027344 292.65625 362.09375 270.964844 C 357.839844 260.757812 347.207031 228.007812 330.832031 233.75 C 323.816406 236.300781 323.390625 243.742188 323.175781 250.125 C 322.753906 260.96875 323.601562 271.816406 325.515625 282.449219 C 328.917969 303.289062 335.511719 326.683594 350.609375 342.207031 C 351.460938 343.484375 352.738281 342.421875 352.523438 341.355469 Z M 352.523438 341.355469 " fill-opacity="1" fill-rule="nonzero"/><path fill="#fefefe" d="M 381.871094 345.824219 C 381.660156 323.707031 377.195312 301.589844 376.769531 279.472656 C 376.34375 259.480469 374.640625 231.195312 385.699219 213.546875 C 388.464844 209.078125 388.679688 207.164062 393.570312 210.355469 C 397.609375 213.121094 397.824219 214.183594 399.097656 218.648438 C 400.585938 223.753906 401.863281 229.070312 403.140625 234.175781 C 406.117188 246.296875 408.457031 258.628906 409.945312 270.964844 C 412.710938 293.71875 413.558594 316.6875 412.921875 339.441406 C 412.710938 345.183594 421.855469 345.183594 422.066406 339.441406 C 422.277344 309.246094 418.664062 279.898438 412.921875 250.335938 C 410.371094 236.9375 408.242188 221.203125 402.714844 208.441406 C 400.160156 202.699219 395.484375 198.019531 389.101562 200.785156 C 370.390625 209.078125 370.175781 244.59375 369.324219 261.183594 C 367.625 288.402344 367.410156 321.152344 378.46875 346.671875 C 379.320312 348.375 381.871094 347.523438 381.871094 345.824219 Z M 381.871094 345.824219 " fill-opacity="1" fill-rule="nonzero"/><path fill="#fefefe" d="M 419.515625 343.695312 C 424.617188 333.277344 424.191406 319.453125 425.46875 307.96875 C 427.171875 294.144531 429.085938 280.109375 432.488281 266.5 C 434.1875 259.90625 436.101562 253.3125 438.867188 246.933594 C 440.992188 242.042969 446.734375 228.644531 452.691406 227.582031 C 458.21875 226.730469 459.921875 233.960938 460.347656 237.578125 C 460.769531 240.980469 461.195312 244.167969 461.195312 247.570312 C 461.410156 253.953125 460.984375 260.542969 460.347656 266.925781 C 457.792969 293.507812 451.839844 319.664062 446.949219 345.824219 C 442.269531 369.640625 436.101562 395.375 437.804688 419.828125 C 438.230469 424.933594 445.035156 424.722656 445.671875 419.828125 C 447.375 403.03125 448.4375 386.441406 450.988281 369.855469 C 453.539062 353.480469 456.730469 337.105469 459.496094 320.515625 C 464.386719 291.378906 468.425781 260.117188 465.449219 230.558594 C 464.597656 221.839844 458.433594 217.800781 450.136719 221.625 C 440.355469 226.09375 434.402344 238.640625 430.574219 247.996094 C 424.40625 263.097656 421.214844 279.472656 418.875 295.421875 C 416.75 309.882812 412.921875 329.449219 417.601562 343.484375 C 418.238281 344.121094 419.300781 344.335938 419.515625 343.695312 Z M 419.515625 343.695312 " fill-opacity="1" fill-rule="nonzero"/></svg>