<svg xmlns="http://www.w3.org/2000/svg" xmlns:xlink="http://www.w3.org/1999/xlink" width="1024" zoomAndPan="magnify" viewBox="0 0 768 767.999994" height="1024" preserveAspectRatio="xMidYMid meet" version="1.0"><path fill="#fefefe" d="M 376.1875 347.597656 C 379.117188 363.601562 368.578125 377.65625 361.941406 391.511719 C 356.867188 402.441406 351.011719 413.371094 346.523438 424.691406 C 340.472656 440.304688 342.230469 465.871094 363.894531 467.433594 C 384.582031 468.992188 389.460938 440.304688 396.097656 426.640625 C 406.636719 404.589844 420.882812 385.65625 437.863281 368.089844 C 442.742188 363.015625 435.324219 355.601562 430.25 360.480469 C 416.980469 373.359375 405.464844 388.390625 396.097656 404.394531 C 391.605469 412.199219 387.507812 420.203125 383.996094 428.398438 C 380.679688 436.402344 378.53125 448.109375 372.089844 454.355469 C 366.625 459.625 359.210938 456.699219 355.304688 450.84375 C 351.597656 445.183594 352.183594 437.960938 353.550781 431.714844 C 355.695312 421.566406 360.769531 411.808594 364.675781 402.246094 C 371.503906 385.460938 383.019531 365.164062 379.703125 346.621094 C 379.117188 344.476562 375.796875 345.453125 376.1875 347.597656 Z M 376.1875 347.597656 " fill-opacity="1" fill-rule="nonzero"/><path fill="#fefefe" d="M 304.757812 390.535156 C 302.804688 409.46875 302.023438 437.765625 315.101562 453.378906 C 320.175781 459.234375 327.59375 462.75 335.007812 459.429688 C 343.597656 455.722656 346.523438 446.550781 351.402344 439.328125 C 354.523438 434.839844 347.5 429.375 343.792969 433.472656 C 340.082031 437.765625 338.328125 444.597656 333.835938 447.914062 C 323.6875 455.527344 317.636719 442.449219 314.90625 434.449219 C 310.027344 420.007812 311.199219 405.5625 310.417969 390.535156 C 310.222656 386.828125 305.148438 387.023438 304.757812 390.535156 Z M 304.757812 390.535156 " fill-opacity="1" fill-rule="nonzero"/><path fill="#fefefe" d="M 361.941406 385.65625 C 356.085938 384.09375 348.867188 389.753906 344.570312 393.269531 C 339.300781 397.367188 333.253906 402.832031 330.910156 409.273438 C 329.347656 413.371094 334.8125 415.515625 337.546875 413.175781 C 342.230469 409.078125 345.351562 403.613281 350.230469 399.511719 C 354.136719 396.195312 361.160156 393.464844 363.308594 388.78125 C 363.699219 387.609375 363.308594 386.046875 361.941406 385.65625 Z M 361.941406 385.65625 " fill-opacity="1" fill-rule="nonzero"/><path fill="#fefefe" d="M 339.496094 409.664062 C 341.058594 403.417969 340.472656 395.414062 335.984375 390.339844 C 334.03125 388.195312 330.128906 389.753906 330.128906 392.683594 C 330.324219 395.609375 331.300781 398.34375 332.082031 401.074219 C 332.863281 403.808594 333.445312 406.734375 334.226562 409.664062 C 334.8125 412.199219 338.910156 412.394531 339.496094 409.664062 Z M 339.496094 409.664062 " fill-opacity="1" fill-rule="nonzero"/><path fill="#fefefe" d="M 273.921875 387.414062 C 288.753906 388.585938 303 393.074219 317.636719 394.632812 C 333.058594 396.195312 348.476562 396.195312 364.089844 394.632812 C 370.722656 394.050781 370.722656 383.507812 364.089844 384.289062 C 347.5 385.851562 330.714844 386.046875 313.929688 384.289062 C 300.464844 382.925781 285.628906 377.265625 272.75 383.703125 C 270.796875 384.484375 271.96875 387.21875 273.921875 387.414062 Z M 273.921875 387.414062 " fill-opacity="1" fill-rule="nonzero"/><path fill="#fefefe" d="M 368.773438 378.433594 C 361.160156 372.96875 355.5 364.96875 347.890625 359.699219 C 345.742188 358.136719 343.207031 360.675781 343.792969 362.820312 C 346.328125 373.359375 357.648438 379.605469 367.210938 382.144531 C 369.554688 382.925781 370.527344 379.800781 368.773438 378.433594 Z M 368.773438 378.433594 " fill-opacity="1" fill-rule="nonzero"/><path fill="#fefefe" d="M 416.589844 392.878906 C 425.371094 395.804688 434.152344 396.585938 442.9375 393.074219 C 449.769531 390.339844 459.917969 383.898438 459.917969 375.703125 C 459.917969 371.996094 456.207031 370.433594 453.085938 371.800781 C 447.621094 374.140625 444.5 380.777344 439.035156 384.09375 C 432.59375 387.804688 424.980469 390.339844 417.566406 389.363281 C 415.222656 388.972656 414.246094 392.097656 416.589844 392.878906 Z M 416.589844 392.878906 " fill-opacity="1" fill-rule="nonzero"/><path fill="#fefefe" d="M 385.363281 446.550781 C 396.875 456.113281 413.074219 447.71875 420.882812 437.179688 C 427.910156 427.617188 433.957031 405.757812 421.664062 397.953125 C 419.125 396.390625 415.417969 398.539062 415.613281 401.464844 C 415.808594 405.5625 417.761719 408.882812 418.34375 412.980469 C 418.929688 418.054688 417.761719 423.324219 415.613281 428.007812 C 411.125 437.179688 399.609375 449.867188 388.484375 442.449219 C 386.144531 440.695312 383.214844 444.597656 385.363281 446.550781 Z M 385.363281 446.550781 " fill-opacity="1" fill-rule="nonzero"/><path fill="#fefefe" d="M 432.59375 416.6875 C 444.304688 426.835938 433.375 443.816406 424.980469 452.597656 C 420.296875 457.480469 414.636719 461.382812 407.804688 462.164062 C 397.070312 463.527344 391.023438 456.503906 393.753906 447.132812 C 393.167969 446.941406 392.777344 446.941406 392.386719 446.550781 C 391.996094 446.355469 391.605469 446.160156 391.023438 445.769531 C 390.632812 445.378906 389.851562 444.988281 389.460938 444.402344 C 383.996094 449.085938 385.558594 458.0625 390.632812 462.941406 C 398.4375 470.359375 410.734375 469.96875 420.101562 465.871094 C 436.105469 458.648438 462.453125 420.785156 436.300781 410.050781 C 432.59375 408.6875 429.664062 414.347656 432.59375 416.6875 Z M 432.59375 416.6875 " fill-opacity="1" fill-rule="nonzero"/><path fill="#fefefe" d="M 442.351562 428.398438 C 455.621094 427.8125 466.746094 415.710938 476.117188 407.710938 C 482.554688 402.246094 489.191406 396.585938 497.195312 393.464844 C 507.148438 389.558594 518.273438 389.558594 528.8125 389.363281 C 536.421875 389.167969 536.226562 376.875 528.8125 377.65625 C 511.441406 379.214844 494.65625 381.753906 480.410156 392.683594 C 474.359375 397.367188 468.894531 403.027344 463.234375 408.296875 C 456.402344 414.738281 448.792969 418.640625 441.179688 423.714844 C 439.226562 425.277344 439.8125 428.59375 442.351562 428.398438 Z M 442.351562 428.398438 " fill-opacity="1" fill-rule="nonzero"/><path fill="#fefefe" d="M 256.550781 348.964844 C 301.632812 348.378906 345.351562 337.449219 389.265625 328.277344 C 411.710938 323.59375 434.347656 319.105469 457.183594 316.761719 C 468.503906 315.589844 479.628906 315.003906 490.949219 315.199219 C 502.660156 315.589844 514.953125 318.128906 526.664062 317.347656 C 534.859375 316.761719 537.59375 304.269531 528.617188 302.320312 C 507.34375 297.636719 481.96875 303.296875 460.5 306.027344 C 438.058594 308.957031 415.808594 313.25 393.753906 317.933594 C 347.890625 327.691406 302.21875 338.816406 255.964844 345.84375 C 254.402344 346.234375 254.792969 348.964844 256.550781 348.964844 Z M 256.550781 348.964844 " fill-opacity="1" fill-rule="nonzero"/><path fill="#fefefe" d="M 268.066406 344.671875 C 250.695312 342.132812 241.132812 356.96875 236.449219 371.605469 C 233.714844 379.800781 230.398438 389.558594 233.910156 398.148438 C 237.230469 406.148438 246.207031 411.613281 253.625 415.128906 C 264.941406 420.589844 287.386719 427.8125 294.609375 412.394531 C 302.609375 394.828125 277.042969 379.214844 264.941406 371.996094 C 261.234375 369.847656 256.550781 375.3125 260.257812 378.046875 C 267.480469 383.703125 275.089844 390.144531 281.140625 397.367188 C 284.265625 401.269531 284.851562 408.882812 279.582031 411.027344 C 277.433594 411.808594 273.726562 411.222656 271.773438 410.832031 C 266.113281 409.859375 260.453125 407.515625 255.574219 404.976562 C 250.5 402.246094 243.863281 398.539062 242.109375 392.488281 C 240.546875 387.21875 243.085938 380.191406 244.449219 375.117188 C 247.574219 362.625 253.429688 348.378906 268.066406 346.425781 C 268.847656 346.425781 269.238281 344.867188 268.066406 344.671875 Z M 268.066406 344.671875 " fill-opacity="1" fill-rule="nonzero"/><path fill="#fefefe" d="M 258.699219 408.882812 C 258.894531 407.515625 259.476562 406.734375 260.453125 405.757812 C 260.84375 405.367188 261.234375 404.976562 261.625 404.589844 C 262.601562 404.003906 263.382812 403.417969 263.773438 402.246094 C 263.96875 401.074219 263.578125 400.097656 262.601562 399.320312 C 260.257812 397.757812 256.746094 400.292969 255.574219 402.441406 C 254.402344 404.589844 254.011719 407.125 254.597656 409.46875 C 255.183594 412.003906 258.503906 411.222656 258.699219 408.882812 Z M 258.699219 408.882812 " fill-opacity="1" fill-rule="nonzero"/><path fill="#fefefe" d="M 383.996094 440.5 C 383.214844 435.230469 378.921875 430.546875 374.433594 427.8125 C 370.527344 425.472656 363.503906 422.347656 359.601562 425.859375 C 358.625 426.835938 358.625 428.59375 359.601562 429.570312 C 361.160156 431.132812 362.527344 431.132812 364.480469 431.324219 C 366.820312 431.714844 368.96875 432.300781 371.113281 433.472656 C 375.214844 435.621094 377.75 439.132812 380.484375 442.449219 C 382.042969 444.402344 384.386719 442.449219 383.996094 440.5 Z M 383.996094 440.5 " fill-opacity="1" fill-rule="nonzero"/><path fill="#fefefe" d="M 276.457031 316.957031 C 313.929688 320.078125 351.402344 320.46875 388.875 326.128906 C 425.566406 331.59375 460.5 341.351562 496.21875 350.527344 C 496.21875 347.402344 496.21875 344.28125 496.21875 340.964844 C 487.042969 343.695312 477.675781 346.039062 468.503906 348.574219 C 462.257812 350.332031 464.992188 359.699219 471.234375 358.136719 C 481.191406 355.601562 491.339844 353.453125 501.292969 351.113281 C 505 350.332031 506.171875 346.039062 504.609375 343.109375 C 500.707031 335.695312 495.242188 329.449219 487.433594 326.519531 C 482.554688 324.765625 478.261719 331.984375 482.359375 335.304688 C 487.433594 339.402344 491.925781 342.71875 495.242188 348.769531 C 496.414062 346.039062 497.390625 343.304688 498.558594 340.769531 C 488.605469 343.5 478.652344 346.234375 468.699219 348.769531 C 469.675781 351.890625 470.457031 355.210938 471.429688 358.332031 C 480.605469 355.796875 489.972656 353.0625 499.144531 350.527344 C 504.21875 349.160156 503.4375 342.71875 499.144531 340.964844 C 464.210938 327.886719 425.761719 320.664062 388.679688 316.175781 C 351.988281 311.6875 313.34375 308.761719 276.457031 314.421875 C 274.703125 314.808594 275.089844 316.957031 276.457031 316.957031 Z M 276.457031 316.957031 " fill-opacity="1" fill-rule="nonzero"/></svg>