<svg xmlns="http://www.w3.org/2000/svg" xmlns:xlink="http://www.w3.org/1999/xlink" width="1024" zoomAndPan="magnify" viewBox="0 0 768 767.999994" height="1024" preserveAspectRatio="xMidYMid meet" version="1.0"><defs><clipPath id="c1df12bcab"><path d="M 231 268.382812 L 340 268.382812 L 340 496 L 231 496 Z M 231 268.382812 " clip-rule="nonzero"/></clipPath></defs><path fill="#fefefe" d="M 426.242188 496.726562 C 422.019531 474.714844 429.578125 455.59375 438.914062 436.25 C 446.921875 419.796875 454.925781 403.34375 463.375 387.109375 C 471.601562 371.101562 480.492188 355.984375 493.613281 343.753906 C 505.171875 332.859375 520.960938 324.855469 530.964844 312.625 C 536.96875 305.289062 536.746094 296.617188 529.628906 289.949219 C 520.070312 281.277344 505.394531 281.945312 494.054688 286.390625 C 472.042969 294.839844 445.808594 320.851562 442.695312 345.3125 C 442.25 349.757812 448.253906 350.425781 450.476562 347.3125 C 458.257812 335.75 462.484375 323.523438 472.488281 313.070312 C 482.273438 302.84375 494.945312 293.285156 509.398438 291.949219 C 519.625 291.058594 534.96875 298.398438 523.851562 309.515625 C 518.734375 314.628906 512.734375 318.628906 507.175781 323.078125 C 496.503906 331.527344 486.050781 339.976562 477.601562 350.648438 C 460.261719 372.660156 449.589844 399.785156 437.359375 424.910156 C 426.6875 446.699219 411.125 474.046875 424.019531 498.058594 C 424.464844 499.617188 426.6875 498.503906 426.242188 496.726562 Z M 426.242188 496.726562 " fill-opacity="1" fill-rule="nonzero"/><path fill="#fefefe" d="M 453.144531 337.527344 C 445.140625 315.960938 423.574219 294.617188 402.453125 285.945312 C 375.769531 274.828125 370.433594 305.511719 372.878906 325.300781 C 374.4375 338.195312 378.882812 350.425781 383.996094 362.207031 C 387.554688 370.65625 392.222656 383.554688 403.785156 382.664062 C 427.578125 380.886719 416.460938 333.304688 413.125 319.964844 C 411.566406 313.738281 402.230469 316.40625 403.785156 322.632812 C 406.007812 331.304688 407.566406 339.976562 408.234375 348.867188 C 408.457031 352.648438 408.898438 356.871094 408.457031 360.875 C 408.011719 363.097656 407.566406 365.097656 407.34375 367.324219 C 400.894531 370.878906 397.117188 369.992188 395.558594 364.878906 C 390.667969 359.539062 388.445312 348.644531 386.222656 341.753906 C 383.554688 333.304688 381.550781 324.632812 381.550781 315.738281 C 381.550781 311.738281 381.328125 307.070312 382.664062 303.289062 C 385.554688 294.839844 393.558594 292.171875 400.894531 295.507812 C 408.011719 298.839844 414.457031 303.734375 420.460938 308.847656 C 431.355469 318.183594 439.582031 329.523438 448.921875 340.417969 C 450.476562 341.976562 454.035156 339.976562 453.144531 337.527344 Z M 453.144531 337.527344 " fill-opacity="1" fill-rule="nonzero"/><path fill="#fefefe" d="M 380.664062 300.84375 C 373.992188 288.613281 357.316406 294.394531 350.867188 303.511719 C 339.75 318.851562 345.753906 341.085938 350.425781 357.539062 C 354.648438 372.214844 360.429688 395.78125 376.660156 401.785156 C 392.667969 407.789062 400.449219 394.449219 403.117188 380.886719 C 404.007812 376.4375 397.558594 374.660156 396.226562 379.105469 C 394.449219 385.554688 392 395.335938 382.441406 393.78125 C 375.992188 392.667969 372.214844 385.777344 369.546875 380.664062 C 365.097656 371.992188 361.984375 362.429688 359.316406 353.09375 C 354.648438 336.195312 346.867188 292.394531 378.4375 303.511719 C 380.21875 304.179688 381.550781 302.175781 380.664062 300.84375 Z M 380.664062 300.84375 " fill-opacity="1" fill-rule="nonzero"/><path fill="#fefefe" d="M 352.871094 316.40625 C 352.648438 306.179688 342.640625 299.285156 332.859375 300.398438 C 319.964844 301.730469 313.738281 312.847656 313.070312 324.855469 C 312.179688 341.085938 320.1875 356.429688 328.191406 369.992188 C 335.082031 381.773438 345.53125 395.78125 361.097656 391.78125 C 365.097656 390.667969 365.542969 383.777344 361.097656 383.109375 C 342.863281 379.996094 333.75 360.429688 327.300781 344.644531 C 324.1875 336.640625 320.851562 325.96875 324.410156 317.742188 C 330.414062 303.734375 342.863281 309.738281 350.203125 317.742188 C 351.089844 318.40625 352.871094 317.742188 352.871094 316.40625 Z M 352.871094 316.40625 " fill-opacity="1" fill-rule="nonzero"/><g clip-path="url(#c1df12bcab)"><path fill="#fefefe" d="M 318.851562 325.523438 C 306.84375 310.847656 291.503906 298.839844 277.496094 285.945312 C 269.492188 278.832031 260.597656 268.382812 248.816406 268.382812 C 239.476562 268.382812 231.027344 275.050781 231.472656 284.835938 C 231.917969 296.617188 242.367188 308.625 249.703125 317.296875 C 270.382812 341.753906 290.390625 365.097656 304.175781 394.449219 C 318.183594 424.242188 325.964844 456.703125 327.523438 489.609375 C 327.96875 496.949219 339.308594 496.949219 339.085938 489.609375 C 336.863281 439.359375 320.410156 389.777344 291.058594 348.867188 C 284.167969 339.53125 276.605469 330.636719 268.824219 322.1875 C 259.929688 312.625 247.480469 301.730469 243.476562 288.835938 C 240.808594 280.386719 248.59375 276.609375 255.261719 279.71875 C 258.820312 281.277344 261.710938 284.167969 264.601562 286.613281 C 270.160156 291.28125 275.71875 296.394531 281.054688 301.066406 C 292.171875 310.847656 303.066406 321.519531 315.515625 329.746094 C 318.183594 331.527344 320.628906 327.746094 318.851562 325.523438 Z M 318.851562 325.523438 " fill-opacity="1" fill-rule="nonzero"/></g></svg>