<svg xmlns="http://www.w3.org/2000/svg" xmlns:xlink="http://www.w3.org/1999/xlink" width="1024" zoomAndPan="magnify" viewBox="0 0 768 767.999994" height="1024" preserveAspectRatio="xMidYMid meet" version="1.0"><path fill="#fefefe" d="M 339.871094 435.476562 C 358.992188 404.796875 323.0625 373.070312 303.730469 353.320312 C 296.378906 345.753906 289.023438 338.398438 281.25 331.464844 C 278.308594 328.945312 275.367188 326.214844 272.425781 323.691406 C 269.273438 320.960938 259.605469 316.546875 265.910156 311.292969 C 272.632812 305.832031 291.335938 314.445312 297.429688 317.386719 C 306.042969 321.589844 314.238281 326.84375 322.644531 331.675781 C 358.992188 352.898438 394.925781 374.75 431.066406 396.601562 C 462.371094 415.515625 494.3125 434.425781 531.5 437.785156 C 537.59375 438.417969 537.59375 428.960938 531.5 428.332031 C 498.304688 425.390625 468.886719 408.582031 440.519531 391.980469 C 410.261719 374.332031 380.214844 356.46875 349.957031 338.398438 C 335.460938 329.785156 321.382812 320.75 306.671875 312.765625 C 295.539062 306.460938 281.25 299.316406 268.011719 300.578125 C 261.078125 301.207031 252.253906 305.410156 251.832031 313.394531 C 251.410156 318.230469 254.355469 322.011719 257.714844 325.164062 C 263.808594 330.835938 270.324219 336.089844 276.625 341.550781 C 290.074219 353.738281 302.472656 366.976562 315.289062 379.792969 C 329.578125 394.292969 343.65625 412.152344 336.300781 433.585938 C 335.460938 436.105469 338.820312 437.367188 339.871094 435.476562 Z M 339.871094 435.476562 " fill-opacity="1" fill-rule="nonzero"/><path fill="#fefefe" d="M 335.460938 399.753906 C 317.808594 392.609375 300.789062 411.941406 297.847656 427.910156 C 294.066406 448.921875 311.507812 463.839844 327.894531 473.507812 C 340.714844 481.28125 362.355469 484.855469 369.078125 467.203125 C 372.019531 459.429688 368.238281 451.445312 362.566406 446.191406 C 359.203125 443.039062 355 440.9375 351.007812 438.417969 C 343.65625 433.585938 339.871094 428.332031 335.671875 420.765625 C 333.359375 416.773438 327.476562 419.507812 328.316406 423.917969 C 330.628906 434.636719 338.820312 441.570312 347.855469 447.03125 C 354.160156 450.8125 365.925781 457.957031 358.785156 466.785156 C 352.898438 474.136719 341.972656 470.566406 335.25 466.992188 C 324.535156 461.320312 309.824219 451.023438 306.882812 438.628906 C 302.890625 422.449219 318.648438 402.277344 335.25 401.855469 C 336.71875 402.066406 336.71875 400.175781 335.460938 399.753906 Z M 335.460938 399.753906 " fill-opacity="1" fill-rule="nonzero"/><path fill="#fefefe" d="M 406.902344 419.925781 C 393.03125 426.019531 377.484375 433.792969 368.238281 446.191406 C 362.355469 453.964844 355.632812 469.304688 365.085938 476.871094 C 375.171875 485.0625 393.03125 480.019531 403.328125 475.609375 C 418.667969 468.882812 433.375 458.378906 444.933594 446.191406 C 448.292969 442.621094 443.25 437.578125 439.46875 440.730469 C 423.5 455.015625 402.277344 473.71875 379.375 472.875 C 374.542969 472.667969 369.289062 469.726562 368.027344 464.472656 C 367.398438 461.949219 369.710938 457.117188 370.96875 455.015625 C 373.492188 450.394531 377.0625 446.191406 380.847656 442.828125 C 389.671875 435.265625 400.597656 431.0625 409.421875 423.5 C 411.3125 421.609375 408.792969 419.085938 406.902344 419.925781 Z M 406.902344 419.925781 " fill-opacity="1" fill-rule="nonzero"/><path fill="#fefefe" d="M 427.703125 461.109375 C 436.738281 468.882812 459.429688 465.3125 464.894531 454.175781 C 465.945312 452.074219 464.054688 448.292969 461.320312 449.554688 C 456.070312 451.65625 452.285156 455.855469 446.613281 457.328125 C 440.730469 459.007812 434.847656 457.957031 428.964844 458.378906 C 427.492188 458.589844 426.652344 460.269531 427.703125 461.109375 Z M 427.703125 461.109375 " fill-opacity="1" fill-rule="nonzero"/><path fill="#fefefe" d="M 378.324219 438.835938 C 374.753906 436.734375 371.179688 434.214844 368.660156 430.851562 C 366.136719 427.699219 365.296875 423.5 362.777344 420.558594 C 361.726562 419.296875 358.992188 419.925781 358.785156 421.609375 C 357.941406 426.652344 361.515625 431.484375 364.875 434.84375 C 368.449219 438.417969 372.652344 440.519531 377.695312 441.148438 C 378.746094 441.148438 379.164062 439.46875 378.324219 438.835938 Z M 378.324219 438.835938 " fill-opacity="1" fill-rule="nonzero"/><path fill="#fefefe" d="M 380.003906 436.945312 C 378.535156 432.535156 377.0625 427.910156 376.222656 423.289062 C 375.382812 419.085938 375.804688 414.464844 374.121094 410.679688 C 373.492188 409.210938 371.390625 409.421875 370.761719 410.679688 C 365.925781 418.875 371.8125 432.113281 377.0625 438.835938 C 378.113281 440.097656 380.636719 438.628906 380.003906 436.945312 Z M 380.003906 436.945312 " fill-opacity="1" fill-rule="nonzero"/><path fill="#fefefe" d="M 417.195312 471.40625 C 420.558594 474.136719 423.921875 476.871094 427.492188 479.179688 C 431.066406 481.492188 435.265625 484.222656 439.46875 485.0625 C 443.042969 485.695312 445.5625 481.070312 441.992188 478.761719 C 438.628906 476.660156 434.636719 475.820312 431.066406 474.558594 C 426.863281 472.875 422.660156 471.195312 418.667969 469.304688 C 417.40625 468.675781 415.9375 470.355469 417.195312 471.40625 Z M 417.195312 471.40625 " fill-opacity="1" fill-rule="nonzero"/><path fill="#fefefe" d="M 299.109375 444.300781 C 286.082031 466.574219 306.464844 486.746094 326.214844 494.519531 C 334.828125 498.089844 349.328125 502.714844 358.152344 497.460938 C 366.347656 492.628906 365.925781 482.121094 362.984375 474.347656 C 361.726562 470.984375 355.632812 470.984375 356.050781 475.1875 C 356.261719 476.449219 357.101562 483.171875 357.101562 483.59375 C 354.582031 486.324219 351.847656 488.847656 349.328125 491.578125 C 347.4375 491.578125 345.335938 491.367188 343.445312 490.945312 C 335.671875 489.6875 328.316406 487.164062 321.59375 483.382812 C 315.5 480.019531 309.195312 475.609375 305.621094 469.515625 C 301 461.53125 304.152344 453.757812 303.3125 445.351562 C 302.890625 443.460938 300.160156 442.410156 299.109375 444.300781 Z M 299.109375 444.300781 " fill-opacity="1" fill-rule="nonzero"/><path fill="#fefefe" d="M 310.246094 484.011719 C 301 497.882812 317.808594 512.589844 330.417969 515.53125 C 342.394531 518.261719 360.675781 508.808594 355.210938 494.308594 C 353.949219 490.945312 348.90625 491.367188 348.699219 495.148438 C 347.648438 519.734375 308.566406 506.285156 314.027344 485.695312 C 314.867188 483.171875 311.507812 481.910156 310.246094 484.011719 Z M 310.246094 484.011719 " fill-opacity="1" fill-rule="nonzero"/><path fill="#fefefe" d="M 357.941406 495.78125 C 369.917969 510.066406 389.25 513.851562 406.902344 514.480469 C 418.035156 514.902344 429.382812 513.640625 440.519531 513.21875 C 454.175781 512.800781 466.15625 514.902344 479.183594 518.894531 C 483.382812 520.152344 486.117188 514.058594 482.125 511.960938 C 463.421875 501.875 440.101562 505.445312 419.929688 506.496094 C 398.496094 507.757812 377.695312 506.707031 359.832031 493.46875 C 358.363281 492.207031 356.890625 494.519531 357.941406 495.78125 Z M 357.941406 495.78125 " fill-opacity="1" fill-rule="nonzero"/><path fill="#fefefe" d="M 235.234375 289.230469 C 260.027344 283.769531 284.402344 276.414062 309.195312 270.953125 C 333.988281 265.277344 358.992188 260.867188 384.207031 257.292969 C 382.316406 255.824219 380.214844 254.351562 378.324219 252.882812 C 378.324219 262.96875 370.550781 269.691406 364.035156 276.203125 C 357.734375 282.507812 351.21875 289.023438 344.914062 295.535156 C 332.726562 307.933594 320.960938 320.75 309.40625 333.777344 C 297.847656 346.804688 286.503906 360.042969 275.574219 373.488281 C 266.960938 383.996094 253.933594 395.972656 252.042969 410.050781 C 251.621094 413.625 254.144531 417.195312 258.136719 416.144531 C 288.183594 408.371094 317.601562 398.074219 346.175781 385.46875 C 360.464844 379.164062 374.542969 372.230469 388.199219 364.664062 C 401.226562 357.519531 416.355469 350.378906 427.28125 340.082031 C 429.804688 337.558594 428.542969 333.355469 425.179688 332.515625 C 415.726562 329.574219 407.742188 328.734375 397.867188 331.257812 C 393.242188 332.515625 394.082031 340.082031 399.125 339.871094 C 410.261719 339.03125 421.1875 337.980469 432.113281 336.71875 C 430.644531 334.199219 429.382812 331.886719 427.914062 329.363281 C 423.921875 336.507812 420.136719 343.863281 416.144531 351.007812 C 412.996094 356.679688 421.820312 361.722656 424.761719 356.050781 C 428.542969 348.695312 432.324219 341.550781 436.105469 334.199219 C 437.578125 331.257812 435.898438 326.421875 431.90625 326.84375 C 420.558594 328.105469 409 329.363281 397.65625 331.046875 C 398.496094 333.777344 399.125 336.71875 399.964844 339.449219 C 407.109375 336.929688 414.675781 336.71875 421.398438 340.710938 C 421.398438 337.980469 421.398438 335.457031 421.398438 332.726562 C 407.953125 338.609375 395.34375 348.277344 382.527344 355.210938 C 369.289062 362.355469 355.839844 369.078125 342.183594 375.382812 C 314.027344 387.988281 284.820312 398.074219 254.984375 406.058594 C 257.085938 408.160156 258.976562 410.050781 261.078125 412.152344 C 262.339844 402.90625 269.273438 395.972656 274.734375 389.039062 C 280.410156 381.894531 285.871094 374.960938 291.753906 367.816406 C 303.523438 353.320312 315.917969 339.242188 328.316406 325.164062 C 340.921875 312.34375 353.320312 299.109375 366.136719 286.289062 C 375.804688 276.625 387.570312 267.589844 387.570312 252.671875 C 387.570312 249.308594 384.628906 247.839844 381.6875 248.257812 C 332.308594 254.984375 279.988281 264.4375 233.550781 283.558594 C 230.398438 285.03125 231.449219 289.863281 235.234375 289.230469 Z M 235.234375 289.230469 " fill-opacity="1" fill-rule="nonzero"/><path fill="#fefefe" d="M 377.0625 453.964844 C 381.6875 459.007812 383.367188 465.101562 383.578125 471.828125 C 383.578125 478.339844 394.292969 478.128906 393.664062 471.828125 C 392.613281 462.792969 387.570312 455.015625 380.003906 450.183594 C 377.484375 448.714844 375.171875 452.074219 377.0625 453.964844 Z M 377.0625 453.964844 " fill-opacity="1" fill-rule="nonzero"/></svg>